{
	"asset":
	{
		"version": "2.0",
		"generator": "Unreal Engine 5.5.3"
	},
	"scene": 0,
	"accessors": [
		{
			"bufferView": 0,
			"count": 14220,
			"type": "SCALAR",
			"componentType": 5123
		},
		{
			"bufferView": 1,
			"count": 2937,
			"type": "VEC3",
			"componentType": 5126,
			"min": [ -0.0748870522, -0.111519352, -0.0551719405 ],
			"max": [ 0.0743214861, 0.111761093, 0.0548282675 ]
		},
		{
			"bufferView": 2,
			"count": 2937,
			"type": "VEC3",
			"componentType": 5126
		},
		{
			"bufferView": 3,
			"count": 2937,
			"type": "VEC4",
			"componentType": 5126
		},
		{
			"bufferView": 4,
			"count": 2937,
			"type": "VEC2",
			"componentType": 5126
		}
	],
	"buffers": [
		{
			"uri": "SM_Ind_Con_Oil_Plastic_Pack_02_E.bin",
			"byteLength": 169416
		}
	],
	"bufferViews": [
		{
			"buffer": 0,
			"byteLength": 28440,
			"target": 34963
		},
		{
			"buffer": 0,
			"byteLength": 35244,
			"byteOffset": 28440,
			"target": 34962
		},
		{
			"buffer": 0,
			"byteLength": 35244,
			"byteOffset": 63684,
			"target": 34962
		},
		{
			"buffer": 0,
			"byteLength": 46992,
			"byteOffset": 98928,
			"target": 34962
		},
		{
			"buffer": 0,
			"byteLength": 23496,
			"byteOffset": 145920,
			"target": 34962
		}
	],
	"images": [
		{
			"uri": "MI_Ind_Con_Oil_Plastic_Pack_02_BaseColor.png"
		},
		{
			"uri": "MI_Ind_Con_Oil_Plastic_Pack_02_MetallicRoughness.png"
		},
		{
			"uri": "MI_Ind_Con_Oil_Plastic_Pack_02_Normal.png"
		}
	],
	"materials": [
		{
			"name": "MI_Ind_Con_Oil_Plastic_Pack_02",
			"pbrMetallicRoughness":
			{
				"baseColorTexture":
				{
					"index": 0
				},
				"metallicRoughnessTexture":
				{
					"index": 1
				}
			},
			"normalTexture":
			{
				"index": 2
			},
			"extensions":
			{
				"KHR_materials_specular":
				{
					"specularFactor": 0.498039246
				}
			}
		}
	],
	"meshes": [
		{
			"name": "SM_Ind_Con_Oil_Plastic_Pack_02_E",
			"primitives": [
				{
					"attributes":
					{
						"POSITION": 1,
						"NORMAL": 2,
						"TANGENT": 3,
						"TEXCOORD_0": 4
					},
					"indices": 0,
					"material": 0
				}
			]
		}
	],
	"nodes": [
		{
			"mesh": 0
		}
	],
	"samplers": [
		{
			"minFilter": 9987,
			"magFilter": 9729
		}
	],
	"scenes": [
		{
			"nodes": [ 0 ]
		}
	],
	"textures": [
		{
			"name": "MI_Ind_Con_Oil_Plastic_Pack_02_BaseColor",
			"sampler": 0,
			"source": 0
		},
		{
			"name": "MI_Ind_Con_Oil_Plastic_Pack_02_MetallicRoughness",
			"sampler": 0,
			"source": 1
		},
		{
			"name": "MI_Ind_Con_Oil_Plastic_Pack_02_Normal",
			"sampler": 0,
			"source": 2
		}
	],
	"extensionsUsed": [
		"KHR_materials_specular"
	]
}