{
	"asset":
	{
		"version": "2.0",
		"generator": "Unreal Engine 5.5.3"
	},
	"scene": 0,
	"accessors": [
		{
			"bufferView": 0,
			"count": 3729,
			"type": "SCALAR",
			"componentType": 5123
		},
		{
			"bufferView": 1,
			"count": 1483,
			"type": "VEC3",
			"componentType": 5126,
			"min": [ 0.199999914, 0.149999991, 0.0199996512 ],
			"max": [ 1.29999995, 2.20000029, 1.02142632 ]
		},
		{
			"bufferView": 2,
			"count": 1483,
			"type": "VEC3",
			"componentType": 5126
		},
		{
			"bufferView": 3,
			"count": 1483,
			"type": "VEC4",
			"componentType": 5126
		},
		{
			"bufferView": 4,
			"count": 1483,
			"type": "VEC2",
			"componentType": 5126
		},
		{
			"bufferView": 5,
			"count": 1483,
			"type": "VEC2",
			"componentType": 5126
		}
	],
	"buffers": [
		{
			"uri": "SM_door_open.bin",
			"byteLength": 90508
		}
	],
	"bufferViews": [
		{
			"buffer": 0,
			"byteLength": 7458,
			"target": 34963
		},
		{
			"buffer": 0,
			"byteLength": 17796,
			"byteOffset": 7460,
			"target": 34962
		},
		{
			"buffer": 0,
			"byteLength": 17796,
			"byteOffset": 25256,
			"target": 34962
		},
		{
			"buffer": 0,
			"byteLength": 23728,
			"byteOffset": 43052,
			"target": 34962
		},
		{
			"buffer": 0,
			"byteLength": 11864,
			"byteOffset": 66780,
			"target": 34962
		},
		{
			"buffer": 0,
			"byteLength": 11864,
			"byteOffset": 78644,
			"target": 34962
		}
	],
	"images": [
		{
			"uri": "MI_door_BaseColor.png"
		},
		{
			"uri": "MI_door_MetallicRoughness.png"
		},
		{
			"uri": "MI_door_Occlusion.png"
		},
		{
			"uri": "T_door_N.png"
		}
	],
	"materials": [
		{
			"name": "MI_door",
			"pbrMetallicRoughness":
			{
				"baseColorTexture":
				{
					"index": 0
				},
				"metallicRoughnessTexture":
				{
					"index": 1
				}
			},
			"normalTexture":
			{
				"index": 2
			},
			"occlusionTexture":
			{
				"index": 3
			}
		}
	],
	"meshes": [
		{
			"name": "SM_door_open",
			"primitives": [
				{
					"attributes":
					{
						"POSITION": 1,
						"NORMAL": 2,
						"TANGENT": 3,
						"TEXCOORD_0": 4,
						"TEXCOORD_1": 5
					},
					"indices": 0,
					"material": 0
				}
			]
		}
	],
	"nodes": [
		{
			"mesh": 0
		}
	],
	"samplers": [
		{
			"minFilter": 9987,
			"magFilter": 9729
		}
	],
	"scenes": [
		{
			"nodes": [ 0 ]
		}
	],
	"textures": [
		{
			"name": "MI_door_BaseColor",
			"sampler": 0,
			"source": 0
		},
		{
			"name": "MI_door_MetallicRoughness",
			"sampler": 0,
			"source": 1
		},
		{
			"name": "T_door_N",
			"sampler": 0,
			"source": 3
		},
		{
			"name": "MI_door_Occlusion",
			"sampler": 0,
			"source": 2
		}
	]
}