{
	"asset":
	{
		"version": "2.0",
		"generator": "Unreal Engine 5.5.3"
	},
	"scene": 0,
	"accessors": [
		{
			"bufferView": 0,
			"count": 360,
			"type": "SCALAR",
			"componentType": 5121
		},
		{
			"bufferView": 1,
			"count": 240,
			"type": "VEC3",
			"componentType": 5126,
			"min": [ 0, 0, -3.25841341e-07 ],
			"max": [ 1, 2, 0.300000012 ]
		},
		{
			"bufferView": 2,
			"count": 240,
			"type": "VEC3",
			"componentType": 5126
		},
		{
			"bufferView": 3,
			"count": 240,
			"type": "VEC4",
			"componentType": 5126
		},
		{
			"bufferView": 4,
			"count": 240,
			"type": "VEC2",
			"componentType": 5126
		},
		{
			"bufferView": 5,
			"count": 240,
			"type": "VEC2",
			"componentType": 5126
		}
	],
	"buffers": [
		{
			"uri": "SM_shelf_l.bin",
			"byteLength": 13800
		}
	],
	"bufferViews": [
		{
			"buffer": 0,
			"byteLength": 360,
			"target": 34963
		},
		{
			"buffer": 0,
			"byteLength": 2880,
			"byteOffset": 360,
			"target": 34962
		},
		{
			"buffer": 0,
			"byteLength": 2880,
			"byteOffset": 3240,
			"target": 34962
		},
		{
			"buffer": 0,
			"byteLength": 3840,
			"byteOffset": 6120,
			"target": 34962
		},
		{
			"buffer": 0,
			"byteLength": 1920,
			"byteOffset": 9960,
			"target": 34962
		},
		{
			"buffer": 0,
			"byteLength": 1920,
			"byteOffset": 11880,
			"target": 34962
		}
	],
	"images": [
		{
			"uri": "MI_shelf_01_BaseColor.png"
		},
		{
			"uri": "MI_shelf_01_MetallicRoughness.png"
		},
		{
			"uri": "MI_shelf_01_Occlusion.png"
		},
		{
			"uri": "T_shelf_L_N.png"
		}
	],
	"materials": [
		{
			"name": "MI_shelf_01",
			"pbrMetallicRoughness":
			{
				"baseColorTexture":
				{
					"index": 0
				},
				"metallicRoughnessTexture":
				{
					"index": 1
				}
			},
			"normalTexture":
			{
				"index": 2
			},
			"occlusionTexture":
			{
				"index": 3
			}
		}
	],
	"meshes": [
		{
			"name": "SM_shelf_l",
			"primitives": [
				{
					"attributes":
					{
						"POSITION": 1,
						"NORMAL": 2,
						"TANGENT": 3,
						"TEXCOORD_0": 4,
						"TEXCOORD_1": 5
					},
					"indices": 0,
					"material": 0
				}
			]
		}
	],
	"nodes": [
		{
			"mesh": 0
		}
	],
	"samplers": [
		{
			"minFilter": 9987,
			"magFilter": 9729
		}
	],
	"scenes": [
		{
			"nodes": [ 0 ]
		}
	],
	"textures": [
		{
			"name": "MI_shelf_01_BaseColor",
			"sampler": 0,
			"source": 0
		},
		{
			"name": "MI_shelf_01_MetallicRoughness",
			"sampler": 0,
			"source": 1
		},
		{
			"name": "T_shelf_L_N",
			"sampler": 0,
			"source": 3
		},
		{
			"name": "MI_shelf_01_Occlusion",
			"sampler": 0,
			"source": 2
		}
	]
}