{
	"asset":
	{
		"version": "2.0",
		"generator": "Unreal Engine 5.5.3"
	},
	"scene": 0,
	"accessors": [
		{
			"bufferView": 0,
			"count": 23862,
			"type": "SCALAR",
			"componentType": 5123
		},
		{
			"bufferView": 1,
			"count": 8837,
			"type": "VEC3",
			"componentType": 5126,
			"min": [ -2.98023224e-08, 6.05597279e-07, -0.000741748372 ],
			"max": [ 0.700000048, 0.900000513, 0.899174333 ]
		},
		{
			"bufferView": 2,
			"count": 8837,
			"type": "VEC3",
			"componentType": 5126
		},
		{
			"bufferView": 3,
			"count": 8837,
			"type": "VEC4",
			"componentType": 5126
		},
		{
			"bufferView": 4,
			"count": 8837,
			"type": "VEC2",
			"componentType": 5126
		},
		{
			"bufferView": 5,
			"count": 8837,
			"type": "VEC2",
			"componentType": 5126
		}
	],
	"buffers": [
		{
			"uri": "SM_engine.bin",
			"byteLength": 542596
		}
	],
	"bufferViews": [
		{
			"buffer": 0,
			"byteLength": 47724,
			"target": 34963
		},
		{
			"buffer": 0,
			"byteLength": 106044,
			"byteOffset": 47724,
			"target": 34962
		},
		{
			"buffer": 0,
			"byteLength": 106044,
			"byteOffset": 153768,
			"target": 34962
		},
		{
			"buffer": 0,
			"byteLength": 141392,
			"byteOffset": 259812,
			"target": 34962
		},
		{
			"buffer": 0,
			"byteLength": 70696,
			"byteOffset": 401204,
			"target": 34962
		},
		{
			"buffer": 0,
			"byteLength": 70696,
			"byteOffset": 471900,
			"target": 34962
		}
	],
	"images": [
		{
			"uri": "MI_engine_BaseColor.png"
		},
		{
			"uri": "MI_engine_MetallicRoughness.png"
		},
		{
			"uri": "MI_engine_Occlusion.png"
		},
		{
			"uri": "T_engine_N.png"
		}
	],
	"materials": [
		{
			"name": "MI_engine",
			"pbrMetallicRoughness":
			{
				"baseColorTexture":
				{
					"index": 0
				},
				"metallicRoughnessTexture":
				{
					"index": 1
				}
			},
			"normalTexture":
			{
				"index": 2
			},
			"occlusionTexture":
			{
				"index": 3
			}
		}
	],
	"meshes": [
		{
			"name": "SM_engine",
			"primitives": [
				{
					"attributes":
					{
						"POSITION": 1,
						"NORMAL": 2,
						"TANGENT": 3,
						"TEXCOORD_0": 4,
						"TEXCOORD_1": 5
					},
					"indices": 0,
					"material": 0
				}
			]
		}
	],
	"nodes": [
		{
			"mesh": 0
		}
	],
	"samplers": [
		{
			"minFilter": 9987,
			"magFilter": 9729
		}
	],
	"scenes": [
		{
			"nodes": [ 0 ]
		}
	],
	"textures": [
		{
			"name": "MI_engine_BaseColor",
			"sampler": 0,
			"source": 0
		},
		{
			"name": "MI_engine_MetallicRoughness",
			"sampler": 0,
			"source": 1
		},
		{
			"name": "T_engine_N",
			"sampler": 0,
			"source": 3
		},
		{
			"name": "MI_engine_Occlusion",
			"sampler": 0,
			"source": 2
		}
	]
}