{
	"asset":
	{
		"version": "2.0",
		"generator": "Unreal Engine 5.5.3"
	},
	"scene": 0,
	"accessors": [
		{
			"bufferView": 0,
			"count": 984,
			"type": "SCALAR",
			"componentType": 5123
		},
		{
			"bufferView": 1,
			"count": 396,
			"type": "VEC3",
			"componentType": 5126,
			"min": [ 4.45584847e-05, -1.06829903e-05, 0.000912826392 ],
			"max": [ 0.708794534, 0.944989324, 0.372162849 ]
		},
		{
			"bufferView": 2,
			"count": 396,
			"type": "VEC3",
			"componentType": 5126
		},
		{
			"bufferView": 3,
			"count": 396,
			"type": "VEC4",
			"componentType": 5126
		},
		{
			"bufferView": 4,
			"count": 396,
			"type": "VEC2",
			"componentType": 5126
		},
		{
			"bufferView": 5,
			"count": 396,
			"type": "VEC2",
			"componentType": 5126
		}
	],
	"buffers": [
		{
			"uri": "SM_electric_box_l.bin",
			"byteLength": 24144
		}
	],
	"bufferViews": [
		{
			"buffer": 0,
			"byteLength": 1968,
			"target": 34963
		},
		{
			"buffer": 0,
			"byteLength": 4752,
			"byteOffset": 1968,
			"target": 34962
		},
		{
			"buffer": 0,
			"byteLength": 4752,
			"byteOffset": 6720,
			"target": 34962
		},
		{
			"buffer": 0,
			"byteLength": 6336,
			"byteOffset": 11472,
			"target": 34962
		},
		{
			"buffer": 0,
			"byteLength": 3168,
			"byteOffset": 17808,
			"target": 34962
		},
		{
			"buffer": 0,
			"byteLength": 3168,
			"byteOffset": 20976,
			"target": 34962
		}
	],
	"images": [
		{
			"uri": "MI_electric_boxes_lightbulb_BaseColor.png"
		},
		{
			"uri": "MI_electric_boxes_lightbulb_MetallicRoughness.png"
		},
		{
			"uri": "MI_electric_boxes_lightbulb_Occlusion.png"
		},
		{
			"uri": "T_electric_boxes_lightbulb_N.png"
		}
	],
	"materials": [
		{
			"name": "MI_electric_boxes_lightbulb",
			"pbrMetallicRoughness":
			{
				"baseColorTexture":
				{
					"index": 0
				},
				"metallicRoughnessTexture":
				{
					"index": 1
				}
			},
			"normalTexture":
			{
				"index": 2
			},
			"occlusionTexture":
			{
				"index": 3
			}
		}
	],
	"meshes": [
		{
			"name": "SM_electric_box_l",
			"primitives": [
				{
					"attributes":
					{
						"POSITION": 1,
						"NORMAL": 2,
						"TANGENT": 3,
						"TEXCOORD_0": 4,
						"TEXCOORD_1": 5
					},
					"indices": 0,
					"material": 0
				}
			]
		}
	],
	"nodes": [
		{
			"mesh": 0
		}
	],
	"samplers": [
		{
			"minFilter": 9987,
			"magFilter": 9729
		}
	],
	"scenes": [
		{
			"nodes": [ 0 ]
		}
	],
	"textures": [
		{
			"name": "MI_electric_boxes_lightbulb_BaseColor",
			"sampler": 0,
			"source": 0
		},
		{
			"name": "MI_electric_boxes_lightbulb_MetallicRoughness",
			"sampler": 0,
			"source": 1
		},
		{
			"name": "T_electric_boxes_lightbulb_N",
			"sampler": 0,
			"source": 3
		},
		{
			"name": "MI_electric_boxes_lightbulb_Occlusion",
			"sampler": 0,
			"source": 2
		}
	]
}