{
	"asset":
	{
		"version": "2.0",
		"generator": "Unreal Engine 5.5.3"
	},
	"scene": 0,
	"accessors": [
		{
			"bufferView": 0,
			"count": 3756,
			"type": "SCALAR",
			"componentType": 5123
		},
		{
			"bufferView": 1,
			"count": 868,
			"type": "VEC3",
			"componentType": 5126,
			"min": [ -1.05680847, -0.0771694332, -0.405028939 ],
			"max": [ 1.05734277, 0.0741923973, 0.405964494 ]
		},
		{
			"bufferView": 2,
			"count": 868,
			"type": "VEC3",
			"componentType": 5126
		},
		{
			"bufferView": 3,
			"count": 868,
			"type": "VEC4",
			"componentType": 5126
		},
		{
			"bufferView": 4,
			"count": 868,
			"type": "VEC2",
			"componentType": 5126
		}
	],
	"buffers": [
		{
			"uri": "SM_Ind_War_Sheet_Metal_Corrugated_02.bin",
			"byteLength": 49176
		}
	],
	"bufferViews": [
		{
			"buffer": 0,
			"byteLength": 7512,
			"target": 34963
		},
		{
			"buffer": 0,
			"byteLength": 10416,
			"byteOffset": 7512,
			"target": 34962
		},
		{
			"buffer": 0,
			"byteLength": 10416,
			"byteOffset": 17928,
			"target": 34962
		},
		{
			"buffer": 0,
			"byteLength": 13888,
			"byteOffset": 28344,
			"target": 34962
		},
		{
			"buffer": 0,
			"byteLength": 6944,
			"byteOffset": 42232,
			"target": 34962
		}
	],
	"images": [
		{
			"uri": "MI_Ind_War_Sheet_Metal_Corrugated_02_A_BaseColor.png"
		},
		{
			"uri": "MI_Ind_War_Sheet_Metal_Corrugated_02_A_MetallicRoughness.png"
		},
		{
			"uri": "MI_Ind_War_Sheet_Metal_Corrugated_02_A_Normal.png"
		}
	],
	"materials": [
		{
			"name": "MI_Ind_War_Sheet_Metal_Corrugated_02_A",
			"pbrMetallicRoughness":
			{
				"baseColorTexture":
				{
					"index": 0
				},
				"metallicRoughnessTexture":
				{
					"index": 1
				}
			},
			"normalTexture":
			{
				"index": 2
			},
			"extensions":
			{
				"KHR_materials_specular":
				{
					"specularFactor": 0.498039246
				}
			}
		}
	],
	"meshes": [
		{
			"name": "SM_Ind_War_Sheet_Metal_Corrugated_02",
			"primitives": [
				{
					"attributes":
					{
						"POSITION": 1,
						"NORMAL": 2,
						"TANGENT": 3,
						"TEXCOORD_0": 4
					},
					"indices": 0,
					"material": 0
				}
			]
		}
	],
	"nodes": [
		{
			"mesh": 0
		}
	],
	"samplers": [
		{
			"minFilter": 9987,
			"magFilter": 9729
		}
	],
	"scenes": [
		{
			"nodes": [ 0 ]
		}
	],
	"textures": [
		{
			"name": "MI_Ind_War_Sheet_Metal_Corrugated_02_A_BaseColor",
			"sampler": 0,
			"source": 0
		},
		{
			"name": "MI_Ind_War_Sheet_Metal_Corrugated_02_A_MetallicRoughness",
			"sampler": 0,
			"source": 1
		},
		{
			"name": "MI_Ind_War_Sheet_Metal_Corrugated_02_A_Normal",
			"sampler": 0,
			"source": 2
		}
	],
	"extensionsUsed": [
		"KHR_materials_specular"
	]
}