{
	"asset":
	{
		"version": "2.0",
		"generator": "Unreal Engine 5.5.3"
	},
	"scene": 0,
	"accessors": [
		{
			"bufferView": 0,
			"count": 7458,
			"type": "SCALAR",
			"componentType": 5123
		},
		{
			"bufferView": 1,
			"count": 1452,
			"type": "VEC3",
			"componentType": 5126,
			"min": [ -0.0495591387, -0.110224247, -0.0306840111 ],
			"max": [ 0.0492750481, 0.110052831, 0.0308760535 ]
		},
		{
			"bufferView": 2,
			"count": 1452,
			"type": "VEC3",
			"componentType": 5126
		},
		{
			"bufferView": 3,
			"count": 1452,
			"type": "VEC4",
			"componentType": 5126
		},
		{
			"bufferView": 4,
			"count": 1452,
			"type": "VEC2",
			"componentType": 5126
		}
	],
	"buffers": [
		{
			"uri": "SM_Ind_Con_Oil_Plastic_Pack_02_C.bin",
			"byteLength": 84612
		}
	],
	"bufferViews": [
		{
			"buffer": 0,
			"byteLength": 14916,
			"target": 34963
		},
		{
			"buffer": 0,
			"byteLength": 17424,
			"byteOffset": 14916,
			"target": 34962
		},
		{
			"buffer": 0,
			"byteLength": 17424,
			"byteOffset": 32340,
			"target": 34962
		},
		{
			"buffer": 0,
			"byteLength": 23232,
			"byteOffset": 49764,
			"target": 34962
		},
		{
			"buffer": 0,
			"byteLength": 11616,
			"byteOffset": 72996,
			"target": 34962
		}
	],
	"images": [
		{
			"uri": "MI_Ind_Con_Oil_Plastic_Pack_02_BaseColor.png"
		},
		{
			"uri": "MI_Ind_Con_Oil_Plastic_Pack_02_MetallicRoughness.png"
		},
		{
			"uri": "MI_Ind_Con_Oil_Plastic_Pack_02_Normal.png"
		}
	],
	"materials": [
		{
			"name": "MI_Ind_Con_Oil_Plastic_Pack_02",
			"pbrMetallicRoughness":
			{
				"baseColorTexture":
				{
					"index": 0
				},
				"metallicRoughnessTexture":
				{
					"index": 1
				}
			},
			"normalTexture":
			{
				"index": 2
			},
			"extensions":
			{
				"KHR_materials_specular":
				{
					"specularFactor": 0.498039246
				}
			}
		}
	],
	"meshes": [
		{
			"name": "SM_Ind_Con_Oil_Plastic_Pack_02_C",
			"primitives": [
				{
					"attributes":
					{
						"POSITION": 1,
						"NORMAL": 2,
						"TANGENT": 3,
						"TEXCOORD_0": 4
					},
					"indices": 0,
					"material": 0
				}
			]
		}
	],
	"nodes": [
		{
			"mesh": 0
		}
	],
	"samplers": [
		{
			"minFilter": 9987,
			"magFilter": 9729
		}
	],
	"scenes": [
		{
			"nodes": [ 0 ]
		}
	],
	"textures": [
		{
			"name": "MI_Ind_Con_Oil_Plastic_Pack_02_BaseColor",
			"sampler": 0,
			"source": 0
		},
		{
			"name": "MI_Ind_Con_Oil_Plastic_Pack_02_MetallicRoughness",
			"sampler": 0,
			"source": 1
		},
		{
			"name": "MI_Ind_Con_Oil_Plastic_Pack_02_Normal",
			"sampler": 0,
			"source": 2
		}
	],
	"extensionsUsed": [
		"KHR_materials_specular"
	]
}