{
	"asset":
	{
		"version": "2.0",
		"generator": "Unreal Engine 5.5.3"
	},
	"scene": 0,
	"accessors": [
		{
			"bufferView": 0,
			"count": 3312,
			"type": "SCALAR",
			"componentType": 5123
		},
		{
			"bufferView": 1,
			"count": 796,
			"type": "VEC3",
			"componentType": 5126,
			"min": [ -0.00996311754, -0.00774417166, -1.2289695e-07 ],
			"max": [ 0.0904368013, 0.514703929, 0.20760949 ]
		},
		{
			"bufferView": 2,
			"count": 796,
			"type": "VEC3",
			"componentType": 5126
		},
		{
			"bufferView": 3,
			"count": 796,
			"type": "VEC4",
			"componentType": 5126
		},
		{
			"bufferView": 4,
			"count": 796,
			"type": "VEC2",
			"componentType": 5126
		},
		{
			"bufferView": 5,
			"count": 796,
			"type": "VEC2",
			"componentType": 5126
		}
	],
	"buffers": [
		{
			"uri": "SM_pipe_c.bin",
			"byteLength": 51200
		}
	],
	"bufferViews": [
		{
			"buffer": 0,
			"byteLength": 6624,
			"target": 34963
		},
		{
			"buffer": 0,
			"byteLength": 9552,
			"byteOffset": 6624,
			"target": 34962
		},
		{
			"buffer": 0,
			"byteLength": 9552,
			"byteOffset": 16176,
			"target": 34962
		},
		{
			"buffer": 0,
			"byteLength": 12736,
			"byteOffset": 25728,
			"target": 34962
		},
		{
			"buffer": 0,
			"byteLength": 6368,
			"byteOffset": 38464,
			"target": 34962
		},
		{
			"buffer": 0,
			"byteLength": 6368,
			"byteOffset": 44832,
			"target": 34962
		}
	],
	"images": [
		{
			"uri": "MI_pipes_BaseColor.png"
		},
		{
			"uri": "MI_pipes_MetallicRoughness.png"
		},
		{
			"uri": "MI_pipes_Occlusion.png"
		},
		{
			"uri": "T_pipes_N.png"
		}
	],
	"materials": [
		{
			"name": "MI_pipes",
			"pbrMetallicRoughness":
			{
				"baseColorTexture":
				{
					"index": 0
				},
				"metallicRoughnessTexture":
				{
					"index": 1
				}
			},
			"normalTexture":
			{
				"index": 2
			},
			"occlusionTexture":
			{
				"index": 3
			}
		}
	],
	"meshes": [
		{
			"name": "SM_pipe_c",
			"primitives": [
				{
					"attributes":
					{
						"POSITION": 1,
						"NORMAL": 2,
						"TANGENT": 3,
						"TEXCOORD_0": 4,
						"TEXCOORD_1": 5
					},
					"indices": 0,
					"material": 0
				}
			]
		}
	],
	"nodes": [
		{
			"mesh": 0
		}
	],
	"samplers": [
		{
			"minFilter": 9987,
			"magFilter": 9729
		}
	],
	"scenes": [
		{
			"nodes": [ 0 ]
		}
	],
	"textures": [
		{
			"name": "MI_pipes_BaseColor",
			"sampler": 0,
			"source": 0
		},
		{
			"name": "MI_pipes_MetallicRoughness",
			"sampler": 0,
			"source": 1
		},
		{
			"name": "T_pipes_N",
			"sampler": 0,
			"source": 3
		},
		{
			"name": "MI_pipes_Occlusion",
			"sampler": 0,
			"source": 2
		}
	]
}