{
	"asset":
	{
		"version": "2.0",
		"generator": "Unreal Engine 5.5.3"
	},
	"scene": 0,
	"accessors": [
		{
			"bufferView": 0,
			"count": 960,
			"type": "SCALAR",
			"componentType": 5123
		},
		{
			"bufferView": 1,
			"count": 354,
			"type": "VEC3",
			"componentType": 5126,
			"min": [ 0, 0, -1.79212751e-08 ],
			"max": [ 0.0999999866, 0.110000014, 0.0999999866 ]
		},
		{
			"bufferView": 2,
			"count": 354,
			"type": "VEC3",
			"componentType": 5126
		},
		{
			"bufferView": 3,
			"count": 354,
			"type": "VEC4",
			"componentType": 5126
		},
		{
			"bufferView": 4,
			"count": 354,
			"type": "VEC2",
			"componentType": 5126
		},
		{
			"bufferView": 5,
			"count": 354,
			"type": "VEC2",
			"componentType": 5126
		}
	],
	"buffers": [
		{
			"uri": "SM_can_l.bin",
			"byteLength": 21744
		}
	],
	"bufferViews": [
		{
			"buffer": 0,
			"byteLength": 1920,
			"target": 34963
		},
		{
			"buffer": 0,
			"byteLength": 4248,
			"byteOffset": 1920,
			"target": 34962
		},
		{
			"buffer": 0,
			"byteLength": 4248,
			"byteOffset": 6168,
			"target": 34962
		},
		{
			"buffer": 0,
			"byteLength": 5664,
			"byteOffset": 10416,
			"target": 34962
		},
		{
			"buffer": 0,
			"byteLength": 2832,
			"byteOffset": 16080,
			"target": 34962
		},
		{
			"buffer": 0,
			"byteLength": 2832,
			"byteOffset": 18912,
			"target": 34962
		}
	],
	"images": [
		{
			"uri": "MI_sign_rack_jerrys_cans_bottle_BaseColor.png"
		},
		{
			"uri": "MI_sign_rack_jerrys_cans_bottle_MetallicRoughness.png"
		},
		{
			"uri": "MI_sign_rack_jerrys_cans_bottle_Occlusion.png"
		},
		{
			"uri": "T_sign_rack_jerrys_can_N.png"
		}
	],
	"materials": [
		{
			"name": "MI_sign_rack_jerrys_cans_bottle",
			"pbrMetallicRoughness":
			{
				"baseColorTexture":
				{
					"index": 0
				},
				"metallicRoughnessTexture":
				{
					"index": 1
				}
			},
			"normalTexture":
			{
				"index": 2
			},
			"occlusionTexture":
			{
				"index": 3
			}
		}
	],
	"meshes": [
		{
			"name": "SM_can_l",
			"primitives": [
				{
					"attributes":
					{
						"POSITION": 1,
						"NORMAL": 2,
						"TANGENT": 3,
						"TEXCOORD_0": 4,
						"TEXCOORD_1": 5
					},
					"indices": 0,
					"material": 0
				}
			]
		}
	],
	"nodes": [
		{
			"mesh": 0
		}
	],
	"samplers": [
		{
			"minFilter": 9987,
			"magFilter": 9729
		}
	],
	"scenes": [
		{
			"nodes": [ 0 ]
		}
	],
	"textures": [
		{
			"name": "MI_sign_rack_jerrys_cans_bottle_BaseColor",
			"sampler": 0,
			"source": 0
		},
		{
			"name": "MI_sign_rack_jerrys_cans_bottle_MetallicRoughness",
			"sampler": 0,
			"source": 1
		},
		{
			"name": "T_sign_rack_jerrys_can_N",
			"sampler": 0,
			"source": 3
		},
		{
			"name": "MI_sign_rack_jerrys_cans_bottle_Occlusion",
			"sampler": 0,
			"source": 2
		}
	]
}