{
	"asset":
	{
		"version": "2.0",
		"generator": "Unreal Engine 5.5.3"
	},
	"scene": 0,
	"accessors": [
		{
			"bufferView": 0,
			"count": 384,
			"type": "SCALAR",
			"componentType": 5123
		},
		{
			"bufferView": 1,
			"count": 263,
			"type": "VEC3",
			"componentType": 5126,
			"min": [ 0, 8.14603995e-10, -4.84222085e-07 ],
			"max": [ 3, 3, 0.0999999866 ]
		},
		{
			"bufferView": 2,
			"count": 263,
			"type": "VEC3",
			"componentType": 5126
		},
		{
			"bufferView": 3,
			"count": 263,
			"type": "VEC4",
			"componentType": 5126
		},
		{
			"bufferView": 4,
			"count": 263,
			"type": "VEC2",
			"componentType": 5126
		},
		{
			"bufferView": 5,
			"count": 263,
			"type": "VEC2",
			"componentType": 5126
		}
	],
	"buffers": [
		{
			"uri": "SM_wall_window_02.bin",
			"byteLength": 15496
		}
	],
	"bufferViews": [
		{
			"buffer": 0,
			"byteLength": 768,
			"target": 34963
		},
		{
			"buffer": 0,
			"byteLength": 3156,
			"byteOffset": 768,
			"target": 34962
		},
		{
			"buffer": 0,
			"byteLength": 3156,
			"byteOffset": 3924,
			"target": 34962
		},
		{
			"buffer": 0,
			"byteLength": 4208,
			"byteOffset": 7080,
			"target": 34962
		},
		{
			"buffer": 0,
			"byteLength": 2104,
			"byteOffset": 11288,
			"target": 34962
		},
		{
			"buffer": 0,
			"byteLength": 2104,
			"byteOffset": 13392,
			"target": 34962
		}
	],
	"images": [
		{
			"uri": "MI_concrete_BaseColor.png"
		},
		{
			"uri": "MI_concrete_MetallicRoughness.png"
		},
		{
			"uri": "MI_concrete_Normal.png"
		},
		{
			"uri": "MI_concrete_Occlusion.png"
		}
	],
	"materials": [
		{
			"name": "MI_concrete",
			"pbrMetallicRoughness":
			{
				"baseColorTexture":
				{
					"index": 0
				},
				"metallicRoughnessTexture":
				{
					"index": 1
				}
			},
			"normalTexture":
			{
				"index": 2
			},
			"occlusionTexture":
			{
				"index": 3
			},
			"doubleSided": true
		}
	],
	"meshes": [
		{
			"name": "SM_wall_window_02",
			"primitives": [
				{
					"attributes":
					{
						"POSITION": 1,
						"NORMAL": 2,
						"TANGENT": 3,
						"TEXCOORD_0": 4,
						"TEXCOORD_1": 5
					},
					"indices": 0,
					"material": 0
				}
			]
		}
	],
	"nodes": [
		{
			"mesh": 0
		}
	],
	"samplers": [
		{
			"minFilter": 9987,
			"magFilter": 9729
		}
	],
	"scenes": [
		{
			"nodes": [ 0 ]
		}
	],
	"textures": [
		{
			"name": "MI_concrete_BaseColor",
			"sampler": 0,
			"source": 0
		},
		{
			"name": "MI_concrete_MetallicRoughness",
			"sampler": 0,
			"source": 1
		},
		{
			"name": "MI_concrete_Normal",
			"sampler": 0,
			"source": 2
		},
		{
			"name": "MI_concrete_Occlusion",
			"sampler": 0,
			"source": 3
		}
	]
}