{
	"asset":
	{
		"version": "2.0",
		"generator": "Unreal Engine 5.5.3"
	},
	"scene": 0,
	"accessors": [
		{
			"bufferView": 0,
			"count": 5802,
			"type": "SCALAR",
			"componentType": 5123
		},
		{
			"bufferView": 1,
			"count": 1532,
			"type": "VEC3",
			"componentType": 5126,
			"min": [ -0.153235897, -0.00241235434, -0.152595043 ],
			"max": [ 0.153710023, 0.447323531, 0.153153121 ]
		},
		{
			"bufferView": 2,
			"count": 1532,
			"type": "VEC3",
			"componentType": 5126
		},
		{
			"bufferView": 3,
			"count": 1532,
			"type": "VEC4",
			"componentType": 5126
		},
		{
			"bufferView": 4,
			"count": 1532,
			"type": "VEC2",
			"componentType": 5126
		}
	],
	"buffers": [
		{
			"uri": "SM_Ind_Aban_Tank_Gas_Metal_Worn_02.bin",
			"byteLength": 85140
		}
	],
	"bufferViews": [
		{
			"buffer": 0,
			"byteLength": 11604,
			"target": 34963
		},
		{
			"buffer": 0,
			"byteLength": 18384,
			"byteOffset": 11604,
			"target": 34962
		},
		{
			"buffer": 0,
			"byteLength": 18384,
			"byteOffset": 29988,
			"target": 34962
		},
		{
			"buffer": 0,
			"byteLength": 24512,
			"byteOffset": 48372,
			"target": 34962
		},
		{
			"buffer": 0,
			"byteLength": 12256,
			"byteOffset": 72884,
			"target": 34962
		}
	],
	"images": [
		{
			"uri": "MI_Ind_Aba_Tank_Gas_Metal_Worn_02_BaseColor.png"
		},
		{
			"uri": "MI_Ind_Aba_Tank_Gas_Metal_Worn_02_MetallicRoughness.png"
		},
		{
			"uri": "MI_Ind_Aba_Tank_Gas_Metal_Worn_02_Normal.png"
		}
	],
	"materials": [
		{
			"name": "MI_Ind_Aba_Tank_Gas_Metal_Worn_02",
			"pbrMetallicRoughness":
			{
				"baseColorTexture":
				{
					"index": 0
				},
				"metallicRoughnessTexture":
				{
					"index": 1
				}
			},
			"normalTexture":
			{
				"index": 2
			},
			"extensions":
			{
				"KHR_materials_specular":
				{
					"specularFactor": 0.498039246
				}
			}
		}
	],
	"meshes": [
		{
			"name": "SM_Ind_Aban_Tank_Gas_Metal_Worn_02",
			"primitives": [
				{
					"attributes":
					{
						"POSITION": 1,
						"NORMAL": 2,
						"TANGENT": 3,
						"TEXCOORD_0": 4
					},
					"indices": 0,
					"material": 0
				}
			]
		}
	],
	"nodes": [
		{
			"mesh": 0
		}
	],
	"samplers": [
		{
			"minFilter": 9987,
			"magFilter": 9729
		}
	],
	"scenes": [
		{
			"nodes": [ 0 ]
		}
	],
	"textures": [
		{
			"name": "MI_Ind_Aba_Tank_Gas_Metal_Worn_02_BaseColor",
			"sampler": 0,
			"source": 0
		},
		{
			"name": "MI_Ind_Aba_Tank_Gas_Metal_Worn_02_MetallicRoughness",
			"sampler": 0,
			"source": 1
		},
		{
			"name": "MI_Ind_Aba_Tank_Gas_Metal_Worn_02_Normal",
			"sampler": 0,
			"source": 2
		}
	],
	"extensionsUsed": [
		"KHR_materials_specular"
	]
}