{
	"asset":
	{
		"version": "2.0",
		"generator": "Unreal Engine 5.5.3"
	},
	"scene": 0,
	"accessors": [
		{
			"bufferView": 0,
			"count": 9342,
			"type": "SCALAR",
			"componentType": 5123
		},
		{
			"bufferView": 1,
			"count": 2250,
			"type": "VEC3",
			"componentType": 5126,
			"min": [ -0.208212644, -0.00157260569, -0.148670927 ],
			"max": [ 0.207531154, 0.101615652, 0.147404864 ]
		},
		{
			"bufferView": 2,
			"count": 2250,
			"type": "VEC3",
			"componentType": 5126
		},
		{
			"bufferView": 3,
			"count": 2250,
			"type": "VEC4",
			"componentType": 5126
		},
		{
			"bufferView": 4,
			"count": 2250,
			"type": "VEC2",
			"componentType": 5126
		}
	],
	"buffers": [
		{
			"uri": "SM_Ind_War_Storage_Tray_Plastic_Green_01.bin",
			"byteLength": 126684
		}
	],
	"bufferViews": [
		{
			"buffer": 0,
			"byteLength": 18684,
			"target": 34963
		},
		{
			"buffer": 0,
			"byteLength": 27000,
			"byteOffset": 18684,
			"target": 34962
		},
		{
			"buffer": 0,
			"byteLength": 27000,
			"byteOffset": 45684,
			"target": 34962
		},
		{
			"buffer": 0,
			"byteLength": 36000,
			"byteOffset": 72684,
			"target": 34962
		},
		{
			"buffer": 0,
			"byteLength": 18000,
			"byteOffset": 108684,
			"target": 34962
		}
	],
	"images": [
		{
			"uri": "MI_Ind_War_Storage_Tray_Plastic_Green_01_A_BaseColor.png"
		},
		{
			"uri": "MI_Ind_War_Storage_Tray_Plastic_Green_01_A_MetallicRoughness.png"
		},
		{
			"uri": "MI_Ind_War_Storage_Tray_Plastic_Green_01_A_Normal.png"
		}
	],
	"materials": [
		{
			"name": "MI_Ind_War_Storage_Tray_Plastic_Green_01_A",
			"pbrMetallicRoughness":
			{
				"baseColorTexture":
				{
					"index": 0
				},
				"metallicRoughnessTexture":
				{
					"index": 1
				}
			},
			"normalTexture":
			{
				"index": 2
			},
			"extensions":
			{
				"KHR_materials_specular":
				{
					"specularFactor": 0.498039246
				}
			}
		}
	],
	"meshes": [
		{
			"name": "SM_Ind_War_Storage_Tray_Plastic_Green_01",
			"primitives": [
				{
					"attributes":
					{
						"POSITION": 1,
						"NORMAL": 2,
						"TANGENT": 3,
						"TEXCOORD_0": 4
					},
					"indices": 0,
					"material": 0
				}
			]
		}
	],
	"nodes": [
		{
			"mesh": 0
		}
	],
	"samplers": [
		{
			"minFilter": 9987,
			"magFilter": 9729
		}
	],
	"scenes": [
		{
			"nodes": [ 0 ]
		}
	],
	"textures": [
		{
			"name": "MI_Ind_War_Storage_Tray_Plastic_Green_01_A_BaseColor",
			"sampler": 0,
			"source": 0
		},
		{
			"name": "MI_Ind_War_Storage_Tray_Plastic_Green_01_A_MetallicRoughness",
			"sampler": 0,
			"source": 1
		},
		{
			"name": "MI_Ind_War_Storage_Tray_Plastic_Green_01_A_Normal",
			"sampler": 0,
			"source": 2
		}
	],
	"extensionsUsed": [
		"KHR_materials_specular"
	]
}