{
	"asset":
	{
		"version": "2.0",
		"generator": "Unreal Engine 5.5.3"
	},
	"scene": 0,
	"accessors": [
		{
			"bufferView": 0,
			"count": 5346,
			"type": "SCALAR",
			"componentType": 5123
		},
		{
			"bufferView": 1,
			"count": 1165,
			"type": "VEC3",
			"componentType": 5126,
			"min": [ -1.532305, -0.12142244, -0.115116946 ],
			"max": [ 1.53463054, 0.120955199, 0.115256421 ]
		},
		{
			"bufferView": 2,
			"count": 1165,
			"type": "VEC3",
			"componentType": 5126
		},
		{
			"bufferView": 3,
			"count": 1165,
			"type": "VEC4",
			"componentType": 5126
		},
		{
			"bufferView": 4,
			"count": 1165,
			"type": "VEC2",
			"componentType": 5126
		}
	],
	"buffers": [
		{
			"uri": "SM_Ind_Con_Supplies_Beam_Metal_Rusty_02.bin",
			"byteLength": 66612
		}
	],
	"bufferViews": [
		{
			"buffer": 0,
			"byteLength": 10692,
			"target": 34963
		},
		{
			"buffer": 0,
			"byteLength": 13980,
			"byteOffset": 10692,
			"target": 34962
		},
		{
			"buffer": 0,
			"byteLength": 13980,
			"byteOffset": 24672,
			"target": 34962
		},
		{
			"buffer": 0,
			"byteLength": 18640,
			"byteOffset": 38652,
			"target": 34962
		},
		{
			"buffer": 0,
			"byteLength": 9320,
			"byteOffset": 57292,
			"target": 34962
		}
	],
	"images": [
		{
			"uri": "MI_Ind_Con_Supplies_Beam_Metal_Rusty_02_BaseColor.png"
		},
		{
			"uri": "MI_Ind_Con_Supplies_Beam_Metal_Rusty_02_MetallicRoughness.png"
		},
		{
			"uri": "MI_Ind_Con_Supplies_Beam_Metal_Rusty_02_Normal.png"
		}
	],
	"materials": [
		{
			"name": "MI_Ind_Con_Supplies_Beam_Metal_Rusty_02",
			"pbrMetallicRoughness":
			{
				"baseColorTexture":
				{
					"index": 0
				},
				"metallicRoughnessTexture":
				{
					"index": 1
				}
			},
			"normalTexture":
			{
				"index": 2
			},
			"extensions":
			{
				"KHR_materials_specular":
				{
					"specularFactor": 0.498039246
				}
			}
		}
	],
	"meshes": [
		{
			"name": "SM_Ind_Con_Supplies_Beam_Metal_Rusty_02",
			"primitives": [
				{
					"attributes":
					{
						"POSITION": 1,
						"NORMAL": 2,
						"TANGENT": 3,
						"TEXCOORD_0": 4
					},
					"indices": 0,
					"material": 0
				}
			]
		}
	],
	"nodes": [
		{
			"mesh": 0
		}
	],
	"samplers": [
		{
			"minFilter": 9987,
			"magFilter": 9729
		}
	],
	"scenes": [
		{
			"nodes": [ 0 ]
		}
	],
	"textures": [
		{
			"name": "MI_Ind_Con_Supplies_Beam_Metal_Rusty_02_BaseColor",
			"sampler": 0,
			"source": 0
		},
		{
			"name": "MI_Ind_Con_Supplies_Beam_Metal_Rusty_02_MetallicRoughness",
			"sampler": 0,
			"source": 1
		},
		{
			"name": "MI_Ind_Con_Supplies_Beam_Metal_Rusty_02_Normal",
			"sampler": 0,
			"source": 2
		}
	],
	"extensionsUsed": [
		"KHR_materials_specular"
	]
}