{
	"asset":
	{
		"version": "2.0",
		"generator": "Unreal Engine 5.5.3"
	},
	"scene": 0,
	"accessors": [
		{
			"bufferView": 0,
			"count": 96,
			"type": "SCALAR",
			"componentType": 5121
		},
		{
			"bufferView": 1,
			"count": 49,
			"type": "VEC3",
			"componentType": 5126,
			"min": [ 0.0664436817, -0.00510839885, 0.0645315573 ],
			"max": [ 1.93361199, 0.0349563025, 2.73546839 ]
		},
		{
			"bufferView": 2,
			"count": 49,
			"type": "VEC3",
			"componentType": 5126
		},
		{
			"bufferView": 3,
			"count": 49,
			"type": "VEC4",
			"componentType": 5126
		},
		{
			"bufferView": 4,
			"count": 49,
			"type": "VEC2",
			"componentType": 5126
		},
		{
			"bufferView": 5,
			"count": 49,
			"type": "VEC2",
			"componentType": 5126
		},
		{
			"bufferView": 6,
			"count": 49,
			"type": "VEC2",
			"componentType": 5126
		},
		{
			"bufferView": 7,
			"count": 1098,
			"type": "SCALAR",
			"componentType": 5123
		},
		{
			"bufferView": 8,
			"count": 735,
			"type": "VEC3",
			"componentType": 5126,
			"min": [ 0, -0.0143924449, 5.22530536e-05 ],
			"max": [ 2.00321412, 0.0680558458, 2.80091882 ]
		},
		{
			"bufferView": 9,
			"count": 735,
			"type": "VEC3",
			"componentType": 5126
		},
		{
			"bufferView": 10,
			"count": 735,
			"type": "VEC4",
			"componentType": 5126
		},
		{
			"bufferView": 11,
			"count": 735,
			"type": "VEC2",
			"componentType": 5126
		},
		{
			"bufferView": 12,
			"count": 735,
			"type": "VEC2",
			"componentType": 5126
		},
		{
			"bufferView": 13,
			"count": 735,
			"type": "VEC2",
			"componentType": 5126
		}
	],
	"buffers": [
		{
			"uri": "SM_grating.bin",
			"byteLength": 52468
		}
	],
	"bufferViews": [
		{
			"buffer": 0,
			"byteLength": 96,
			"target": 34963
		},
		{
			"buffer": 0,
			"byteLength": 588,
			"byteOffset": 96,
			"target": 34962
		},
		{
			"buffer": 0,
			"byteLength": 588,
			"byteOffset": 684,
			"target": 34962
		},
		{
			"buffer": 0,
			"byteLength": 784,
			"byteOffset": 1272,
			"target": 34962
		},
		{
			"buffer": 0,
			"byteLength": 392,
			"byteOffset": 2056,
			"target": 34962
		},
		{
			"buffer": 0,
			"byteLength": 392,
			"byteOffset": 2448,
			"target": 34962
		},
		{
			"buffer": 0,
			"byteLength": 392,
			"byteOffset": 2840,
			"target": 34962
		},
		{
			"buffer": 0,
			"byteLength": 2196,
			"byteOffset": 3232,
			"target": 34963
		},
		{
			"buffer": 0,
			"byteLength": 8820,
			"byteOffset": 5428,
			"target": 34962
		},
		{
			"buffer": 0,
			"byteLength": 8820,
			"byteOffset": 14248,
			"target": 34962
		},
		{
			"buffer": 0,
			"byteLength": 11760,
			"byteOffset": 23068,
			"target": 34962
		},
		{
			"buffer": 0,
			"byteLength": 5880,
			"byteOffset": 34828,
			"target": 34962
		},
		{
			"buffer": 0,
			"byteLength": 5880,
			"byteOffset": 40708,
			"target": 34962
		},
		{
			"buffer": 0,
			"byteLength": 5880,
			"byteOffset": 46588,
			"target": 34962
		}
	],
	"images": [
		{
			"uri": "MI_grating_BaseColor.png"
		},
		{
			"uri": "MI_GratingframePole_BaseColor.png"
		},
		{
			"uri": "MI_GratingframePole_MetallicRoughness.png"
		},
		{
			"uri": "MI_GratingframePole_Normal.png"
		},
		{
			"uri": "T_grating_ORM_Linear.png"
		},
		{
			"uri": "T_grating_N.png"
		}
	],
	"materials": [
		{
			"name": "MI_grating",
			"pbrMetallicRoughness":
			{
				"baseColorTexture":
				{
					"index": 0
				},
				"metallicRoughnessTexture":
				{
					"index": 1
				}
			},
			"normalTexture":
			{
				"index": 2
			},
			"occlusionTexture":
			{
				"index": 1
			},
			"alphaMode": "MASK",
			"alphaCutoff": 0.333299994,
			"doubleSided": true
		},
		{
			"name": "MI_GratingframePole",
			"pbrMetallicRoughness":
			{
				"baseColorTexture":
				{
					"index": 3
				},
				"metallicRoughnessTexture":
				{
					"index": 4
				}
			},
			"normalTexture":
			{
				"index": 5
			}
		}
	],
	"meshes": [
		{
			"name": "SM_grating",
			"primitives": [
				{
					"attributes":
					{
						"POSITION": 1,
						"NORMAL": 2,
						"TANGENT": 3,
						"TEXCOORD_0": 4,
						"TEXCOORD_1": 5,
						"TEXCOORD_2": 6
					},
					"indices": 0,
					"material": 0
				},
				{
					"attributes":
					{
						"POSITION": 8,
						"NORMAL": 9,
						"TANGENT": 10,
						"TEXCOORD_0": 11,
						"TEXCOORD_1": 12,
						"TEXCOORD_2": 13
					},
					"indices": 7,
					"material": 1
				}
			]
		}
	],
	"nodes": [
		{
			"mesh": 0
		}
	],
	"samplers": [
		{
			"minFilter": 9987,
			"magFilter": 9729
		}
	],
	"scenes": [
		{
			"nodes": [ 0 ]
		}
	],
	"textures": [
		{
			"name": "MI_grating_BaseColor",
			"sampler": 0,
			"source": 0
		},
		{
			"name": "T_grating_ORM_Linear",
			"sampler": 0,
			"source": 4
		},
		{
			"name": "T_grating_N",
			"sampler": 0,
			"source": 5
		},
		{
			"name": "MI_GratingframePole_BaseColor",
			"sampler": 0,
			"source": 1
		},
		{
			"name": "MI_GratingframePole_MetallicRoughness",
			"sampler": 0,
			"source": 2
		},
		{
			"name": "MI_GratingframePole_Normal",
			"sampler": 0,
			"source": 3
		}
	]
}