{
	"asset":
	{
		"version": "2.0",
		"generator": "Unreal Engine 5.5.3"
	},
	"scene": 0,
	"accessors": [
		{
			"bufferView": 0,
			"count": 4464,
			"type": "SCALAR",
			"componentType": 5123
		},
		{
			"bufferView": 1,
			"count": 1393,
			"type": "VEC3",
			"componentType": 5126,
			"min": [ -0.00942037627, -0.000239726854, -1.82989961e-08 ],
			"max": [ 0.190486535, 2.19698906, 0.278734565 ]
		},
		{
			"bufferView": 2,
			"count": 1393,
			"type": "VEC3",
			"componentType": 5126
		},
		{
			"bufferView": 3,
			"count": 1393,
			"type": "VEC4",
			"componentType": 5126
		},
		{
			"bufferView": 4,
			"count": 1393,
			"type": "VEC2",
			"componentType": 5126
		},
		{
			"bufferView": 5,
			"count": 1393,
			"type": "VEC2",
			"componentType": 5126
		}
	],
	"buffers": [
		{
			"uri": "SM_pipe_b.bin",
			"byteLength": 86936
		}
	],
	"bufferViews": [
		{
			"buffer": 0,
			"byteLength": 8928,
			"target": 34963
		},
		{
			"buffer": 0,
			"byteLength": 16716,
			"byteOffset": 8928,
			"target": 34962
		},
		{
			"buffer": 0,
			"byteLength": 16716,
			"byteOffset": 25644,
			"target": 34962
		},
		{
			"buffer": 0,
			"byteLength": 22288,
			"byteOffset": 42360,
			"target": 34962
		},
		{
			"buffer": 0,
			"byteLength": 11144,
			"byteOffset": 64648,
			"target": 34962
		},
		{
			"buffer": 0,
			"byteLength": 11144,
			"byteOffset": 75792,
			"target": 34962
		}
	],
	"images": [
		{
			"uri": "MI_pipes_BaseColor.png"
		},
		{
			"uri": "MI_pipes_MetallicRoughness.png"
		},
		{
			"uri": "MI_pipes_Occlusion.png"
		},
		{
			"uri": "T_pipes_N.png"
		}
	],
	"materials": [
		{
			"name": "MI_pipes",
			"pbrMetallicRoughness":
			{
				"baseColorTexture":
				{
					"index": 0
				},
				"metallicRoughnessTexture":
				{
					"index": 1
				}
			},
			"normalTexture":
			{
				"index": 2
			},
			"occlusionTexture":
			{
				"index": 3
			}
		}
	],
	"meshes": [
		{
			"name": "SM_pipe_b",
			"primitives": [
				{
					"attributes":
					{
						"POSITION": 1,
						"NORMAL": 2,
						"TANGENT": 3,
						"TEXCOORD_0": 4,
						"TEXCOORD_1": 5
					},
					"indices": 0,
					"material": 0
				}
			]
		}
	],
	"nodes": [
		{
			"mesh": 0
		}
	],
	"samplers": [
		{
			"minFilter": 9987,
			"magFilter": 9729
		}
	],
	"scenes": [
		{
			"nodes": [ 0 ]
		}
	],
	"textures": [
		{
			"name": "MI_pipes_BaseColor",
			"sampler": 0,
			"source": 0
		},
		{
			"name": "MI_pipes_MetallicRoughness",
			"sampler": 0,
			"source": 1
		},
		{
			"name": "T_pipes_N",
			"sampler": 0,
			"source": 3
		},
		{
			"name": "MI_pipes_Occlusion",
			"sampler": 0,
			"source": 2
		}
	]
}