{
	"asset":
	{
		"version": "2.0",
		"generator": "Unreal Engine 5.5.3"
	},
	"scene": 0,
	"accessors": [
		{
			"bufferView": 0,
			"count": 2106,
			"type": "SCALAR",
			"componentType": 5123
		},
		{
			"bufferView": 1,
			"count": 885,
			"type": "VEC3",
			"componentType": 5126,
			"min": [ 4.63286669e-05, -5.08915843e-09, 0.000187151702 ],
			"max": [ 0.0761684328, 0.0958477929, 0.0741164535 ]
		},
		{
			"bufferView": 2,
			"count": 885,
			"type": "VEC3",
			"componentType": 5126
		},
		{
			"bufferView": 3,
			"count": 885,
			"type": "VEC4",
			"componentType": 5126
		},
		{
			"bufferView": 4,
			"count": 885,
			"type": "VEC2",
			"componentType": 5126
		},
		{
			"bufferView": 5,
			"count": 885,
			"type": "VEC2",
			"componentType": 5126
		}
	],
	"buffers": [
		{
			"uri": "SM_can_s.bin",
			"byteLength": 53772
		}
	],
	"bufferViews": [
		{
			"buffer": 0,
			"byteLength": 4212,
			"target": 34963
		},
		{
			"buffer": 0,
			"byteLength": 10620,
			"byteOffset": 4212,
			"target": 34962
		},
		{
			"buffer": 0,
			"byteLength": 10620,
			"byteOffset": 14832,
			"target": 34962
		},
		{
			"buffer": 0,
			"byteLength": 14160,
			"byteOffset": 25452,
			"target": 34962
		},
		{
			"buffer": 0,
			"byteLength": 7080,
			"byteOffset": 39612,
			"target": 34962
		},
		{
			"buffer": 0,
			"byteLength": 7080,
			"byteOffset": 46692,
			"target": 34962
		}
	],
	"images": [
		{
			"uri": "MI_sign_rack_jerrys_cans_bottle_BaseColor.png"
		},
		{
			"uri": "MI_sign_rack_jerrys_cans_bottle_MetallicRoughness.png"
		},
		{
			"uri": "MI_sign_rack_jerrys_cans_bottle_Occlusion.png"
		},
		{
			"uri": "T_sign_rack_jerrys_can_N.png"
		}
	],
	"materials": [
		{
			"name": "MI_sign_rack_jerrys_cans_bottle",
			"pbrMetallicRoughness":
			{
				"baseColorTexture":
				{
					"index": 0
				},
				"metallicRoughnessTexture":
				{
					"index": 1
				}
			},
			"normalTexture":
			{
				"index": 2
			},
			"occlusionTexture":
			{
				"index": 3
			}
		}
	],
	"meshes": [
		{
			"name": "SM_can_s",
			"primitives": [
				{
					"attributes":
					{
						"POSITION": 1,
						"NORMAL": 2,
						"TANGENT": 3,
						"TEXCOORD_0": 4,
						"TEXCOORD_1": 5
					},
					"indices": 0,
					"material": 0
				}
			]
		}
	],
	"nodes": [
		{
			"mesh": 0
		}
	],
	"samplers": [
		{
			"minFilter": 9987,
			"magFilter": 9729
		}
	],
	"scenes": [
		{
			"nodes": [ 0 ]
		}
	],
	"textures": [
		{
			"name": "MI_sign_rack_jerrys_cans_bottle_BaseColor",
			"sampler": 0,
			"source": 0
		},
		{
			"name": "MI_sign_rack_jerrys_cans_bottle_MetallicRoughness",
			"sampler": 0,
			"source": 1
		},
		{
			"name": "T_sign_rack_jerrys_can_N",
			"sampler": 0,
			"source": 3
		},
		{
			"name": "MI_sign_rack_jerrys_cans_bottle_Occlusion",
			"sampler": 0,
			"source": 2
		}
	]
}