{
	"asset":
	{
		"version": "2.0",
		"generator": "Unreal Engine 5.5.3"
	},
	"scene": 0,
	"accessors": [
		{
			"bufferView": 0,
			"count": 7446,
			"type": "SCALAR",
			"componentType": 5123
		},
		{
			"bufferView": 1,
			"count": 1413,
			"type": "VEC3",
			"componentType": 5126,
			"min": [ -0.298374981, -0.0041582603, -0.29638359 ],
			"max": [ 0.29890734, 0.874267399, 0.293025851 ]
		},
		{
			"bufferView": 2,
			"count": 1413,
			"type": "VEC3",
			"componentType": 5126
		},
		{
			"bufferView": 3,
			"count": 1413,
			"type": "VEC4",
			"componentType": 5126
		},
		{
			"bufferView": 4,
			"count": 1413,
			"type": "VEC2",
			"componentType": 5126
		}
	],
	"buffers": [
		{
			"uri": "SM_Ind_Aba_Storage_Barrel_Metal_Green_01.bin",
			"byteLength": 82716
		}
	],
	"bufferViews": [
		{
			"buffer": 0,
			"byteLength": 14892,
			"target": 34963
		},
		{
			"buffer": 0,
			"byteLength": 16956,
			"byteOffset": 14892,
			"target": 34962
		},
		{
			"buffer": 0,
			"byteLength": 16956,
			"byteOffset": 31848,
			"target": 34962
		},
		{
			"buffer": 0,
			"byteLength": 22608,
			"byteOffset": 48804,
			"target": 34962
		},
		{
			"buffer": 0,
			"byteLength": 11304,
			"byteOffset": 71412,
			"target": 34962
		}
	],
	"images": [
		{
			"uri": "MI_Ind_Aba_Storage_Barrel_Metal_Green_01_BaseColor.png"
		},
		{
			"uri": "MI_Ind_Aba_Storage_Barrel_Metal_Green_01_MetallicRoughness.png"
		},
		{
			"uri": "MI_Ind_Aba_Storage_Barrel_Metal_Green_01_Normal.png"
		}
	],
	"materials": [
		{
			"name": "MI_Ind_Aba_Storage_Barrel_Metal_Green_01",
			"pbrMetallicRoughness":
			{
				"baseColorTexture":
				{
					"index": 0
				},
				"metallicRoughnessTexture":
				{
					"index": 1
				}
			},
			"normalTexture":
			{
				"index": 2
			},
			"extensions":
			{
				"KHR_materials_specular":
				{
					"specularFactor": 0.498039246
				}
			}
		}
	],
	"meshes": [
		{
			"name": "SM_Ind_Aba_Storage_Barrel_Metal_Green_01",
			"primitives": [
				{
					"attributes":
					{
						"POSITION": 1,
						"NORMAL": 2,
						"TANGENT": 3,
						"TEXCOORD_0": 4
					},
					"indices": 0,
					"material": 0
				}
			]
		}
	],
	"nodes": [
		{
			"mesh": 0
		}
	],
	"samplers": [
		{
			"minFilter": 9987,
			"magFilter": 9729
		}
	],
	"scenes": [
		{
			"nodes": [ 0 ]
		}
	],
	"textures": [
		{
			"name": "MI_Ind_Aba_Storage_Barrel_Metal_Green_01_BaseColor",
			"sampler": 0,
			"source": 0
		},
		{
			"name": "MI_Ind_Aba_Storage_Barrel_Metal_Green_01_MetallicRoughness",
			"sampler": 0,
			"source": 1
		},
		{
			"name": "MI_Ind_Aba_Storage_Barrel_Metal_Green_01_Normal",
			"sampler": 0,
			"source": 2
		}
	],
	"extensionsUsed": [
		"KHR_materials_specular"
	]
}