{
	"asset":
	{
		"version": "2.0",
		"generator": "Unreal Engine 5.5.3"
	},
	"scene": 0,
	"accessors": [
		{
			"bufferView": 0,
			"count": 10920,
			"type": "SCALAR",
			"componentType": 5123
		},
		{
			"bufferView": 1,
			"count": 2046,
			"type": "VEC3",
			"componentType": 5126,
			"min": [ -0.250334203, -0.00358966226, -0.205044672 ],
			"max": [ 0.250330448, 0.531776786, 0.20390521 ]
		},
		{
			"bufferView": 2,
			"count": 2046,
			"type": "VEC3",
			"componentType": 5126
		},
		{
			"bufferView": 3,
			"count": 2046,
			"type": "VEC4",
			"componentType": 5126
		},
		{
			"bufferView": 4,
			"count": 2046,
			"type": "VEC2",
			"componentType": 5126
		}
	],
	"buffers": [
		{
			"uri": "SM_Urb_Str_Bin_Trash_Metal_Worn_01_B.bin",
			"byteLength": 120048
		}
	],
	"bufferViews": [
		{
			"buffer": 0,
			"byteLength": 21840,
			"target": 34963
		},
		{
			"buffer": 0,
			"byteLength": 24552,
			"byteOffset": 21840,
			"target": 34962
		},
		{
			"buffer": 0,
			"byteLength": 24552,
			"byteOffset": 46392,
			"target": 34962
		},
		{
			"buffer": 0,
			"byteLength": 32736,
			"byteOffset": 70944,
			"target": 34962
		},
		{
			"buffer": 0,
			"byteLength": 16368,
			"byteOffset": 103680,
			"target": 34962
		}
	],
	"images": [
		{
			"uri": "MI_Urb_Str_Bin_Trash_Metal_Worn_01_BaseColor.png"
		},
		{
			"uri": "MI_Urb_Str_Bin_Trash_Metal_Worn_01_MetallicRoughness.png"
		},
		{
			"uri": "MI_Urb_Str_Bin_Trash_Metal_Worn_01_Normal.png"
		}
	],
	"materials": [
		{
			"name": "MI_Urb_Str_Bin_Trash_Metal_Worn_01",
			"pbrMetallicRoughness":
			{
				"baseColorTexture":
				{
					"index": 0
				},
				"metallicRoughnessTexture":
				{
					"index": 1
				}
			},
			"normalTexture":
			{
				"index": 2
			},
			"extensions":
			{
				"KHR_materials_specular":
				{
					"specularFactor": 0.498039246
				}
			}
		}
	],
	"meshes": [
		{
			"name": "SM_Urb_Str_Bin_Trash_Metal_Worn_01_B",
			"primitives": [
				{
					"attributes":
					{
						"POSITION": 1,
						"NORMAL": 2,
						"TANGENT": 3,
						"TEXCOORD_0": 4
					},
					"indices": 0,
					"material": 0
				}
			]
		}
	],
	"nodes": [
		{
			"mesh": 0
		}
	],
	"samplers": [
		{
			"minFilter": 9987,
			"magFilter": 9729
		}
	],
	"scenes": [
		{
			"nodes": [ 0 ]
		}
	],
	"textures": [
		{
			"name": "MI_Urb_Str_Bin_Trash_Metal_Worn_01_BaseColor",
			"sampler": 0,
			"source": 0
		},
		{
			"name": "MI_Urb_Str_Bin_Trash_Metal_Worn_01_MetallicRoughness",
			"sampler": 0,
			"source": 1
		},
		{
			"name": "MI_Urb_Str_Bin_Trash_Metal_Worn_01_Normal",
			"sampler": 0,
			"source": 2
		}
	],
	"extensionsUsed": [
		"KHR_materials_specular"
	]
}