{
	"asset":
	{
		"version": "2.0",
		"generator": "Unreal Engine 5.5.3"
	},
	"scene": 0,
	"accessors": [
		{
			"bufferView": 0,
			"count": 3396,
			"type": "SCALAR",
			"componentType": 5123
		},
		{
			"bufferView": 1,
			"count": 1478,
			"type": "VEC3",
			"componentType": 5126,
			"min": [ 0.00182437897, 0.170315057, 0.000769105682 ],
			"max": [ 9.00405312, 0.200315371, 2.00076985 ]
		},
		{
			"bufferView": 2,
			"count": 1478,
			"type": "VEC3",
			"componentType": 5126
		},
		{
			"bufferView": 3,
			"count": 1478,
			"type": "VEC4",
			"componentType": 5126
		},
		{
			"bufferView": 4,
			"count": 1478,
			"type": "VEC2",
			"componentType": 5126
		},
		{
			"bufferView": 5,
			"count": 1478,
			"type": "VEC2",
			"componentType": 5126
		}
	],
	"buffers": [
		{
			"uri": "SM_floor_cont2.bin",
			"byteLength": 89560
		}
	],
	"bufferViews": [
		{
			"buffer": 0,
			"byteLength": 6792,
			"target": 34963
		},
		{
			"buffer": 0,
			"byteLength": 17736,
			"byteOffset": 6792,
			"target": 34962
		},
		{
			"buffer": 0,
			"byteLength": 17736,
			"byteOffset": 24528,
			"target": 34962
		},
		{
			"buffer": 0,
			"byteLength": 23648,
			"byteOffset": 42264,
			"target": 34962
		},
		{
			"buffer": 0,
			"byteLength": 11824,
			"byteOffset": 65912,
			"target": 34962
		},
		{
			"buffer": 0,
			"byteLength": 11824,
			"byteOffset": 77736,
			"target": 34962
		}
	],
	"images": [
		{
			"uri": "MI_parquet_BaseColor.png"
		},
		{
			"uri": "MI_parquet_MetallicRoughness.png"
		},
		{
			"uri": "MI_parquet_Normal.png"
		}
	],
	"materials": [
		{
			"name": "MI_parquet",
			"pbrMetallicRoughness":
			{
				"baseColorTexture":
				{
					"index": 0
				},
				"metallicRoughnessTexture":
				{
					"index": 1
				}
			},
			"normalTexture":
			{
				"index": 2
			}
		}
	],
	"meshes": [
		{
			"name": "SM_floor_cont2",
			"primitives": [
				{
					"attributes":
					{
						"POSITION": 1,
						"NORMAL": 2,
						"TANGENT": 3,
						"TEXCOORD_0": 4,
						"TEXCOORD_1": 5
					},
					"indices": 0,
					"material": 0
				}
			]
		}
	],
	"nodes": [
		{
			"mesh": 0
		}
	],
	"samplers": [
		{
			"minFilter": 9987,
			"magFilter": 9729
		}
	],
	"scenes": [
		{
			"nodes": [ 0 ]
		}
	],
	"textures": [
		{
			"name": "MI_parquet_BaseColor",
			"sampler": 0,
			"source": 0
		},
		{
			"name": "MI_parquet_MetallicRoughness",
			"sampler": 0,
			"source": 1
		},
		{
			"name": "MI_parquet_Normal",
			"sampler": 0,
			"source": 2
		}
	]
}