{
	"asset":
	{
		"version": "2.0",
		"generator": "Unreal Engine 5.5.3"
	},
	"scene": 0,
	"accessors": [
		{
			"bufferView": 0,
			"count": 7596,
			"type": "SCALAR",
			"componentType": 5123
		},
		{
			"bufferView": 1,
			"count": 2118,
			"type": "VEC3",
			"componentType": 5126,
			"min": [ -0.00721907523, 0.169999972, -0.0123569295 ],
			"max": [ 5.99278116, 0.200000435, 2.79999995 ]
		},
		{
			"bufferView": 2,
			"count": 2118,
			"type": "VEC3",
			"componentType": 5126
		},
		{
			"bufferView": 3,
			"count": 2118,
			"type": "VEC4",
			"componentType": 5126
		},
		{
			"bufferView": 4,
			"count": 2118,
			"type": "VEC2",
			"componentType": 5126
		},
		{
			"bufferView": 5,
			"count": 2118,
			"type": "VEC2",
			"componentType": 5126
		}
	],
	"buffers": [
		{
			"uri": "SM_floor_cont3.bin",
			"byteLength": 133800
		}
	],
	"bufferViews": [
		{
			"buffer": 0,
			"byteLength": 15192,
			"target": 34963
		},
		{
			"buffer": 0,
			"byteLength": 25416,
			"byteOffset": 15192,
			"target": 34962
		},
		{
			"buffer": 0,
			"byteLength": 25416,
			"byteOffset": 40608,
			"target": 34962
		},
		{
			"buffer": 0,
			"byteLength": 33888,
			"byteOffset": 66024,
			"target": 34962
		},
		{
			"buffer": 0,
			"byteLength": 16944,
			"byteOffset": 99912,
			"target": 34962
		},
		{
			"buffer": 0,
			"byteLength": 16944,
			"byteOffset": 116856,
			"target": 34962
		}
	],
	"images": [
		{
			"uri": "MI_parquet_BaseColor.png"
		},
		{
			"uri": "MI_parquet_MetallicRoughness.png"
		},
		{
			"uri": "MI_parquet_Normal.png"
		}
	],
	"materials": [
		{
			"name": "MI_parquet",
			"pbrMetallicRoughness":
			{
				"baseColorTexture":
				{
					"index": 0
				},
				"metallicRoughnessTexture":
				{
					"index": 1
				}
			},
			"normalTexture":
			{
				"index": 2
			}
		}
	],
	"meshes": [
		{
			"name": "SM_floor_cont3",
			"primitives": [
				{
					"attributes":
					{
						"POSITION": 1,
						"NORMAL": 2,
						"TANGENT": 3,
						"TEXCOORD_0": 4,
						"TEXCOORD_1": 5
					},
					"indices": 0,
					"material": 0
				}
			]
		}
	],
	"nodes": [
		{
			"mesh": 0
		}
	],
	"samplers": [
		{
			"minFilter": 9987,
			"magFilter": 9729
		}
	],
	"scenes": [
		{
			"nodes": [ 0 ]
		}
	],
	"textures": [
		{
			"name": "MI_parquet_BaseColor",
			"sampler": 0,
			"source": 0
		},
		{
			"name": "MI_parquet_MetallicRoughness",
			"sampler": 0,
			"source": 1
		},
		{
			"name": "MI_parquet_Normal",
			"sampler": 0,
			"source": 2
		}
	]
}