{
	"asset":
	{
		"version": "2.0",
		"generator": "Unreal Engine 5.5.3"
	},
	"scene": 0,
	"accessors": [
		{
			"bufferView": 0,
			"count": 4728,
			"type": "SCALAR",
			"componentType": 5123
		},
		{
			"bufferView": 1,
			"count": 866,
			"type": "VEC3",
			"componentType": 5126,
			"min": [ -0.0160387158, -0.0198288709, -0.0224809758 ],
			"max": [ 0.336181968, 1.50048828, 0.32296744 ]
		},
		{
			"bufferView": 2,
			"count": 866,
			"type": "VEC3",
			"componentType": 5126
		},
		{
			"bufferView": 3,
			"count": 866,
			"type": "VEC4",
			"componentType": 5126
		},
		{
			"bufferView": 4,
			"count": 866,
			"type": "VEC2",
			"componentType": 5126
		},
		{
			"bufferView": 5,
			"count": 866,
			"type": "VEC2",
			"componentType": 5126
		}
	],
	"buffers": [
		{
			"uri": "SM_post_01.bin",
			"byteLength": 57952
		}
	],
	"bufferViews": [
		{
			"buffer": 0,
			"byteLength": 9456,
			"target": 34963
		},
		{
			"buffer": 0,
			"byteLength": 10392,
			"byteOffset": 9456,
			"target": 34962
		},
		{
			"buffer": 0,
			"byteLength": 10392,
			"byteOffset": 19848,
			"target": 34962
		},
		{
			"buffer": 0,
			"byteLength": 13856,
			"byteOffset": 30240,
			"target": 34962
		},
		{
			"buffer": 0,
			"byteLength": 6928,
			"byteOffset": 44096,
			"target": 34962
		},
		{
			"buffer": 0,
			"byteLength": 6928,
			"byteOffset": 51024,
			"target": 34962
		}
	],
	"images": [
		{
			"uri": "MI_poles_wooden_BaseColor.png"
		},
		{
			"uri": "MI_poles_wooden_MetallicRoughness.png"
		},
		{
			"uri": "MI_poles_wooden_Occlusion.png"
		},
		{
			"uri": "T_poles_wooden_N.png"
		}
	],
	"materials": [
		{
			"name": "MI_poles_wooden",
			"pbrMetallicRoughness":
			{
				"baseColorTexture":
				{
					"index": 0
				},
				"metallicRoughnessTexture":
				{
					"index": 1
				}
			},
			"normalTexture":
			{
				"index": 2
			},
			"occlusionTexture":
			{
				"index": 3
			}
		}
	],
	"meshes": [
		{
			"name": "SM_post_01",
			"primitives": [
				{
					"attributes":
					{
						"POSITION": 1,
						"NORMAL": 2,
						"TANGENT": 3,
						"TEXCOORD_0": 4,
						"TEXCOORD_1": 5
					},
					"indices": 0,
					"material": 0
				}
			]
		}
	],
	"nodes": [
		{
			"mesh": 0
		}
	],
	"samplers": [
		{
			"minFilter": 9987,
			"magFilter": 9729
		}
	],
	"scenes": [
		{
			"nodes": [ 0 ]
		}
	],
	"textures": [
		{
			"name": "MI_poles_wooden_BaseColor",
			"sampler": 0,
			"source": 0
		},
		{
			"name": "MI_poles_wooden_MetallicRoughness",
			"sampler": 0,
			"source": 1
		},
		{
			"name": "T_poles_wooden_N",
			"sampler": 0,
			"source": 3
		},
		{
			"name": "MI_poles_wooden_Occlusion",
			"sampler": 0,
			"source": 2
		}
	]
}