{
	"asset":
	{
		"version": "2.0",
		"generator": "Unreal Engine 5.5.3"
	},
	"scene": 0,
	"accessors": [
		{
			"bufferView": 0,
			"count": 2202,
			"type": "SCALAR",
			"componentType": 5123
		},
		{
			"bufferView": 1,
			"count": 580,
			"type": "VEC3",
			"componentType": 5126,
			"min": [ 0, 2.70880851e-09, -4.21557225e-08 ],
			"max": [ 0.0899999961, 0.899999738, 0.0899999887 ]
		},
		{
			"bufferView": 2,
			"count": 580,
			"type": "VEC3",
			"componentType": 5126
		},
		{
			"bufferView": 3,
			"count": 580,
			"type": "VEC4",
			"componentType": 5126
		},
		{
			"bufferView": 4,
			"count": 580,
			"type": "VEC2",
			"componentType": 5126
		},
		{
			"bufferView": 5,
			"count": 580,
			"type": "VEC2",
			"componentType": 5126
		}
	],
	"buffers": [
		{
			"uri": "SM_bottle.bin",
			"byteLength": 36884
		}
	],
	"bufferViews": [
		{
			"buffer": 0,
			"byteLength": 4404,
			"target": 34963
		},
		{
			"buffer": 0,
			"byteLength": 6960,
			"byteOffset": 4404,
			"target": 34962
		},
		{
			"buffer": 0,
			"byteLength": 6960,
			"byteOffset": 11364,
			"target": 34962
		},
		{
			"buffer": 0,
			"byteLength": 9280,
			"byteOffset": 18324,
			"target": 34962
		},
		{
			"buffer": 0,
			"byteLength": 4640,
			"byteOffset": 27604,
			"target": 34962
		},
		{
			"buffer": 0,
			"byteLength": 4640,
			"byteOffset": 32244,
			"target": 34962
		}
	],
	"images": [
		{
			"uri": "MI_sign_rack_jerrys_cans_bottle_BaseColor.png"
		},
		{
			"uri": "MI_sign_rack_jerrys_cans_bottle_MetallicRoughness.png"
		},
		{
			"uri": "MI_sign_rack_jerrys_cans_bottle_Occlusion.png"
		},
		{
			"uri": "T_sign_rack_jerrys_can_N.png"
		}
	],
	"materials": [
		{
			"name": "MI_sign_rack_jerrys_cans_bottle",
			"pbrMetallicRoughness":
			{
				"baseColorTexture":
				{
					"index": 0
				},
				"metallicRoughnessTexture":
				{
					"index": 1
				}
			},
			"normalTexture":
			{
				"index": 2
			},
			"occlusionTexture":
			{
				"index": 3
			}
		}
	],
	"meshes": [
		{
			"name": "SM_bottle",
			"primitives": [
				{
					"attributes":
					{
						"POSITION": 1,
						"NORMAL": 2,
						"TANGENT": 3,
						"TEXCOORD_0": 4,
						"TEXCOORD_1": 5
					},
					"indices": 0,
					"material": 0
				}
			]
		}
	],
	"nodes": [
		{
			"mesh": 0
		}
	],
	"samplers": [
		{
			"minFilter": 9987,
			"magFilter": 9729
		}
	],
	"scenes": [
		{
			"nodes": [ 0 ]
		}
	],
	"textures": [
		{
			"name": "MI_sign_rack_jerrys_cans_bottle_BaseColor",
			"sampler": 0,
			"source": 0
		},
		{
			"name": "MI_sign_rack_jerrys_cans_bottle_MetallicRoughness",
			"sampler": 0,
			"source": 1
		},
		{
			"name": "T_sign_rack_jerrys_can_N",
			"sampler": 0,
			"source": 3
		},
		{
			"name": "MI_sign_rack_jerrys_cans_bottle_Occlusion",
			"sampler": 0,
			"source": 2
		}
	]
}