{
	"asset":
	{
		"version": "2.0",
		"generator": "Unreal Engine 5.5.3"
	},
	"scene": 0,
	"accessors": [
		{
			"bufferView": 0,
			"count": 6912,
			"type": "SCALAR",
			"componentType": 5123
		},
		{
			"bufferView": 1,
			"count": 1480,
			"type": "VEC3",
			"componentType": 5126,
			"min": [ 0, 6.13286177e-09, -4.27666755e-08 ],
			"max": [ 0.959999979, 0.300000131, 0.959999979 ]
		},
		{
			"bufferView": 2,
			"count": 1480,
			"type": "VEC3",
			"componentType": 5126
		},
		{
			"bufferView": 3,
			"count": 1480,
			"type": "VEC4",
			"componentType": 5126
		},
		{
			"bufferView": 4,
			"count": 1480,
			"type": "VEC2",
			"componentType": 5126
		},
		{
			"bufferView": 5,
			"count": 1480,
			"type": "VEC2",
			"componentType": 5126
		}
	],
	"buffers": [
		{
			"uri": "SM_tyre.bin",
			"byteLength": 96704
		}
	],
	"bufferViews": [
		{
			"buffer": 0,
			"byteLength": 13824,
			"target": 34963
		},
		{
			"buffer": 0,
			"byteLength": 17760,
			"byteOffset": 13824,
			"target": 34962
		},
		{
			"buffer": 0,
			"byteLength": 17760,
			"byteOffset": 31584,
			"target": 34962
		},
		{
			"buffer": 0,
			"byteLength": 23680,
			"byteOffset": 49344,
			"target": 34962
		},
		{
			"buffer": 0,
			"byteLength": 11840,
			"byteOffset": 73024,
			"target": 34962
		},
		{
			"buffer": 0,
			"byteLength": 11840,
			"byteOffset": 84864,
			"target": 34962
		}
	],
	"images": [
		{
			"uri": "MI_tyre_loop_BaseColor.png"
		},
		{
			"uri": "T_tyre_loop_ORM.png"
		},
		{
			"uri": "T_tyre_loop_N.png"
		}
	],
	"materials": [
		{
			"name": "MI_tyre_loop",
			"pbrMetallicRoughness":
			{
				"baseColorTexture":
				{
					"index": 0
				},
				"metallicRoughnessTexture":
				{
					"index": 1
				}
			},
			"normalTexture":
			{
				"index": 2
			}
		}
	],
	"meshes": [
		{
			"name": "SM_tyre",
			"primitives": [
				{
					"attributes":
					{
						"POSITION": 1,
						"NORMAL": 2,
						"TANGENT": 3,
						"TEXCOORD_0": 4,
						"TEXCOORD_1": 5
					},
					"indices": 0,
					"material": 0
				}
			]
		}
	],
	"nodes": [
		{
			"mesh": 0
		}
	],
	"samplers": [
		{
			"minFilter": 9987,
			"magFilter": 9729
		}
	],
	"scenes": [
		{
			"nodes": [ 0 ]
		}
	],
	"textures": [
		{
			"name": "MI_tyre_loop_BaseColor",
			"sampler": 0,
			"source": 0
		},
		{
			"name": "T_tyre_loop_ORM",
			"sampler": 0,
			"source": 1
		},
		{
			"name": "T_tyre_loop_N",
			"sampler": 0,
			"source": 2
		}
	]
}