{
	"asset":
	{
		"version": "2.0",
		"generator": "Unreal Engine 5.5.3"
	},
	"scene": 0,
	"accessors": [
		{
			"bufferView": 0,
			"count": 3456,
			"type": "SCALAR",
			"componentType": 5123
		},
		{
			"bufferView": 1,
			"count": 650,
			"type": "VEC3",
			"componentType": 5126,
			"min": [ 0.00795008987, 0.000674448675, 0.000280905282 ],
			"max": [ 0.154562205, 0.886292338, 0.330022842 ]
		},
		{
			"bufferView": 2,
			"count": 650,
			"type": "VEC3",
			"componentType": 5126
		},
		{
			"bufferView": 3,
			"count": 650,
			"type": "VEC4",
			"componentType": 5126
		},
		{
			"bufferView": 4,
			"count": 650,
			"type": "VEC2",
			"componentType": 5126
		},
		{
			"bufferView": 5,
			"count": 650,
			"type": "VEC2",
			"componentType": 5126
		}
	],
	"buffers": [
		{
			"uri": "SM_loop.bin",
			"byteLength": 43312
		}
	],
	"bufferViews": [
		{
			"buffer": 0,
			"byteLength": 6912,
			"target": 34963
		},
		{
			"buffer": 0,
			"byteLength": 7800,
			"byteOffset": 6912,
			"target": 34962
		},
		{
			"buffer": 0,
			"byteLength": 7800,
			"byteOffset": 14712,
			"target": 34962
		},
		{
			"buffer": 0,
			"byteLength": 10400,
			"byteOffset": 22512,
			"target": 34962
		},
		{
			"buffer": 0,
			"byteLength": 5200,
			"byteOffset": 32912,
			"target": 34962
		},
		{
			"buffer": 0,
			"byteLength": 5200,
			"byteOffset": 38112,
			"target": 34962
		}
	],
	"images": [
		{
			"uri": "MI_tyre_loop_BaseColor.png"
		},
		{
			"uri": "T_tyre_loop_ORM.png"
		},
		{
			"uri": "T_tyre_loop_N.png"
		}
	],
	"materials": [
		{
			"name": "MI_tyre_loop",
			"pbrMetallicRoughness":
			{
				"baseColorTexture":
				{
					"index": 0
				},
				"metallicRoughnessTexture":
				{
					"index": 1
				}
			},
			"normalTexture":
			{
				"index": 2
			}
		}
	],
	"meshes": [
		{
			"name": "SM_loop",
			"primitives": [
				{
					"attributes":
					{
						"POSITION": 1,
						"NORMAL": 2,
						"TANGENT": 3,
						"TEXCOORD_0": 4,
						"TEXCOORD_1": 5
					},
					"indices": 0,
					"material": 0
				}
			]
		}
	],
	"nodes": [
		{
			"mesh": 0
		}
	],
	"samplers": [
		{
			"minFilter": 9987,
			"magFilter": 9729
		}
	],
	"scenes": [
		{
			"nodes": [ 0 ]
		}
	],
	"textures": [
		{
			"name": "MI_tyre_loop_BaseColor",
			"sampler": 0,
			"source": 0
		},
		{
			"name": "T_tyre_loop_ORM",
			"sampler": 0,
			"source": 1
		},
		{
			"name": "T_tyre_loop_N",
			"sampler": 0,
			"source": 2
		}
	]
}