{
	"asset":
	{
		"version": "2.0",
		"generator": "Unreal Engine 5.5.3"
	},
	"scene": 0,
	"accessors": [
		{
			"bufferView": 0,
			"count": 132,
			"type": "SCALAR",
			"componentType": 5121
		},
		{
			"bufferView": 1,
			"count": 46,
			"type": "VEC3",
			"componentType": 5126,
			"min": [ -0.00108255818, 0, -8.14603318e-09 ],
			"max": [ 1, 0.0500001274, 0.799999893 ]
		},
		{
			"bufferView": 2,
			"count": 46,
			"type": "VEC3",
			"componentType": 5126
		},
		{
			"bufferView": 3,
			"count": 46,
			"type": "VEC4",
			"componentType": 5126
		},
		{
			"bufferView": 4,
			"count": 46,
			"type": "VEC2",
			"componentType": 5126
		},
		{
			"bufferView": 5,
			"count": 46,
			"type": "VEC2",
			"componentType": 5126
		}
	],
	"buffers": [
		{
			"uri": "SM_corrugated_metal_05.bin",
			"byteLength": 2708
		}
	],
	"bufferViews": [
		{
			"buffer": 0,
			"byteLength": 132,
			"target": 34963
		},
		{
			"buffer": 0,
			"byteLength": 552,
			"byteOffset": 132,
			"target": 34962
		},
		{
			"buffer": 0,
			"byteLength": 552,
			"byteOffset": 684,
			"target": 34962
		},
		{
			"buffer": 0,
			"byteLength": 736,
			"byteOffset": 1236,
			"target": 34962
		},
		{
			"buffer": 0,
			"byteLength": 368,
			"byteOffset": 1972,
			"target": 34962
		},
		{
			"buffer": 0,
			"byteLength": 368,
			"byteOffset": 2340,
			"target": 34962
		}
	],
	"images": [
		{
			"uri": "MI_corrugated_metal_BaseColor.png"
		},
		{
			"uri": "MI_corrugated_metal_MetallicRoughness.png"
		},
		{
			"uri": "T_corrugated_metal_N.png"
		}
	],
	"materials": [
		{
			"name": "MI_corrugated_metal",
			"pbrMetallicRoughness":
			{
				"baseColorTexture":
				{
					"index": 0
				},
				"metallicRoughnessTexture":
				{
					"index": 1
				}
			},
			"normalTexture":
			{
				"index": 2
			},
			"doubleSided": true
		}
	],
	"meshes": [
		{
			"name": "SM_corrugated_metal_05",
			"primitives": [
				{
					"attributes":
					{
						"POSITION": 1,
						"NORMAL": 2,
						"TANGENT": 3,
						"TEXCOORD_0": 4,
						"TEXCOORD_1": 5
					},
					"indices": 0,
					"material": 0
				}
			]
		}
	],
	"nodes": [
		{
			"mesh": 0
		}
	],
	"samplers": [
		{
			"minFilter": 9987,
			"magFilter": 9729
		}
	],
	"scenes": [
		{
			"nodes": [ 0 ]
		}
	],
	"textures": [
		{
			"name": "MI_corrugated_metal_BaseColor",
			"sampler": 0,
			"source": 0
		},
		{
			"name": "MI_corrugated_metal_MetallicRoughness",
			"sampler": 0,
			"source": 1
		},
		{
			"name": "T_corrugated_metal_N",
			"sampler": 0,
			"source": 2
		}
	]
}