{
	"asset":
	{
		"version": "2.0",
		"generator": "Unreal Engine 5.5.3"
	},
	"scene": 0,
	"accessors": [
		{
			"bufferView": 0,
			"count": 4398,
			"type": "SCALAR",
			"componentType": 5123
		},
		{
			"bufferView": 1,
			"count": 1066,
			"type": "VEC3",
			"componentType": 5126,
			"min": [ -1.04524994, -0.0765195638, -0.39886409 ],
			"max": [ 1.05558932, 0.0782555267, 0.406459421 ]
		},
		{
			"bufferView": 2,
			"count": 1066,
			"type": "VEC3",
			"componentType": 5126
		},
		{
			"bufferView": 3,
			"count": 1066,
			"type": "VEC4",
			"componentType": 5126
		},
		{
			"bufferView": 4,
			"count": 1066,
			"type": "VEC2",
			"componentType": 5126
		}
	],
	"buffers": [
		{
			"uri": "SM_Ind_War_Sheet_Metal_Corrugated_01.bin",
			"byteLength": 59964
		}
	],
	"bufferViews": [
		{
			"buffer": 0,
			"byteLength": 8796,
			"target": 34963
		},
		{
			"buffer": 0,
			"byteLength": 12792,
			"byteOffset": 8796,
			"target": 34962
		},
		{
			"buffer": 0,
			"byteLength": 12792,
			"byteOffset": 21588,
			"target": 34962
		},
		{
			"buffer": 0,
			"byteLength": 17056,
			"byteOffset": 34380,
			"target": 34962
		},
		{
			"buffer": 0,
			"byteLength": 8528,
			"byteOffset": 51436,
			"target": 34962
		}
	],
	"images": [
		{
			"uri": "MI_Ind_War_Sheet_Metal_Corrugated_01_A_BaseColor.png"
		},
		{
			"uri": "MI_Ind_War_Sheet_Metal_Corrugated_01_A_MetallicRoughness.png"
		},
		{
			"uri": "MI_Ind_War_Sheet_Metal_Corrugated_01_A_Normal.png"
		}
	],
	"materials": [
		{
			"name": "MI_Ind_War_Sheet_Metal_Corrugated_01_A",
			"pbrMetallicRoughness":
			{
				"baseColorTexture":
				{
					"index": 0
				},
				"metallicRoughnessTexture":
				{
					"index": 1
				}
			},
			"normalTexture":
			{
				"index": 2
			},
			"extensions":
			{
				"KHR_materials_specular":
				{
					"specularFactor": 0.498039246
				}
			}
		}
	],
	"meshes": [
		{
			"name": "SM_Ind_War_Sheet_Metal_Corrugated_01",
			"primitives": [
				{
					"attributes":
					{
						"POSITION": 1,
						"NORMAL": 2,
						"TANGENT": 3,
						"TEXCOORD_0": 4
					},
					"indices": 0,
					"material": 0
				}
			]
		}
	],
	"nodes": [
		{
			"mesh": 0
		}
	],
	"samplers": [
		{
			"minFilter": 9987,
			"magFilter": 9729
		}
	],
	"scenes": [
		{
			"nodes": [ 0 ]
		}
	],
	"textures": [
		{
			"name": "MI_Ind_War_Sheet_Metal_Corrugated_01_A_BaseColor",
			"sampler": 0,
			"source": 0
		},
		{
			"name": "MI_Ind_War_Sheet_Metal_Corrugated_01_A_MetallicRoughness",
			"sampler": 0,
			"source": 1
		},
		{
			"name": "MI_Ind_War_Sheet_Metal_Corrugated_01_A_Normal",
			"sampler": 0,
			"source": 2
		}
	],
	"extensionsUsed": [
		"KHR_materials_specular"
	]
}