{
	"asset":
	{
		"version": "2.0",
		"generator": "Unreal Engine 5.5.3"
	},
	"scene": 0,
	"accessors": [
		{
			"bufferView": 0,
			"count": 2916,
			"type": "SCALAR",
			"componentType": 5123
		},
		{
			"bufferView": 1,
			"count": 837,
			"type": "VEC3",
			"componentType": 5126,
			"min": [ -0.12298622, -0.00246221991, -0.128494754 ],
			"max": [ 0.127101377, 0.00246191164, 0.121815838 ]
		},
		{
			"bufferView": 2,
			"count": 837,
			"type": "VEC3",
			"componentType": 5126
		},
		{
			"bufferView": 3,
			"count": 837,
			"type": "VEC4",
			"componentType": 5126
		},
		{
			"bufferView": 4,
			"count": 837,
			"type": "VEC2",
			"componentType": 5126
		}
	],
	"buffers": [
		{
			"uri": "SM_Ind_Jun_Cover_Metal_Painted_05.bin",
			"byteLength": 46008
		}
	],
	"bufferViews": [
		{
			"buffer": 0,
			"byteLength": 5832,
			"target": 34963
		},
		{
			"buffer": 0,
			"byteLength": 10044,
			"byteOffset": 5832,
			"target": 34962
		},
		{
			"buffer": 0,
			"byteLength": 10044,
			"byteOffset": 15876,
			"target": 34962
		},
		{
			"buffer": 0,
			"byteLength": 13392,
			"byteOffset": 25920,
			"target": 34962
		},
		{
			"buffer": 0,
			"byteLength": 6696,
			"byteOffset": 39312,
			"target": 34962
		}
	],
	"images": [
		{
			"uri": "MI_Ind_Jun_Cover_Metal_Painted_05_A_BaseColor.png"
		},
		{
			"uri": "MI_Ind_Jun_Cover_Metal_Painted_05_A_MetallicRoughness.png"
		},
		{
			"uri": "MI_Ind_Jun_Cover_Metal_Painted_05_A_Normal.png"
		}
	],
	"materials": [
		{
			"name": "MI_Ind_Jun_Cover_Metal_Painted_05_A",
			"pbrMetallicRoughness":
			{
				"baseColorTexture":
				{
					"index": 0
				},
				"metallicRoughnessTexture":
				{
					"index": 1
				}
			},
			"normalTexture":
			{
				"index": 2
			},
			"extensions":
			{
				"KHR_materials_specular":
				{
					"specularFactor": 0.498039246
				}
			}
		}
	],
	"meshes": [
		{
			"name": "SM_Ind_Jun_Cover_Metal_Painted_05",
			"primitives": [
				{
					"attributes":
					{
						"POSITION": 1,
						"NORMAL": 2,
						"TANGENT": 3,
						"TEXCOORD_0": 4
					},
					"indices": 0,
					"material": 0
				}
			]
		}
	],
	"nodes": [
		{
			"mesh": 0
		}
	],
	"samplers": [
		{
			"minFilter": 9987,
			"magFilter": 9729
		}
	],
	"scenes": [
		{
			"nodes": [ 0 ]
		}
	],
	"textures": [
		{
			"name": "MI_Ind_Jun_Cover_Metal_Painted_05_A_BaseColor",
			"sampler": 0,
			"source": 0
		},
		{
			"name": "MI_Ind_Jun_Cover_Metal_Painted_05_A_MetallicRoughness",
			"sampler": 0,
			"source": 1
		},
		{
			"name": "MI_Ind_Jun_Cover_Metal_Painted_05_A_Normal",
			"sampler": 0,
			"source": 2
		}
	],
	"extensionsUsed": [
		"KHR_materials_specular"
	]
}