{
	"asset":
	{
		"version": "2.0",
		"generator": "Unreal Engine 5.5.3"
	},
	"scene": 0,
	"accessors": [
		{
			"bufferView": 0,
			"count": 6126,
			"type": "SCALAR",
			"componentType": 5123
		},
		{
			"bufferView": 1,
			"count": 1399,
			"type": "VEC3",
			"componentType": 5126,
			"min": [ -0.188293487, -0.00759998523, -0.18823716 ],
			"max": [ 0.189984992, 1.23090279, 0.184717342 ]
		},
		{
			"bufferView": 2,
			"count": 1399,
			"type": "VEC3",
			"componentType": 5126
		},
		{
			"bufferView": 3,
			"count": 1399,
			"type": "VEC4",
			"componentType": 5126
		},
		{
			"bufferView": 4,
			"count": 1399,
			"type": "VEC2",
			"componentType": 5126
		}
	],
	"buffers": [
		{
			"uri": "SM_Ind_Fac_Tank_Gas_Metal_Worn_01.bin",
			"byteLength": 79404
		}
	],
	"bufferViews": [
		{
			"buffer": 0,
			"byteLength": 12252,
			"target": 34963
		},
		{
			"buffer": 0,
			"byteLength": 16788,
			"byteOffset": 12252,
			"target": 34962
		},
		{
			"buffer": 0,
			"byteLength": 16788,
			"byteOffset": 29040,
			"target": 34962
		},
		{
			"buffer": 0,
			"byteLength": 22384,
			"byteOffset": 45828,
			"target": 34962
		},
		{
			"buffer": 0,
			"byteLength": 11192,
			"byteOffset": 68212,
			"target": 34962
		}
	],
	"images": [
		{
			"uri": "MI_Ind_Fac_Tank_Gas_Metal_Worn_01_BaseColor.png"
		},
		{
			"uri": "MI_Ind_Fac_Tank_Gas_Metal_Worn_01_MetallicRoughness.png"
		},
		{
			"uri": "MI_Ind_Fac_Tank_Gas_Metal_Worn_01_Normal.png"
		}
	],
	"materials": [
		{
			"name": "MI_Ind_Fac_Tank_Gas_Metal_Worn_01",
			"pbrMetallicRoughness":
			{
				"baseColorTexture":
				{
					"index": 0
				},
				"metallicRoughnessTexture":
				{
					"index": 1
				}
			},
			"normalTexture":
			{
				"index": 2
			},
			"extensions":
			{
				"KHR_materials_specular":
				{
					"specularFactor": 0.498039246
				}
			}
		}
	],
	"meshes": [
		{
			"name": "SM_Ind_Fac_Tank_Gas_Metal_Worn_01",
			"primitives": [
				{
					"attributes":
					{
						"POSITION": 1,
						"NORMAL": 2,
						"TANGENT": 3,
						"TEXCOORD_0": 4
					},
					"indices": 0,
					"material": 0
				}
			]
		}
	],
	"nodes": [
		{
			"mesh": 0
		}
	],
	"samplers": [
		{
			"minFilter": 9987,
			"magFilter": 9729
		}
	],
	"scenes": [
		{
			"nodes": [ 0 ]
		}
	],
	"textures": [
		{
			"name": "MI_Ind_Fac_Tank_Gas_Metal_Worn_01_BaseColor",
			"sampler": 0,
			"source": 0
		},
		{
			"name": "MI_Ind_Fac_Tank_Gas_Metal_Worn_01_MetallicRoughness",
			"sampler": 0,
			"source": 1
		},
		{
			"name": "MI_Ind_Fac_Tank_Gas_Metal_Worn_01_Normal",
			"sampler": 0,
			"source": 2
		}
	],
	"extensionsUsed": [
		"KHR_materials_specular"
	]
}