{
	"asset":
	{
		"version": "2.0",
		"generator": "Unreal Engine 5.5.3"
	},
	"scene": 0,
	"accessors": [
		{
			"bufferView": 0,
			"count": 6894,
			"type": "SCALAR",
			"componentType": 5123
		},
		{
			"bufferView": 1,
			"count": 3563,
			"type": "VEC3",
			"componentType": 5126,
			"min": [ 0.0178934466, 4.1023668e-08, -0.0250042528 ],
			"max": [ 3.10710645, 4.01160002, 0.870200336 ]
		},
		{
			"bufferView": 2,
			"count": 3563,
			"type": "VEC3",
			"componentType": 5126
		},
		{
			"bufferView": 3,
			"count": 3563,
			"type": "VEC4",
			"componentType": 5126
		},
		{
			"bufferView": 4,
			"count": 3563,
			"type": "VEC2",
			"componentType": 5126
		},
		{
			"bufferView": 5,
			"count": 3563,
			"type": "VEC2",
			"componentType": 5126
		}
	],
	"buffers": [
		{
			"uri": "SM_antenna.bin",
			"byteLength": 213316
		}
	],
	"bufferViews": [
		{
			"buffer": 0,
			"byteLength": 13788,
			"target": 34963
		},
		{
			"buffer": 0,
			"byteLength": 42756,
			"byteOffset": 13788,
			"target": 34962
		},
		{
			"buffer": 0,
			"byteLength": 42756,
			"byteOffset": 56544,
			"target": 34962
		},
		{
			"buffer": 0,
			"byteLength": 57008,
			"byteOffset": 99300,
			"target": 34962
		},
		{
			"buffer": 0,
			"byteLength": 28504,
			"byteOffset": 156308,
			"target": 34962
		},
		{
			"buffer": 0,
			"byteLength": 28504,
			"byteOffset": 184812,
			"target": 34962
		}
	],
	"images": [
		{
			"uri": "MI_antenna_BaseColor.png"
		},
		{
			"uri": "MI_antenna_MetallicRoughness.png"
		},
		{
			"uri": "MI_antenna_Occlusion.png"
		},
		{
			"uri": "T_antenna_N.png"
		}
	],
	"materials": [
		{
			"name": "MI_antenna",
			"pbrMetallicRoughness":
			{
				"baseColorTexture":
				{
					"index": 0
				},
				"metallicRoughnessTexture":
				{
					"index": 1
				}
			},
			"normalTexture":
			{
				"index": 2
			},
			"occlusionTexture":
			{
				"index": 3
			}
		}
	],
	"meshes": [
		{
			"name": "SM_antenna",
			"primitives": [
				{
					"attributes":
					{
						"POSITION": 1,
						"NORMAL": 2,
						"TANGENT": 3,
						"TEXCOORD_0": 4,
						"TEXCOORD_1": 5
					},
					"indices": 0,
					"material": 0
				}
			]
		}
	],
	"nodes": [
		{
			"mesh": 0
		}
	],
	"samplers": [
		{
			"minFilter": 9987,
			"magFilter": 9729
		}
	],
	"scenes": [
		{
			"nodes": [ 0 ]
		}
	],
	"textures": [
		{
			"name": "MI_antenna_BaseColor",
			"sampler": 0,
			"source": 0
		},
		{
			"name": "MI_antenna_MetallicRoughness",
			"sampler": 0,
			"source": 1
		},
		{
			"name": "T_antenna_N",
			"sampler": 0,
			"source": 3
		},
		{
			"name": "MI_antenna_Occlusion",
			"sampler": 0,
			"source": 2
		}
	]
}