{
	"asset":
	{
		"version": "2.0",
		"generator": "Unreal Engine 5.5.3"
	},
	"scene": 0,
	"accessors": [
		{
			"bufferView": 0,
			"count": 1530,
			"type": "SCALAR",
			"componentType": 5123
		},
		{
			"bufferView": 1,
			"count": 584,
			"type": "VEC3",
			"componentType": 5126,
			"min": [ 0, 1.10712631e-06, -2.1009575e-05 ],
			"max": [ 0.455624938, 0.928237498, 0.269979119 ]
		},
		{
			"bufferView": 2,
			"count": 584,
			"type": "VEC3",
			"componentType": 5126
		},
		{
			"bufferView": 3,
			"count": 584,
			"type": "VEC4",
			"componentType": 5126
		},
		{
			"bufferView": 4,
			"count": 584,
			"type": "VEC2",
			"componentType": 5126
		},
		{
			"bufferView": 5,
			"count": 584,
			"type": "VEC2",
			"componentType": 5126
		}
	],
	"buffers": [
		{
			"uri": "SM_electric_box_s.bin",
			"byteLength": 35764
		}
	],
	"bufferViews": [
		{
			"buffer": 0,
			"byteLength": 3060,
			"target": 34963
		},
		{
			"buffer": 0,
			"byteLength": 7008,
			"byteOffset": 3060,
			"target": 34962
		},
		{
			"buffer": 0,
			"byteLength": 7008,
			"byteOffset": 10068,
			"target": 34962
		},
		{
			"buffer": 0,
			"byteLength": 9344,
			"byteOffset": 17076,
			"target": 34962
		},
		{
			"buffer": 0,
			"byteLength": 4672,
			"byteOffset": 26420,
			"target": 34962
		},
		{
			"buffer": 0,
			"byteLength": 4672,
			"byteOffset": 31092,
			"target": 34962
		}
	],
	"images": [
		{
			"uri": "MI_electric_boxes_lightbulb_BaseColor.png"
		},
		{
			"uri": "MI_electric_boxes_lightbulb_MetallicRoughness.png"
		},
		{
			"uri": "MI_electric_boxes_lightbulb_Occlusion.png"
		},
		{
			"uri": "T_electric_boxes_lightbulb_N.png"
		}
	],
	"materials": [
		{
			"name": "MI_electric_boxes_lightbulb",
			"pbrMetallicRoughness":
			{
				"baseColorTexture":
				{
					"index": 0
				},
				"metallicRoughnessTexture":
				{
					"index": 1
				}
			},
			"normalTexture":
			{
				"index": 2
			},
			"occlusionTexture":
			{
				"index": 3
			}
		}
	],
	"meshes": [
		{
			"name": "SM_electric_box_s",
			"primitives": [
				{
					"attributes":
					{
						"POSITION": 1,
						"NORMAL": 2,
						"TANGENT": 3,
						"TEXCOORD_0": 4,
						"TEXCOORD_1": 5
					},
					"indices": 0,
					"material": 0
				}
			]
		}
	],
	"nodes": [
		{
			"mesh": 0
		}
	],
	"samplers": [
		{
			"minFilter": 9987,
			"magFilter": 9729
		}
	],
	"scenes": [
		{
			"nodes": [ 0 ]
		}
	],
	"textures": [
		{
			"name": "MI_electric_boxes_lightbulb_BaseColor",
			"sampler": 0,
			"source": 0
		},
		{
			"name": "MI_electric_boxes_lightbulb_MetallicRoughness",
			"sampler": 0,
			"source": 1
		},
		{
			"name": "T_electric_boxes_lightbulb_N",
			"sampler": 0,
			"source": 3
		},
		{
			"name": "MI_electric_boxes_lightbulb_Occlusion",
			"sampler": 0,
			"source": 2
		}
	]
}