{
	"asset":
	{
		"version": "2.0",
		"generator": "Unreal Engine 5.5.3"
	},
	"scene": 0,
	"accessors": [
		{
			"bufferView": 0,
			"count": 4074,
			"type": "SCALAR",
			"componentType": 5123
		},
		{
			"bufferView": 1,
			"count": 873,
			"type": "VEC3",
			"componentType": 5126,
			"min": [ -0.389945775, -0.0917763859, -0.0928325653 ],
			"max": [ 0.389470011, 0.091925323, 0.0926485583 ]
		},
		{
			"bufferView": 2,
			"count": 873,
			"type": "VEC3",
			"componentType": 5126
		},
		{
			"bufferView": 3,
			"count": 873,
			"type": "VEC4",
			"componentType": 5126
		},
		{
			"bufferView": 4,
			"count": 873,
			"type": "VEC2",
			"componentType": 5126
		}
	],
	"buffers": [
		{
			"uri": "SM_Ind_Jun_Exhaust_Metal_Rusty_02.bin",
			"byteLength": 50052
		}
	],
	"bufferViews": [
		{
			"buffer": 0,
			"byteLength": 8148,
			"target": 34963
		},
		{
			"buffer": 0,
			"byteLength": 10476,
			"byteOffset": 8148,
			"target": 34962
		},
		{
			"buffer": 0,
			"byteLength": 10476,
			"byteOffset": 18624,
			"target": 34962
		},
		{
			"buffer": 0,
			"byteLength": 13968,
			"byteOffset": 29100,
			"target": 34962
		},
		{
			"buffer": 0,
			"byteLength": 6984,
			"byteOffset": 43068,
			"target": 34962
		}
	],
	"images": [
		{
			"uri": "MI_Ind_Jun_Exhaust_Metal_Rusty_02_BaseColor.png"
		},
		{
			"uri": "MI_Ind_Jun_Exhaust_Metal_Rusty_02_MetallicRoughness.png"
		},
		{
			"uri": "MI_Ind_Jun_Exhaust_Metal_Rusty_02_Normal.png"
		}
	],
	"materials": [
		{
			"name": "MI_Ind_Jun_Exhaust_Metal_Rusty_02",
			"pbrMetallicRoughness":
			{
				"baseColorTexture":
				{
					"index": 0
				},
				"metallicRoughnessTexture":
				{
					"index": 1
				}
			},
			"normalTexture":
			{
				"index": 2
			},
			"extensions":
			{
				"KHR_materials_specular":
				{
					"specularFactor": 0.498039246
				}
			}
		}
	],
	"meshes": [
		{
			"name": "SM_Ind_Jun_Exhaust_Metal_Rusty_02",
			"primitives": [
				{
					"attributes":
					{
						"POSITION": 1,
						"NORMAL": 2,
						"TANGENT": 3,
						"TEXCOORD_0": 4
					},
					"indices": 0,
					"material": 0
				}
			]
		}
	],
	"nodes": [
		{
			"mesh": 0
		}
	],
	"samplers": [
		{
			"minFilter": 9987,
			"magFilter": 9729
		}
	],
	"scenes": [
		{
			"nodes": [ 0 ]
		}
	],
	"textures": [
		{
			"name": "MI_Ind_Jun_Exhaust_Metal_Rusty_02_BaseColor",
			"sampler": 0,
			"source": 0
		},
		{
			"name": "MI_Ind_Jun_Exhaust_Metal_Rusty_02_MetallicRoughness",
			"sampler": 0,
			"source": 1
		},
		{
			"name": "MI_Ind_Jun_Exhaust_Metal_Rusty_02_Normal",
			"sampler": 0,
			"source": 2
		}
	],
	"extensionsUsed": [
		"KHR_materials_specular"
	]
}