{
	"asset":
	{
		"version": "2.0",
		"generator": "Unreal Engine 5.5.3"
	},
	"scene": 0,
	"accessors": [
		{
			"bufferView": 0,
			"count": 3690,
			"type": "SCALAR",
			"componentType": 5123
		},
		{
			"bufferView": 1,
			"count": 2384,
			"type": "VEC3",
			"componentType": 5126,
			"min": [ -0.00505297072, 4.07301677e-08, -6.598288e-07 ],
			"max": [ 1.50378001, 4.71759033, 1.50056195 ]
		},
		{
			"bufferView": 2,
			"count": 2384,
			"type": "VEC3",
			"componentType": 5126
		},
		{
			"bufferView": 3,
			"count": 2384,
			"type": "VEC4",
			"componentType": 5126
		},
		{
			"bufferView": 4,
			"count": 2384,
			"type": "VEC2",
			"componentType": 5126
		},
		{
			"bufferView": 5,
			"count": 2384,
			"type": "VEC2",
			"componentType": 5126
		},
		{
			"bufferView": 6,
			"count": 2384,
			"type": "VEC2",
			"componentType": 5126
		}
	],
	"buffers": [
		{
			"uri": "SM_tower.bin",
			"byteLength": 159956
		}
	],
	"bufferViews": [
		{
			"buffer": 0,
			"byteLength": 7380,
			"target": 34963
		},
		{
			"buffer": 0,
			"byteLength": 28608,
			"byteOffset": 7380,
			"target": 34962
		},
		{
			"buffer": 0,
			"byteLength": 28608,
			"byteOffset": 35988,
			"target": 34962
		},
		{
			"buffer": 0,
			"byteLength": 38144,
			"byteOffset": 64596,
			"target": 34962
		},
		{
			"buffer": 0,
			"byteLength": 19072,
			"byteOffset": 102740,
			"target": 34962
		},
		{
			"buffer": 0,
			"byteLength": 19072,
			"byteOffset": 121812,
			"target": 34962
		},
		{
			"buffer": 0,
			"byteLength": 19072,
			"byteOffset": 140884,
			"target": 34962
		}
	],
	"images": [
		{
			"uri": "MI_tower_BaseColor.png"
		},
		{
			"uri": "MI_tower_MetallicRoughness.png"
		},
		{
			"uri": "MI_tower_Normal.png"
		}
	],
	"materials": [
		{
			"name": "MI_tower",
			"pbrMetallicRoughness":
			{
				"baseColorTexture":
				{
					"index": 0
				},
				"metallicRoughnessTexture":
				{
					"index": 1
				}
			},
			"normalTexture":
			{
				"index": 2
			}
		}
	],
	"meshes": [
		{
			"name": "SM_tower",
			"primitives": [
				{
					"attributes":
					{
						"POSITION": 1,
						"NORMAL": 2,
						"TANGENT": 3,
						"TEXCOORD_0": 4,
						"TEXCOORD_1": 5,
						"TEXCOORD_2": 6
					},
					"indices": 0,
					"material": 0
				}
			]
		}
	],
	"nodes": [
		{
			"mesh": 0
		}
	],
	"samplers": [
		{
			"minFilter": 9987,
			"magFilter": 9729
		}
	],
	"scenes": [
		{
			"nodes": [ 0 ]
		}
	],
	"textures": [
		{
			"name": "MI_tower_BaseColor",
			"sampler": 0,
			"source": 0
		},
		{
			"name": "MI_tower_MetallicRoughness",
			"sampler": 0,
			"source": 1
		},
		{
			"name": "MI_tower_Normal",
			"sampler": 0,
			"source": 2
		}
	]
}