{
	"asset":
	{
		"version": "2.0",
		"generator": "Unreal Engine 5.5.3"
	},
	"scene": 0,
	"accessors": [
		{
			"bufferView": 0,
			"count": 45684,
			"type": "SCALAR",
			"componentType": 5123
		},
		{
			"bufferView": 1,
			"count": 7872,
			"type": "VEC3",
			"componentType": 5126,
			"min": [ 0.0274009705, 0.164499566, -6.67044401 ],
			"max": [ 4.3238492, 4.2429328, -0.0162714701 ]
		},
		{
			"bufferView": 2,
			"count": 7872,
			"type": "VEC3",
			"componentType": 5126
		},
		{
			"bufferView": 3,
			"count": 7872,
			"type": "VEC4",
			"componentType": 5126
		},
		{
			"bufferView": 4,
			"count": 7872,
			"type": "VEC2",
			"componentType": 5126
		},
		{
			"bufferView": 5,
			"count": 7872,
			"type": "VEC2",
			"componentType": 5126
		},
		{
			"bufferView": 6,
			"count": 7872,
			"type": "VEC2",
			"componentType": 5126
		}
	],
	"buffers": [
		{
			"uri": "SM_cloth_house_a.bin",
			"byteLength": 595176
		}
	],
	"bufferViews": [
		{
			"buffer": 0,
			"byteLength": 91368,
			"target": 34963
		},
		{
			"buffer": 0,
			"byteLength": 94464,
			"byteOffset": 91368,
			"target": 34962
		},
		{
			"buffer": 0,
			"byteLength": 94464,
			"byteOffset": 185832,
			"target": 34962
		},
		{
			"buffer": 0,
			"byteLength": 125952,
			"byteOffset": 280296,
			"target": 34962
		},
		{
			"buffer": 0,
			"byteLength": 62976,
			"byteOffset": 406248,
			"target": 34962
		},
		{
			"buffer": 0,
			"byteLength": 62976,
			"byteOffset": 469224,
			"target": 34962
		},
		{
			"buffer": 0,
			"byteLength": 62976,
			"byteOffset": 532200,
			"target": 34962
		}
	],
	"images": [
		{
			"uri": "MI_tarp_Occlusion.png"
		},
		{
			"uri": "T_tarp_ORM.png"
		},
		{
			"uri": "T_tarp_N.png"
		}
	],
	"materials": [
		{
			"name": "MI_tarp",
			"pbrMetallicRoughness":
			{
				"metallicRoughnessTexture":
				{
					"index": 0,
					"texCoord": 2
				}
			},
			"normalTexture":
			{
				"index": 1,
				"texCoord": 2
			},
			"occlusionTexture":
			{
				"index": 2,
				"texCoord": 2
			},
			"alphaMode": "MASK",
			"alphaCutoff": 0.333299994,
			"doubleSided": true
		}
	],
	"meshes": [
		{
			"name": "SM_cloth_house_a",
			"primitives": [
				{
					"attributes":
					{
						"POSITION": 1,
						"NORMAL": 2,
						"TANGENT": 3,
						"TEXCOORD_0": 4,
						"TEXCOORD_1": 5,
						"TEXCOORD_2": 6
					},
					"indices": 0,
					"material": 0
				}
			]
		}
	],
	"nodes": [
		{
			"mesh": 0
		}
	],
	"samplers": [
		{
			"minFilter": 9987,
			"magFilter": 9729
		}
	],
	"scenes": [
		{
			"nodes": [ 0 ]
		}
	],
	"textures": [
		{
			"name": "T_tarp_ORM",
			"sampler": 0,
			"source": 1
		},
		{
			"name": "T_tarp_N",
			"sampler": 0,
			"source": 2
		},
		{
			"name": "MI_tarp_Occlusion",
			"sampler": 0,
			"source": 0
		}
	]
}