{
	"asset":
	{
		"version": "2.0",
		"generator": "Unreal Engine 5.5.3"
	},
	"scene": 0,
	"accessors": [
		{
			"bufferView": 0,
			"count": 4209,
			"type": "SCALAR",
			"componentType": 5123
		},
		{
			"bufferView": 1,
			"count": 856,
			"type": "VEC3",
			"componentType": 5126,
			"min": [ -0.0425585844, -0.00396528421, -0.00761281885 ],
			"max": [ 0.0425015539, 0.00396734895, 0.00752706872 ]
		},
		{
			"bufferView": 2,
			"count": 856,
			"type": "VEC3",
			"componentType": 5126
		},
		{
			"bufferView": 3,
			"count": 856,
			"type": "VEC4",
			"componentType": 5126
		},
		{
			"bufferView": 4,
			"count": 856,
			"type": "VEC2",
			"componentType": 5126
		}
	],
	"buffers": [
		{
			"uri": "SM_For_Sca_Stick_Set_02_E.bin",
			"byteLength": 49508
		}
	],
	"bufferViews": [
		{
			"buffer": 0,
			"byteLength": 8418,
			"target": 34963
		},
		{
			"buffer": 0,
			"byteLength": 10272,
			"byteOffset": 8420,
			"target": 34962
		},
		{
			"buffer": 0,
			"byteLength": 10272,
			"byteOffset": 18692,
			"target": 34962
		},
		{
			"buffer": 0,
			"byteLength": 13696,
			"byteOffset": 28964,
			"target": 34962
		},
		{
			"buffer": 0,
			"byteLength": 6848,
			"byteOffset": 42660,
			"target": 34962
		}
	],
	"images": [
		{
			"uri": "MI_For_Sca_Stick_Set_02_BaseColor.png"
		},
		{
			"uri": "MI_For_Sca_Stick_Set_02_MetallicRoughness.png"
		},
		{
			"uri": "MI_For_Sca_Stick_Set_02_Normal.png"
		}
	],
	"materials": [
		{
			"name": "MI_For_Sca_Stick_Set_02",
			"pbrMetallicRoughness":
			{
				"baseColorTexture":
				{
					"index": 0
				},
				"metallicRoughnessTexture":
				{
					"index": 1
				}
			},
			"normalTexture":
			{
				"index": 2
			},
			"extensions":
			{
				"KHR_materials_specular":
				{
					"specularFactor": 0.498039246
				}
			}
		}
	],
	"meshes": [
		{
			"name": "SM_For_Sca_Stick_Set_02_E",
			"primitives": [
				{
					"attributes":
					{
						"POSITION": 1,
						"NORMAL": 2,
						"TANGENT": 3,
						"TEXCOORD_0": 4
					},
					"indices": 0,
					"material": 0
				}
			]
		}
	],
	"nodes": [
		{
			"mesh": 0
		}
	],
	"samplers": [
		{
			"minFilter": 9987,
			"magFilter": 9729
		}
	],
	"scenes": [
		{
			"nodes": [ 0 ]
		}
	],
	"textures": [
		{
			"name": "MI_For_Sca_Stick_Set_02_BaseColor",
			"sampler": 0,
			"source": 0
		},
		{
			"name": "MI_For_Sca_Stick_Set_02_MetallicRoughness",
			"sampler": 0,
			"source": 1
		},
		{
			"name": "MI_For_Sca_Stick_Set_02_Normal",
			"sampler": 0,
			"source": 2
		}
	],
	"extensionsUsed": [
		"KHR_materials_specular"
	]
}