{
	"asset":
	{
		"version": "2.0",
		"generator": "Unreal Engine 5.5.3"
	},
	"scene": 0,
	"accessors": [
		{
			"bufferView": 0,
			"count": 1047,
			"type": "SCALAR",
			"componentType": 5123
		},
		{
			"bufferView": 1,
			"count": 701,
			"type": "VEC3",
			"componentType": 5126,
			"min": [ 1.1920929e-07, 0.160488531, -0.0129371928 ],
			"max": [ 11.999774, 2.15945435, 0.0841988474 ]
		},
		{
			"bufferView": 2,
			"count": 701,
			"type": "VEC3",
			"componentType": 5126
		},
		{
			"bufferView": 3,
			"count": 701,
			"type": "VEC4",
			"componentType": 5126
		},
		{
			"bufferView": 4,
			"count": 701,
			"type": "VEC2",
			"componentType": 5126
		},
		{
			"bufferView": 5,
			"count": 701,
			"type": "VEC2",
			"componentType": 5126
		},
		{
			"bufferView": 6,
			"count": 1236,
			"type": "SCALAR",
			"componentType": 5123
		},
		{
			"bufferView": 7,
			"count": 825,
			"type": "VEC3",
			"componentType": 5126,
			"min": [ 4.99662876, 0.761393785, -2.35871056e-07 ],
			"max": [ 7.00332689, 1.50209653, 0.200052217 ]
		},
		{
			"bufferView": 8,
			"count": 825,
			"type": "VEC3",
			"componentType": 5126
		},
		{
			"bufferView": 9,
			"count": 825,
			"type": "VEC4",
			"componentType": 5126
		},
		{
			"bufferView": 10,
			"count": 825,
			"type": "VEC2",
			"componentType": 5126
		},
		{
			"bufferView": 11,
			"count": 825,
			"type": "VEC2",
			"componentType": 5126
		},
		{
			"bufferView": 12,
			"count": 6,
			"type": "SCALAR",
			"componentType": 5121
		},
		{
			"bufferView": 13,
			"count": 4,
			"type": "VEC3",
			"componentType": 5126,
			"min": [ 5.0325222, 0.834701061, 0.0157009102 ],
			"max": [ 6.9674325, 1.44703424, 0.180963263 ]
		},
		{
			"bufferView": 14,
			"count": 4,
			"type": "VEC3",
			"componentType": 5126
		},
		{
			"bufferView": 15,
			"count": 4,
			"type": "VEC4",
			"componentType": 5126
		},
		{
			"bufferView": 16,
			"count": 4,
			"type": "VEC2",
			"componentType": 5126
		},
		{
			"bufferView": 17,
			"count": 4,
			"type": "VEC2",
			"componentType": 5126
		},
		{
			"bufferView": 18,
			"count": 54,
			"type": "SCALAR",
			"componentType": 5121
		},
		{
			"bufferView": 19,
			"count": 27,
			"type": "VEC3",
			"componentType": 5126,
			"min": [ 0.130378246, 0.205866814, -2.84015186e-07 ],
			"max": [ 11.869565, 2.05290365, 6.97310898e-05 ]
		},
		{
			"bufferView": 20,
			"count": 27,
			"type": "VEC3",
			"componentType": 5126
		},
		{
			"bufferView": 21,
			"count": 27,
			"type": "VEC4",
			"componentType": 5126
		},
		{
			"bufferView": 22,
			"count": 27,
			"type": "VEC2",
			"componentType": 5126
		},
		{
			"bufferView": 23,
			"count": 27,
			"type": "VEC2",
			"componentType": 5126
		}
	],
	"buffers": [
		{
			"uri": "SM_roof_support.bin",
			"byteLength": 91824
		}
	],
	"bufferViews": [
		{
			"buffer": 0,
			"byteLength": 2094,
			"target": 34963
		},
		{
			"buffer": 0,
			"byteLength": 8412,
			"byteOffset": 2096,
			"target": 34962
		},
		{
			"buffer": 0,
			"byteLength": 8412,
			"byteOffset": 10508,
			"target": 34962
		},
		{
			"buffer": 0,
			"byteLength": 11216,
			"byteOffset": 18920,
			"target": 34962
		},
		{
			"buffer": 0,
			"byteLength": 5608,
			"byteOffset": 30136,
			"target": 34962
		},
		{
			"buffer": 0,
			"byteLength": 5608,
			"byteOffset": 35744,
			"target": 34962
		},
		{
			"buffer": 0,
			"byteLength": 2472,
			"byteOffset": 41352,
			"target": 34963
		},
		{
			"buffer": 0,
			"byteLength": 9900,
			"byteOffset": 43824,
			"target": 34962
		},
		{
			"buffer": 0,
			"byteLength": 9900,
			"byteOffset": 53724,
			"target": 34962
		},
		{
			"buffer": 0,
			"byteLength": 13200,
			"byteOffset": 63624,
			"target": 34962
		},
		{
			"buffer": 0,
			"byteLength": 6600,
			"byteOffset": 76824,
			"target": 34962
		},
		{
			"buffer": 0,
			"byteLength": 6600,
			"byteOffset": 83424,
			"target": 34962
		},
		{
			"buffer": 0,
			"byteLength": 6,
			"byteOffset": 90024,
			"target": 34963
		},
		{
			"buffer": 0,
			"byteLength": 48,
			"byteOffset": 90032,
			"target": 34962
		},
		{
			"buffer": 0,
			"byteLength": 48,
			"byteOffset": 90080,
			"target": 34962
		},
		{
			"buffer": 0,
			"byteLength": 64,
			"byteOffset": 90128,
			"target": 34962
		},
		{
			"buffer": 0,
			"byteLength": 32,
			"byteOffset": 90192,
			"target": 34962
		},
		{
			"buffer": 0,
			"byteLength": 32,
			"byteOffset": 90224,
			"target": 34962
		},
		{
			"buffer": 0,
			"byteLength": 54,
			"byteOffset": 90256,
			"target": 34963
		},
		{
			"buffer": 0,
			"byteLength": 324,
			"byteOffset": 90312,
			"target": 34962
		},
		{
			"buffer": 0,
			"byteLength": 324,
			"byteOffset": 90636,
			"target": 34962
		},
		{
			"buffer": 0,
			"byteLength": 432,
			"byteOffset": 90960,
			"target": 34962
		},
		{
			"buffer": 0,
			"byteLength": 216,
			"byteOffset": 91392,
			"target": 34962
		},
		{
			"buffer": 0,
			"byteLength": 216,
			"byteOffset": 91608,
			"target": 34962
		}
	],
	"images": [
		{
			"uri": "MI_wood_exterior_BaseColor.png"
		},
		{
			"uri": "MI_wood_exterior_MetallicRoughness.png"
		},
		{
			"uri": "MI_wood_exterior_Occlusion.png"
		},
		{
			"uri": "MI_metal_base_BaseColor.png"
		},
		{
			"uri": "MI_metal_base_MetallicRoughness.png"
		},
		{
			"uri": "MI_grating_BaseColor.png"
		},
		{
			"uri": "MI_planks_BaseColor.png"
		},
		{
			"uri": "MI_planks_MetallicRoughness.png"
		},
		{
			"uri": "T_wood_exterior_N.png"
		},
		{
			"uri": "T_metal_base_N.png"
		},
		{
			"uri": "T_grating_ORM_Linear.png"
		},
		{
			"uri": "T_grating_N.png"
		},
		{
			"uri": "T_planks_N.png"
		}
	],
	"materials": [
		{
			"name": "MI_wood_exterior",
			"pbrMetallicRoughness":
			{
				"baseColorTexture":
				{
					"index": 0
				},
				"metallicRoughnessTexture":
				{
					"index": 1
				}
			},
			"normalTexture":
			{
				"index": 2
			},
			"occlusionTexture":
			{
				"index": 3
			}
		},
		{
			"name": "MI_metal_base",
			"pbrMetallicRoughness":
			{
				"baseColorTexture":
				{
					"index": 4
				},
				"metallicRoughnessTexture":
				{
					"index": 5
				}
			},
			"normalTexture":
			{
				"index": 6
			},
			"occlusionTexture":
			{
				"index": 7
			}
		},
		{
			"name": "MI_grating",
			"pbrMetallicRoughness":
			{
				"baseColorTexture":
				{
					"index": 8
				},
				"metallicRoughnessTexture":
				{
					"index": 9
				}
			},
			"normalTexture":
			{
				"index": 10
			},
			"occlusionTexture":
			{
				"index": 9
			},
			"alphaMode": "MASK",
			"alphaCutoff": 0.333299994,
			"doubleSided": true
		},
		{
			"name": "MI_planks",
			"pbrMetallicRoughness":
			{
				"baseColorTexture":
				{
					"index": 11
				},
				"metallicRoughnessTexture":
				{
					"index": 12
				}
			},
			"normalTexture":
			{
				"index": 13
			},
			"occlusionTexture":
			{
				"index": 14
			}
		}
	],
	"meshes": [
		{
			"name": "SM_roof_support",
			"primitives": [
				{
					"attributes":
					{
						"POSITION": 1,
						"NORMAL": 2,
						"TANGENT": 3,
						"TEXCOORD_0": 4,
						"TEXCOORD_1": 5
					},
					"indices": 0,
					"material": 0
				},
				{
					"attributes":
					{
						"POSITION": 7,
						"NORMAL": 8,
						"TANGENT": 9,
						"TEXCOORD_0": 10,
						"TEXCOORD_1": 11
					},
					"indices": 6,
					"material": 1
				},
				{
					"attributes":
					{
						"POSITION": 13,
						"NORMAL": 14,
						"TANGENT": 15,
						"TEXCOORD_0": 16,
						"TEXCOORD_1": 17
					},
					"indices": 12,
					"material": 2
				},
				{
					"attributes":
					{
						"POSITION": 19,
						"NORMAL": 20,
						"TANGENT": 21,
						"TEXCOORD_0": 22,
						"TEXCOORD_1": 23
					},
					"indices": 18,
					"material": 3
				}
			]
		}
	],
	"nodes": [
		{
			"mesh": 0
		}
	],
	"samplers": [
		{
			"minFilter": 9987,
			"magFilter": 9729
		}
	],
	"scenes": [
		{
			"nodes": [ 0 ]
		}
	],
	"textures": [
		{
			"name": "MI_wood_exterior_BaseColor",
			"sampler": 0,
			"source": 0
		},
		{
			"name": "MI_wood_exterior_MetallicRoughness",
			"sampler": 0,
			"source": 1
		},
		{
			"name": "T_wood_exterior_N",
			"sampler": 0,
			"source": 8
		},
		{
			"name": "MI_wood_exterior_Occlusion",
			"sampler": 0,
			"source": 2
		},
		{
			"name": "MI_metal_base_BaseColor",
			"sampler": 0,
			"source": 3
		},
		{
			"name": "MI_metal_base_MetallicRoughness",
			"sampler": 0,
			"source": 4
		},
		{
			"name": "T_metal_base_N",
			"sampler": 0,
			"source": 9
		},
		{
			"name": "MI_metal_base_Occlusion",
			"sampler": 0,
			"source": 2
		},
		{
			"name": "MI_grating_BaseColor",
			"sampler": 0,
			"source": 5
		},
		{
			"name": "T_grating_ORM_Linear",
			"sampler": 0,
			"source": 10
		},
		{
			"name": "T_grating_N",
			"sampler": 0,
			"source": 11
		},
		{
			"name": "MI_planks_BaseColor",
			"sampler": 0,
			"source": 6
		},
		{
			"name": "MI_planks_MetallicRoughness",
			"sampler": 0,
			"source": 7
		},
		{
			"name": "T_planks_N",
			"sampler": 0,
			"source": 12
		},
		{
			"name": "MI_planks_Occlusion",
			"sampler": 0,
			"source": 2
		}
	]
}