{
	"asset":
	{
		"version": "2.0",
		"generator": "Unreal Engine 5.5.3"
	},
	"scene": 0,
	"accessors": [
		{
			"bufferView": 0,
			"count": 4314,
			"type": "SCALAR",
			"componentType": 5123
		},
		{
			"bufferView": 1,
			"count": 875,
			"type": "VEC3",
			"componentType": 5126,
			"min": [ -0.0900960416, -0.0102944467, -0.0151583357 ],
			"max": [ 0.0901281834, 0.0100016128, 0.0154050142 ]
		},
		{
			"bufferView": 2,
			"count": 875,
			"type": "VEC3",
			"componentType": 5126
		},
		{
			"bufferView": 3,
			"count": 875,
			"type": "VEC4",
			"componentType": 5126
		},
		{
			"bufferView": 4,
			"count": 875,
			"type": "VEC2",
			"componentType": 5126
		}
	],
	"buffers": [
		{
			"uri": "SM_For_Sca_Stick_Set_02_C.bin",
			"byteLength": 50628
		}
	],
	"bufferViews": [
		{
			"buffer": 0,
			"byteLength": 8628,
			"target": 34963
		},
		{
			"buffer": 0,
			"byteLength": 10500,
			"byteOffset": 8628,
			"target": 34962
		},
		{
			"buffer": 0,
			"byteLength": 10500,
			"byteOffset": 19128,
			"target": 34962
		},
		{
			"buffer": 0,
			"byteLength": 14000,
			"byteOffset": 29628,
			"target": 34962
		},
		{
			"buffer": 0,
			"byteLength": 7000,
			"byteOffset": 43628,
			"target": 34962
		}
	],
	"images": [
		{
			"uri": "MI_For_Sca_Stick_Set_02_BaseColor.png"
		},
		{
			"uri": "MI_For_Sca_Stick_Set_02_MetallicRoughness.png"
		},
		{
			"uri": "MI_For_Sca_Stick_Set_02_Normal.png"
		}
	],
	"materials": [
		{
			"name": "MI_For_Sca_Stick_Set_02",
			"pbrMetallicRoughness":
			{
				"baseColorTexture":
				{
					"index": 0
				},
				"metallicRoughnessTexture":
				{
					"index": 1
				}
			},
			"normalTexture":
			{
				"index": 2
			},
			"extensions":
			{
				"KHR_materials_specular":
				{
					"specularFactor": 0.498039246
				}
			}
		}
	],
	"meshes": [
		{
			"name": "SM_For_Sca_Stick_Set_02_C",
			"primitives": [
				{
					"attributes":
					{
						"POSITION": 1,
						"NORMAL": 2,
						"TANGENT": 3,
						"TEXCOORD_0": 4
					},
					"indices": 0,
					"material": 0
				}
			]
		}
	],
	"nodes": [
		{
			"mesh": 0
		}
	],
	"samplers": [
		{
			"minFilter": 9987,
			"magFilter": 9729
		}
	],
	"scenes": [
		{
			"nodes": [ 0 ]
		}
	],
	"textures": [
		{
			"name": "MI_For_Sca_Stick_Set_02_BaseColor",
			"sampler": 0,
			"source": 0
		},
		{
			"name": "MI_For_Sca_Stick_Set_02_MetallicRoughness",
			"sampler": 0,
			"source": 1
		},
		{
			"name": "MI_For_Sca_Stick_Set_02_Normal",
			"sampler": 0,
			"source": 2
		}
	],
	"extensionsUsed": [
		"KHR_materials_specular"
	]
}