{
	"asset":
	{
		"version": "2.0",
		"generator": "Unreal Engine 5.5.3"
	},
	"scene": 0,
	"accessors": [
		{
			"bufferView": 0,
			"count": 276,
			"type": "SCALAR",
			"componentType": 5121
		},
		{
			"bufferView": 1,
			"count": 138,
			"type": "VEC3",
			"componentType": 5126,
			"min": [ -6.24178369e-07, 0.169999972, -5.7022234e-08 ],
			"max": [ 1.69999993, 0.201817095, 1.20000017 ]
		},
		{
			"bufferView": 2,
			"count": 138,
			"type": "VEC3",
			"componentType": 5126
		},
		{
			"bufferView": 3,
			"count": 138,
			"type": "VEC4",
			"componentType": 5126
		},
		{
			"bufferView": 4,
			"count": 138,
			"type": "VEC2",
			"componentType": 5126
		},
		{
			"bufferView": 5,
			"count": 138,
			"type": "VEC2",
			"componentType": 5126
		}
	],
	"buffers": [
		{
			"uri": "SM_floor_e.bin",
			"byteLength": 8004
		}
	],
	"bufferViews": [
		{
			"buffer": 0,
			"byteLength": 276,
			"target": 34963
		},
		{
			"buffer": 0,
			"byteLength": 1656,
			"byteOffset": 276,
			"target": 34962
		},
		{
			"buffer": 0,
			"byteLength": 1656,
			"byteOffset": 1932,
			"target": 34962
		},
		{
			"buffer": 0,
			"byteLength": 2208,
			"byteOffset": 3588,
			"target": 34962
		},
		{
			"buffer": 0,
			"byteLength": 1104,
			"byteOffset": 5796,
			"target": 34962
		},
		{
			"buffer": 0,
			"byteLength": 1104,
			"byteOffset": 6900,
			"target": 34962
		}
	],
	"images": [
		{
			"uri": "MI_parquet_BaseColor.png"
		},
		{
			"uri": "MI_parquet_MetallicRoughness.png"
		},
		{
			"uri": "MI_parquet_Normal.png"
		}
	],
	"materials": [
		{
			"name": "MI_parquet",
			"pbrMetallicRoughness":
			{
				"baseColorTexture":
				{
					"index": 0
				},
				"metallicRoughnessTexture":
				{
					"index": 1
				}
			},
			"normalTexture":
			{
				"index": 2
			}
		}
	],
	"meshes": [
		{
			"name": "SM_floor_e",
			"primitives": [
				{
					"attributes":
					{
						"POSITION": 1,
						"NORMAL": 2,
						"TANGENT": 3,
						"TEXCOORD_0": 4,
						"TEXCOORD_1": 5
					},
					"indices": 0,
					"material": 0
				}
			]
		}
	],
	"nodes": [
		{
			"mesh": 0
		}
	],
	"samplers": [
		{
			"minFilter": 9987,
			"magFilter": 9729
		}
	],
	"scenes": [
		{
			"nodes": [ 0 ]
		}
	],
	"textures": [
		{
			"name": "MI_parquet_BaseColor",
			"sampler": 0,
			"source": 0
		},
		{
			"name": "MI_parquet_MetallicRoughness",
			"sampler": 0,
			"source": 1
		},
		{
			"name": "MI_parquet_Normal",
			"sampler": 0,
			"source": 2
		}
	]
}