{
	"asset":
	{
		"version": "2.0",
		"generator": "Unreal Engine 5.5.3"
	},
	"scene": 0,
	"accessors": [
		{
			"bufferView": 0,
			"count": 2700,
			"type": "SCALAR",
			"componentType": 5123
		},
		{
			"bufferView": 1,
			"count": 581,
			"type": "VEC3",
			"componentType": 5126,
			"min": [ -0.0604309216, -0.0452428721, -0.032732632 ],
			"max": [ 0.0601374246, 0.0452197269, 0.0329219773 ]
		},
		{
			"bufferView": 2,
			"count": 581,
			"type": "VEC3",
			"componentType": 5126
		},
		{
			"bufferView": 3,
			"count": 581,
			"type": "VEC4",
			"componentType": 5126
		},
		{
			"bufferView": 4,
			"count": 581,
			"type": "VEC2",
			"componentType": 5126
		}
	],
	"buffers": [
		{
			"uri": "SM_For_Sca_Rock_Set_01_E.bin",
			"byteLength": 33288
		}
	],
	"bufferViews": [
		{
			"buffer": 0,
			"byteLength": 5400,
			"target": 34963
		},
		{
			"buffer": 0,
			"byteLength": 6972,
			"byteOffset": 5400,
			"target": 34962
		},
		{
			"buffer": 0,
			"byteLength": 6972,
			"byteOffset": 12372,
			"target": 34962
		},
		{
			"buffer": 0,
			"byteLength": 9296,
			"byteOffset": 19344,
			"target": 34962
		},
		{
			"buffer": 0,
			"byteLength": 4648,
			"byteOffset": 28640,
			"target": 34962
		}
	],
	"images": [
		{
			"uri": "MI_For_Sca_Rock_Set_01_BaseColor.png"
		},
		{
			"uri": "MI_For_Sca_Rock_Set_01_MetallicRoughness.png"
		},
		{
			"uri": "MI_For_Sca_Rock_Set_01_Normal.png"
		}
	],
	"materials": [
		{
			"name": "MI_For_Sca_Rock_Set_01",
			"pbrMetallicRoughness":
			{
				"baseColorTexture":
				{
					"index": 0
				},
				"metallicRoughnessTexture":
				{
					"index": 1
				}
			},
			"normalTexture":
			{
				"index": 2
			},
			"extensions":
			{
				"KHR_materials_specular":
				{
					"specularFactor": 0.498039246
				}
			}
		}
	],
	"meshes": [
		{
			"name": "SM_For_Sca_Rock_Set_01_E",
			"primitives": [
				{
					"attributes":
					{
						"POSITION": 1,
						"NORMAL": 2,
						"TANGENT": 3,
						"TEXCOORD_0": 4
					},
					"indices": 0,
					"material": 0
				}
			]
		}
	],
	"nodes": [
		{
			"mesh": 0
		}
	],
	"samplers": [
		{
			"minFilter": 9987,
			"magFilter": 9729
		}
	],
	"scenes": [
		{
			"nodes": [ 0 ]
		}
	],
	"textures": [
		{
			"name": "MI_For_Sca_Rock_Set_01_BaseColor",
			"sampler": 0,
			"source": 0
		},
		{
			"name": "MI_For_Sca_Rock_Set_01_MetallicRoughness",
			"sampler": 0,
			"source": 1
		},
		{
			"name": "MI_For_Sca_Rock_Set_01_Normal",
			"sampler": 0,
			"source": 2
		}
	],
	"extensionsUsed": [
		"KHR_materials_specular"
	]
}