{
	"asset":
	{
		"version": "2.0",
		"generator": "Unreal Engine 5.5.3"
	},
	"scene": 0,
	"accessors": [
		{
			"bufferView": 0,
			"count": 42,
			"type": "SCALAR",
			"componentType": 5121
		},
		{
			"bufferView": 1,
			"count": 24,
			"type": "VEC3",
			"componentType": 5126,
			"min": [ -0.000540852314, 0.153312236, 0.199999645 ],
			"max": [ 11.9994593, 2.04830003, 11.8000002 ]
		},
		{
			"bufferView": 2,
			"count": 24,
			"type": "VEC3",
			"componentType": 5126
		},
		{
			"bufferView": 3,
			"count": 24,
			"type": "VEC4",
			"componentType": 5126
		},
		{
			"bufferView": 4,
			"count": 24,
			"type": "VEC2",
			"componentType": 5126
		},
		{
			"bufferView": 5,
			"count": 24,
			"type": "VEC2",
			"componentType": 5126
		},
		{
			"bufferView": 6,
			"count": 234,
			"type": "SCALAR",
			"componentType": 5121
		},
		{
			"bufferView": 7,
			"count": 155,
			"type": "VEC3",
			"componentType": 5126,
			"min": [ -0.0505408458, 0.106312245, 0.199999958 ],
			"max": [ 12.0494585, 0.157216728, 11.8000002 ]
		},
		{
			"bufferView": 8,
			"count": 155,
			"type": "VEC3",
			"componentType": 5126
		},
		{
			"bufferView": 9,
			"count": 155,
			"type": "VEC4",
			"componentType": 5126
		},
		{
			"bufferView": 10,
			"count": 155,
			"type": "VEC2",
			"componentType": 5126
		},
		{
			"bufferView": 11,
			"count": 155,
			"type": "VEC2",
			"componentType": 5126
		}
	],
	"buffers": [
		{
			"uri": "SM_roof.bin",
			"byteLength": 10304
		}
	],
	"bufferViews": [
		{
			"buffer": 0,
			"byteLength": 42,
			"target": 34963
		},
		{
			"buffer": 0,
			"byteLength": 288,
			"byteOffset": 44,
			"target": 34962
		},
		{
			"buffer": 0,
			"byteLength": 288,
			"byteOffset": 332,
			"target": 34962
		},
		{
			"buffer": 0,
			"byteLength": 384,
			"byteOffset": 620,
			"target": 34962
		},
		{
			"buffer": 0,
			"byteLength": 192,
			"byteOffset": 1004,
			"target": 34962
		},
		{
			"buffer": 0,
			"byteLength": 192,
			"byteOffset": 1196,
			"target": 34962
		},
		{
			"buffer": 0,
			"byteLength": 234,
			"byteOffset": 1388,
			"target": 34963
		},
		{
			"buffer": 0,
			"byteLength": 1860,
			"byteOffset": 1624,
			"target": 34962
		},
		{
			"buffer": 0,
			"byteLength": 1860,
			"byteOffset": 3484,
			"target": 34962
		},
		{
			"buffer": 0,
			"byteLength": 2480,
			"byteOffset": 5344,
			"target": 34962
		},
		{
			"buffer": 0,
			"byteLength": 1240,
			"byteOffset": 7824,
			"target": 34962
		},
		{
			"buffer": 0,
			"byteLength": 1240,
			"byteOffset": 9064,
			"target": 34962
		}
	],
	"images": [
		{
			"uri": "MI_shingles_BaseColor.png"
		},
		{
			"uri": "MI_shingles_MetallicRoughness.png"
		},
		{
			"uri": "MI_shingles_Occlusion.png"
		},
		{
			"uri": "MI_planks_BaseColor.png"
		},
		{
			"uri": "MI_planks_MetallicRoughness.png"
		},
		{
			"uri": "MI_planks_Occlusion.png"
		},
		{
			"uri": "T_shingles_N.png"
		},
		{
			"uri": "T_planks_N.png"
		}
	],
	"materials": [
		{
			"name": "MI_shingles",
			"pbrMetallicRoughness":
			{
				"baseColorTexture":
				{
					"index": 0
				},
				"metallicRoughnessTexture":
				{
					"index": 1
				}
			},
			"normalTexture":
			{
				"index": 2
			},
			"occlusionTexture":
			{
				"index": 3
			}
		},
		{
			"name": "MI_planks",
			"pbrMetallicRoughness":
			{
				"baseColorTexture":
				{
					"index": 4
				},
				"metallicRoughnessTexture":
				{
					"index": 5
				}
			},
			"normalTexture":
			{
				"index": 6
			},
			"occlusionTexture":
			{
				"index": 7
			}
		}
	],
	"meshes": [
		{
			"name": "SM_roof",
			"primitives": [
				{
					"attributes":
					{
						"POSITION": 1,
						"NORMAL": 2,
						"TANGENT": 3,
						"TEXCOORD_0": 4,
						"TEXCOORD_1": 5
					},
					"indices": 0,
					"material": 0
				},
				{
					"attributes":
					{
						"POSITION": 7,
						"NORMAL": 8,
						"TANGENT": 9,
						"TEXCOORD_0": 10,
						"TEXCOORD_1": 11
					},
					"indices": 6,
					"material": 1
				}
			]
		}
	],
	"nodes": [
		{
			"mesh": 0
		}
	],
	"samplers": [
		{
			"minFilter": 9987,
			"magFilter": 9729
		}
	],
	"scenes": [
		{
			"nodes": [ 0 ]
		}
	],
	"textures": [
		{
			"name": "MI_shingles_BaseColor",
			"sampler": 0,
			"source": 0
		},
		{
			"name": "MI_shingles_MetallicRoughness",
			"sampler": 0,
			"source": 1
		},
		{
			"name": "T_shingles_N",
			"sampler": 0,
			"source": 6
		},
		{
			"name": "MI_shingles_Occlusion",
			"sampler": 0,
			"source": 2
		},
		{
			"name": "MI_planks_BaseColor",
			"sampler": 0,
			"source": 3
		},
		{
			"name": "MI_planks_MetallicRoughness",
			"sampler": 0,
			"source": 4
		},
		{
			"name": "T_planks_N",
			"sampler": 0,
			"source": 7
		},
		{
			"name": "MI_planks_Occlusion",
			"sampler": 0,
			"source": 5
		}
	]
}