{
	"asset":
	{
		"version": "2.0",
		"generator": "Unreal Engine 5.5.3"
	},
	"scene": 0,
	"accessors": [
		{
			"bufferView": 0,
			"count": 11529,
			"type": "SCALAR",
			"componentType": 5123
		},
		{
			"bufferView": 1,
			"count": 2016,
			"type": "VEC3",
			"componentType": 5126,
			"min": [ 0.016212821, 0.00121382589, -2.98789358 ],
			"max": [ 2.58122396, 1.67059493, 0.00349936099 ]
		},
		{
			"bufferView": 2,
			"count": 2016,
			"type": "VEC3",
			"componentType": 5126
		},
		{
			"bufferView": 3,
			"count": 2016,
			"type": "VEC4",
			"componentType": 5126
		},
		{
			"bufferView": 4,
			"count": 2016,
			"type": "VEC2",
			"componentType": 5126
		},
		{
			"bufferView": 5,
			"count": 2016,
			"type": "VEC2",
			"componentType": 5126
		},
		{
			"bufferView": 6,
			"count": 2016,
			"type": "VEC2",
			"componentType": 5126
		}
	],
	"buffers": [
		{
			"uri": "SM_cloth_shelter_a.bin",
			"byteLength": 152084
		}
	],
	"bufferViews": [
		{
			"buffer": 0,
			"byteLength": 23058,
			"target": 34963
		},
		{
			"buffer": 0,
			"byteLength": 24192,
			"byteOffset": 23060,
			"target": 34962
		},
		{
			"buffer": 0,
			"byteLength": 24192,
			"byteOffset": 47252,
			"target": 34962
		},
		{
			"buffer": 0,
			"byteLength": 32256,
			"byteOffset": 71444,
			"target": 34962
		},
		{
			"buffer": 0,
			"byteLength": 16128,
			"byteOffset": 103700,
			"target": 34962
		},
		{
			"buffer": 0,
			"byteLength": 16128,
			"byteOffset": 119828,
			"target": 34962
		},
		{
			"buffer": 0,
			"byteLength": 16128,
			"byteOffset": 135956,
			"target": 34962
		}
	],
	"images": [
		{
			"uri": "MI_tarp_Occlusion.png"
		},
		{
			"uri": "T_tarp_ORM.png"
		},
		{
			"uri": "T_tarp_N.png"
		}
	],
	"materials": [
		{
			"name": "MI_tarp",
			"pbrMetallicRoughness":
			{
				"metallicRoughnessTexture":
				{
					"index": 0,
					"texCoord": 2
				}
			},
			"normalTexture":
			{
				"index": 1,
				"texCoord": 2
			},
			"occlusionTexture":
			{
				"index": 2,
				"texCoord": 2
			},
			"alphaMode": "MASK",
			"alphaCutoff": 0.333299994,
			"doubleSided": true
		}
	],
	"meshes": [
		{
			"name": "SM_cloth_shelter_a",
			"primitives": [
				{
					"attributes":
					{
						"POSITION": 1,
						"NORMAL": 2,
						"TANGENT": 3,
						"TEXCOORD_0": 4,
						"TEXCOORD_1": 5,
						"TEXCOORD_2": 6
					},
					"indices": 0,
					"material": 0
				}
			]
		}
	],
	"nodes": [
		{
			"mesh": 0
		}
	],
	"samplers": [
		{
			"minFilter": 9987,
			"magFilter": 9729
		}
	],
	"scenes": [
		{
			"nodes": [ 0 ]
		}
	],
	"textures": [
		{
			"name": "T_tarp_ORM",
			"sampler": 0,
			"source": 1
		},
		{
			"name": "T_tarp_N",
			"sampler": 0,
			"source": 2
		},
		{
			"name": "MI_tarp_Occlusion",
			"sampler": 0,
			"source": 0
		}
	]
}