{
	"asset":
	{
		"version": "2.0",
		"generator": "Unreal Engine 5.5.3"
	},
	"scene": 0,
	"accessors": [
		{
			"bufferView": 0,
			"count": 6,
			"type": "SCALAR",
			"componentType": 5121
		},
		{
			"bufferView": 1,
			"count": 4,
			"type": "VEC3",
			"componentType": 5126,
			"min": [ 0.896418691, 1.85011959, 0.0499996208 ],
			"max": [ 2.10358143, 2.34987974, 0.0499996953 ]
		},
		{
			"bufferView": 2,
			"count": 4,
			"type": "VEC3",
			"componentType": 5126
		},
		{
			"bufferView": 3,
			"count": 4,
			"type": "VEC4",
			"componentType": 5126
		},
		{
			"bufferView": 4,
			"count": 4,
			"type": "VEC2",
			"componentType": 5126
		},
		{
			"bufferView": 5,
			"count": 4,
			"type": "VEC2",
			"componentType": 5126
		},
		{
			"bufferView": 6,
			"count": 96,
			"type": "SCALAR",
			"componentType": 5121
		},
		{
			"bufferView": 7,
			"count": 64,
			"type": "VEC3",
			"componentType": 5126,
			"min": [ 0.845999956, 1.79999995, 0.0295112412 ],
			"max": [ 2.15400004, 2.39999986, 0.0704878494 ]
		},
		{
			"bufferView": 8,
			"count": 64,
			"type": "VEC3",
			"componentType": 5126
		},
		{
			"bufferView": 9,
			"count": 64,
			"type": "VEC4",
			"componentType": 5126
		},
		{
			"bufferView": 10,
			"count": 64,
			"type": "VEC2",
			"componentType": 5126
		},
		{
			"bufferView": 11,
			"count": 64,
			"type": "VEC2",
			"componentType": 5126
		}
	],
	"buffers": [
		{
			"uri": "SM_window_02.bin",
			"byteLength": 3912
		}
	],
	"bufferViews": [
		{
			"buffer": 0,
			"byteLength": 6,
			"target": 34963
		},
		{
			"buffer": 0,
			"byteLength": 48,
			"byteOffset": 8,
			"target": 34962
		},
		{
			"buffer": 0,
			"byteLength": 48,
			"byteOffset": 56,
			"target": 34962
		},
		{
			"buffer": 0,
			"byteLength": 64,
			"byteOffset": 104,
			"target": 34962
		},
		{
			"buffer": 0,
			"byteLength": 32,
			"byteOffset": 168,
			"target": 34962
		},
		{
			"buffer": 0,
			"byteLength": 32,
			"byteOffset": 200,
			"target": 34962
		},
		{
			"buffer": 0,
			"byteLength": 96,
			"byteOffset": 232,
			"target": 34963
		},
		{
			"buffer": 0,
			"byteLength": 768,
			"byteOffset": 328,
			"target": 34962
		},
		{
			"buffer": 0,
			"byteLength": 768,
			"byteOffset": 1096,
			"target": 34962
		},
		{
			"buffer": 0,
			"byteLength": 1024,
			"byteOffset": 1864,
			"target": 34962
		},
		{
			"buffer": 0,
			"byteLength": 512,
			"byteOffset": 2888,
			"target": 34962
		},
		{
			"buffer": 0,
			"byteLength": 512,
			"byteOffset": 3400,
			"target": 34962
		}
	],
	"images": [
		{
			"uri": "MI_glass_MetallicRoughness.png"
		},
		{
			"uri": "MI_wood_exterior_BaseColor.png"
		},
		{
			"uri": "MI_wood_exterior_MetallicRoughness.png"
		},
		{
			"uri": "MI_wood_exterior_Occlusion.png"
		},
		{
			"uri": "T_wood_exterior_N.png"
		}
	],
	"materials": [
		{
			"name": "MI_glass",
			"pbrMetallicRoughness":
			{
				"baseColorFactor": [ 0.603827357, 0.846873224, 0.973445296, 0.200000018 ],
				"metallicRoughnessTexture":
				{
					"index": 0
				}
			},
			"alphaMode": "BLEND",
			"doubleSided": true,
			"extensions":
			{
				"KHR_materials_ior":
				{
					"ior": 1
				}
			}
		},
		{
			"name": "MI_wood_exterior",
			"pbrMetallicRoughness":
			{
				"baseColorTexture":
				{
					"index": 1
				},
				"metallicRoughnessTexture":
				{
					"index": 2
				}
			},
			"normalTexture":
			{
				"index": 3
			},
			"occlusionTexture":
			{
				"index": 4
			}
		}
	],
	"meshes": [
		{
			"name": "SM_window_02",
			"primitives": [
				{
					"attributes":
					{
						"POSITION": 1,
						"NORMAL": 2,
						"TANGENT": 3,
						"TEXCOORD_0": 4,
						"TEXCOORD_1": 5
					},
					"indices": 0,
					"material": 0
				},
				{
					"attributes":
					{
						"POSITION": 7,
						"NORMAL": 8,
						"TANGENT": 9,
						"TEXCOORD_0": 10,
						"TEXCOORD_1": 11
					},
					"indices": 6,
					"material": 1
				}
			]
		}
	],
	"nodes": [
		{
			"mesh": 0
		}
	],
	"samplers": [
		{
			"minFilter": 9987,
			"magFilter": 9729
		}
	],
	"scenes": [
		{
			"nodes": [ 0 ]
		}
	],
	"textures": [
		{
			"name": "MI_glass_MetallicRoughness",
			"sampler": 0,
			"source": 0
		},
		{
			"name": "MI_wood_exterior_BaseColor",
			"sampler": 0,
			"source": 1
		},
		{
			"name": "MI_wood_exterior_MetallicRoughness",
			"sampler": 0,
			"source": 2
		},
		{
			"name": "T_wood_exterior_N",
			"sampler": 0,
			"source": 4
		},
		{
			"name": "MI_wood_exterior_Occlusion",
			"sampler": 0,
			"source": 3
		}
	],
	"extensionsUsed": [
		"KHR_materials_ior"
	]
}