{
	"asset":
	{
		"version": "2.0",
		"generator": "Unreal Engine 5.5.3"
	},
	"scene": 0,
	"accessors": [
		{
			"bufferView": 0,
			"count": 11124,
			"type": "SCALAR",
			"componentType": 5123
		},
		{
			"bufferView": 1,
			"count": 3377,
			"type": "VEC3",
			"componentType": 5126,
			"min": [ 0, -0.000556800922, -1.63827814e-08 ],
			"max": [ 0.5, 0.159443572, 2.5 ]
		},
		{
			"bufferView": 2,
			"count": 3377,
			"type": "VEC3",
			"componentType": 5126
		},
		{
			"bufferView": 3,
			"count": 3377,
			"type": "VEC4",
			"componentType": 5126
		},
		{
			"bufferView": 4,
			"count": 3377,
			"type": "VEC2",
			"componentType": 5126
		},
		{
			"bufferView": 5,
			"count": 3377,
			"type": "VEC2",
			"componentType": 5126
		}
	],
	"buffers": [
		{
			"uri": "SM_hotel_sign.bin",
			"byteLength": 211360
		}
	],
	"bufferViews": [
		{
			"buffer": 0,
			"byteLength": 22248,
			"target": 34963
		},
		{
			"buffer": 0,
			"byteLength": 40524,
			"byteOffset": 22248,
			"target": 34962
		},
		{
			"buffer": 0,
			"byteLength": 40524,
			"byteOffset": 62772,
			"target": 34962
		},
		{
			"buffer": 0,
			"byteLength": 54032,
			"byteOffset": 103296,
			"target": 34962
		},
		{
			"buffer": 0,
			"byteLength": 27016,
			"byteOffset": 157328,
			"target": 34962
		},
		{
			"buffer": 0,
			"byteLength": 27016,
			"byteOffset": 184344,
			"target": 34962
		}
	],
	"images": [
		{
			"uri": "MI_hotel_sign_BaseColor.png"
		},
		{
			"uri": "MI_hotel_sign_MetallicRoughness.png"
		},
		{
			"uri": "MI_hotel_sign_Occlusion.png"
		},
		{
			"uri": "T_hotel_sign_N.png"
		}
	],
	"materials": [
		{
			"name": "MI_hotel_sign",
			"pbrMetallicRoughness":
			{
				"baseColorTexture":
				{
					"index": 0
				},
				"metallicRoughnessTexture":
				{
					"index": 1
				}
			},
			"normalTexture":
			{
				"index": 2
			},
			"occlusionTexture":
			{
				"index": 3
			}
		}
	],
	"meshes": [
		{
			"name": "SM_hotel_sign",
			"primitives": [
				{
					"attributes":
					{
						"POSITION": 1,
						"NORMAL": 2,
						"TANGENT": 3,
						"TEXCOORD_0": 4,
						"TEXCOORD_1": 5
					},
					"indices": 0,
					"material": 0
				}
			]
		}
	],
	"nodes": [
		{
			"mesh": 0
		}
	],
	"samplers": [
		{
			"minFilter": 9987,
			"magFilter": 9729
		}
	],
	"scenes": [
		{
			"nodes": [ 0 ]
		}
	],
	"textures": [
		{
			"name": "MI_hotel_sign_BaseColor",
			"sampler": 0,
			"source": 0
		},
		{
			"name": "MI_hotel_sign_MetallicRoughness",
			"sampler": 0,
			"source": 1
		},
		{
			"name": "T_hotel_sign_N",
			"sampler": 0,
			"source": 3
		},
		{
			"name": "MI_hotel_sign_Occlusion",
			"sampler": 0,
			"source": 2
		}
	]
}