{
	"asset":
	{
		"version": "2.0",
		"generator": "Unreal Engine 5.5.3"
	},
	"scene": 0,
	"accessors": [
		{
			"bufferView": 0,
			"count": 7440,
			"type": "SCALAR",
			"componentType": 5123
		},
		{
			"bufferView": 1,
			"count": 1312,
			"type": "VEC3",
			"componentType": 5126,
			"min": [ -0.0223120451, 0.00489121443, -2.07908511 ],
			"max": [ 1.54709649, 1.3651861, -0.0104433 ]
		},
		{
			"bufferView": 2,
			"count": 1312,
			"type": "VEC3",
			"componentType": 5126
		},
		{
			"bufferView": 3,
			"count": 1312,
			"type": "VEC4",
			"componentType": 5126
		},
		{
			"bufferView": 4,
			"count": 1312,
			"type": "VEC2",
			"componentType": 5126
		},
		{
			"bufferView": 5,
			"count": 1312,
			"type": "VEC2",
			"componentType": 5126
		},
		{
			"bufferView": 6,
			"count": 1312,
			"type": "VEC2",
			"componentType": 5126
		}
	],
	"buffers": [
		{
			"uri": "SM_cloth_shelter_b.bin",
			"byteLength": 98848
		}
	],
	"bufferViews": [
		{
			"buffer": 0,
			"byteLength": 14880,
			"target": 34963
		},
		{
			"buffer": 0,
			"byteLength": 15744,
			"byteOffset": 14880,
			"target": 34962
		},
		{
			"buffer": 0,
			"byteLength": 15744,
			"byteOffset": 30624,
			"target": 34962
		},
		{
			"buffer": 0,
			"byteLength": 20992,
			"byteOffset": 46368,
			"target": 34962
		},
		{
			"buffer": 0,
			"byteLength": 10496,
			"byteOffset": 67360,
			"target": 34962
		},
		{
			"buffer": 0,
			"byteLength": 10496,
			"byteOffset": 77856,
			"target": 34962
		},
		{
			"buffer": 0,
			"byteLength": 10496,
			"byteOffset": 88352,
			"target": 34962
		}
	],
	"images": [
		{
			"uri": "MI_tarp_Occlusion.png"
		},
		{
			"uri": "T_tarp_ORM.png"
		},
		{
			"uri": "T_tarp_N.png"
		}
	],
	"materials": [
		{
			"name": "MI_tarp",
			"pbrMetallicRoughness":
			{
				"metallicRoughnessTexture":
				{
					"index": 0,
					"texCoord": 2
				}
			},
			"normalTexture":
			{
				"index": 1,
				"texCoord": 2
			},
			"occlusionTexture":
			{
				"index": 2,
				"texCoord": 2
			},
			"alphaMode": "MASK",
			"alphaCutoff": 0.333299994,
			"doubleSided": true
		}
	],
	"meshes": [
		{
			"name": "SM_cloth_shelter_b",
			"primitives": [
				{
					"attributes":
					{
						"POSITION": 1,
						"NORMAL": 2,
						"TANGENT": 3,
						"TEXCOORD_0": 4,
						"TEXCOORD_1": 5,
						"TEXCOORD_2": 6
					},
					"indices": 0,
					"material": 0
				}
			]
		}
	],
	"nodes": [
		{
			"mesh": 0
		}
	],
	"samplers": [
		{
			"minFilter": 9987,
			"magFilter": 9729
		}
	],
	"scenes": [
		{
			"nodes": [ 0 ]
		}
	],
	"textures": [
		{
			"name": "T_tarp_ORM",
			"sampler": 0,
			"source": 1
		},
		{
			"name": "T_tarp_N",
			"sampler": 0,
			"source": 2
		},
		{
			"name": "MI_tarp_Occlusion",
			"sampler": 0,
			"source": 0
		}
	]
}