{
	"asset":
	{
		"version": "2.0",
		"generator": "Unreal Engine 5.5.3"
	},
	"scene": 0,
	"accessors": [
		{
			"bufferView": 0,
			"count": 34566,
			"type": "SCALAR",
			"componentType": 5123
		},
		{
			"bufferView": 1,
			"count": 7407,
			"type": "VEC3",
			"componentType": 5126,
			"min": [ -0.7520082, -0.00367175415, -0.502488613 ],
			"max": [ 0.748140156, 1.03678393, 0.512729585 ]
		},
		{
			"bufferView": 2,
			"count": 7407,
			"type": "VEC3",
			"componentType": 5126
		},
		{
			"bufferView": 3,
			"count": 7407,
			"type": "VEC4",
			"componentType": 5126
		},
		{
			"bufferView": 4,
			"count": 7407,
			"type": "VEC2",
			"componentType": 5126
		}
	],
	"buffers": [
		{
			"uri": "SM_Ind_Jun_Storage_Pallet_Wood_Trap_01.bin",
			"byteLength": 424668
		}
	],
	"bufferViews": [
		{
			"buffer": 0,
			"byteLength": 69132,
			"target": 34963
		},
		{
			"buffer": 0,
			"byteLength": 88884,
			"byteOffset": 69132,
			"target": 34962
		},
		{
			"buffer": 0,
			"byteLength": 88884,
			"byteOffset": 158016,
			"target": 34962
		},
		{
			"buffer": 0,
			"byteLength": 118512,
			"byteOffset": 246900,
			"target": 34962
		},
		{
			"buffer": 0,
			"byteLength": 59256,
			"byteOffset": 365412,
			"target": 34962
		}
	],
	"images": [
		{
			"uri": "MI_Ind_Jun_Storage_Pallet_Wood_Trap_01_BaseColor.png"
		},
		{
			"uri": "MI_Ind_Jun_Storage_Pallet_Wood_Trap_01_MetallicRoughness.png"
		},
		{
			"uri": "MI_Ind_Jun_Storage_Pallet_Wood_Trap_01_Normal.png"
		}
	],
	"materials": [
		{
			"name": "MI_Ind_Jun_Storage_Pallet_Wood_Trap_01",
			"pbrMetallicRoughness":
			{
				"baseColorTexture":
				{
					"index": 0
				},
				"metallicRoughnessTexture":
				{
					"index": 1
				}
			},
			"normalTexture":
			{
				"index": 2
			},
			"extensions":
			{
				"KHR_materials_specular":
				{
					"specularFactor": 0.498039246
				}
			}
		}
	],
	"meshes": [
		{
			"name": "SM_Ind_Jun_Storage_Pallet_Wood_Trap_01",
			"primitives": [
				{
					"attributes":
					{
						"POSITION": 1,
						"NORMAL": 2,
						"TANGENT": 3,
						"TEXCOORD_0": 4
					},
					"indices": 0,
					"material": 0
				}
			]
		}
	],
	"nodes": [
		{
			"mesh": 0
		}
	],
	"samplers": [
		{
			"minFilter": 9987,
			"magFilter": 9729
		}
	],
	"scenes": [
		{
			"nodes": [ 0 ]
		}
	],
	"textures": [
		{
			"name": "MI_Ind_Jun_Storage_Pallet_Wood_Trap_01_BaseColor",
			"sampler": 0,
			"source": 0
		},
		{
			"name": "MI_Ind_Jun_Storage_Pallet_Wood_Trap_01_MetallicRoughness",
			"sampler": 0,
			"source": 1
		},
		{
			"name": "MI_Ind_Jun_Storage_Pallet_Wood_Trap_01_Normal",
			"sampler": 0,
			"source": 2
		}
	],
	"extensionsUsed": [
		"KHR_materials_specular"
	]
}