{
	"asset":
	{
		"version": "2.0",
		"generator": "Unreal Engine 5.5.3"
	},
	"scene": 0,
	"accessors": [
		{
			"bufferView": 0,
			"count": 19848,
			"type": "SCALAR",
			"componentType": 5123
		},
		{
			"bufferView": 1,
			"count": 4300,
			"type": "VEC3",
			"componentType": 5126,
			"min": [ -0.0628824085, -0.0189915467, -0.0631685555 ],
			"max": [ 0.0629703179, 0.01942119, 0.0628345609 ]
		},
		{
			"bufferView": 2,
			"count": 4300,
			"type": "VEC3",
			"componentType": 5126
		},
		{
			"bufferView": 3,
			"count": 4300,
			"type": "VEC4",
			"componentType": 5126
		},
		{
			"bufferView": 4,
			"count": 4300,
			"type": "VEC2",
			"componentType": 5126
		}
	],
	"buffers": [
		{
			"uri": "SM_Ind_Jun_Gear_Metal_Rusty_02.bin",
			"byteLength": 246096
		}
	],
	"bufferViews": [
		{
			"buffer": 0,
			"byteLength": 39696,
			"target": 34963
		},
		{
			"buffer": 0,
			"byteLength": 51600,
			"byteOffset": 39696,
			"target": 34962
		},
		{
			"buffer": 0,
			"byteLength": 51600,
			"byteOffset": 91296,
			"target": 34962
		},
		{
			"buffer": 0,
			"byteLength": 68800,
			"byteOffset": 142896,
			"target": 34962
		},
		{
			"buffer": 0,
			"byteLength": 34400,
			"byteOffset": 211696,
			"target": 34962
		}
	],
	"images": [
		{
			"uri": "MI_Ind_Jun_Gear_Metal_Rusty_02_BaseColor.png"
		},
		{
			"uri": "MI_Ind_Jun_Gear_Metal_Rusty_02_MetallicRoughness.png"
		},
		{
			"uri": "MI_Ind_Jun_Gear_Metal_Rusty_02_Normal.png"
		}
	],
	"materials": [
		{
			"name": "MI_Ind_Jun_Gear_Metal_Rusty_02",
			"pbrMetallicRoughness":
			{
				"baseColorTexture":
				{
					"index": 0
				},
				"metallicRoughnessTexture":
				{
					"index": 1
				}
			},
			"normalTexture":
			{
				"index": 2
			},
			"extensions":
			{
				"KHR_materials_specular":
				{
					"specularFactor": 0.498039246
				}
			}
		}
	],
	"meshes": [
		{
			"name": "SM_Ind_Jun_Gear_Metal_Rusty_02",
			"primitives": [
				{
					"attributes":
					{
						"POSITION": 1,
						"NORMAL": 2,
						"TANGENT": 3,
						"TEXCOORD_0": 4
					},
					"indices": 0,
					"material": 0
				}
			]
		}
	],
	"nodes": [
		{
			"mesh": 0
		}
	],
	"samplers": [
		{
			"minFilter": 9987,
			"magFilter": 9729
		}
	],
	"scenes": [
		{
			"nodes": [ 0 ]
		}
	],
	"textures": [
		{
			"name": "MI_Ind_Jun_Gear_Metal_Rusty_02_BaseColor",
			"sampler": 0,
			"source": 0
		},
		{
			"name": "MI_Ind_Jun_Gear_Metal_Rusty_02_MetallicRoughness",
			"sampler": 0,
			"source": 1
		},
		{
			"name": "MI_Ind_Jun_Gear_Metal_Rusty_02_Normal",
			"sampler": 0,
			"source": 2
		}
	],
	"extensionsUsed": [
		"KHR_materials_specular"
	]
}