{
	"asset":
	{
		"version": "2.0",
		"generator": "Unreal Engine 5.5.3"
	},
	"scene": 0,
	"accessors": [
		{
			"bufferView": 0,
			"count": 2094,
			"type": "SCALAR",
			"componentType": 5123
		},
		{
			"bufferView": 1,
			"count": 1393,
			"type": "VEC3",
			"componentType": 5126,
			"min": [ 0, 8.14603329e-10, -0.00248728762 ],
			"max": [ 3, 0.99942559, 0.0803170875 ]
		},
		{
			"bufferView": 2,
			"count": 1393,
			"type": "VEC3",
			"componentType": 5126
		},
		{
			"bufferView": 3,
			"count": 1393,
			"type": "VEC4",
			"componentType": 5126
		},
		{
			"bufferView": 4,
			"count": 1393,
			"type": "VEC2",
			"componentType": 5126
		},
		{
			"bufferView": 5,
			"count": 1393,
			"type": "VEC2",
			"componentType": 5126
		}
	],
	"buffers": [
		{
			"uri": "SM_railing.bin",
			"byteLength": 82196
		}
	],
	"bufferViews": [
		{
			"buffer": 0,
			"byteLength": 4188,
			"target": 34963
		},
		{
			"buffer": 0,
			"byteLength": 16716,
			"byteOffset": 4188,
			"target": 34962
		},
		{
			"buffer": 0,
			"byteLength": 16716,
			"byteOffset": 20904,
			"target": 34962
		},
		{
			"buffer": 0,
			"byteLength": 22288,
			"byteOffset": 37620,
			"target": 34962
		},
		{
			"buffer": 0,
			"byteLength": 11144,
			"byteOffset": 59908,
			"target": 34962
		},
		{
			"buffer": 0,
			"byteLength": 11144,
			"byteOffset": 71052,
			"target": 34962
		}
	],
	"images": [
		{
			"uri": "MI_railing_BaseColor.png"
		},
		{
			"uri": "MI_railing_MetallicRoughness.png"
		},
		{
			"uri": "MI_railing_Occlusion.png"
		},
		{
			"uri": "T_railing_N.png"
		}
	],
	"materials": [
		{
			"name": "MI_railing",
			"pbrMetallicRoughness":
			{
				"baseColorTexture":
				{
					"index": 0
				},
				"metallicRoughnessTexture":
				{
					"index": 1
				}
			},
			"normalTexture":
			{
				"index": 2
			},
			"occlusionTexture":
			{
				"index": 3
			}
		}
	],
	"meshes": [
		{
			"name": "SM_railing",
			"primitives": [
				{
					"attributes":
					{
						"POSITION": 1,
						"NORMAL": 2,
						"TANGENT": 3,
						"TEXCOORD_0": 4,
						"TEXCOORD_1": 5
					},
					"indices": 0,
					"material": 0
				}
			]
		}
	],
	"nodes": [
		{
			"mesh": 0
		}
	],
	"samplers": [
		{
			"minFilter": 9987,
			"magFilter": 9729
		}
	],
	"scenes": [
		{
			"nodes": [ 0 ]
		}
	],
	"textures": [
		{
			"name": "MI_railing_BaseColor",
			"sampler": 0,
			"source": 0
		},
		{
			"name": "MI_railing_MetallicRoughness",
			"sampler": 0,
			"source": 1
		},
		{
			"name": "T_railing_N",
			"sampler": 0,
			"source": 3
		},
		{
			"name": "MI_railing_Occlusion",
			"sampler": 0,
			"source": 2
		}
	]
}