{
	"asset":
	{
		"version": "2.0",
		"generator": "Unreal Engine 5.5.3"
	},
	"scene": 0,
	"accessors": [
		{
			"bufferView": 0,
			"count": 4596,
			"type": "SCALAR",
			"componentType": 5123
		},
		{
			"bufferView": 1,
			"count": 1147,
			"type": "VEC3",
			"componentType": 5126,
			"min": [ -0.489114165, -0.0503261946, -0.0836733431 ],
			"max": [ 0.489331335, 0.0472205728, 0.180854008 ]
		},
		{
			"bufferView": 2,
			"count": 1147,
			"type": "VEC3",
			"componentType": 5126
		},
		{
			"bufferView": 3,
			"count": 1147,
			"type": "VEC4",
			"componentType": 5126
		},
		{
			"bufferView": 4,
			"count": 1147,
			"type": "VEC2",
			"componentType": 5126
		}
	],
	"buffers": [
		{
			"uri": "SM_Ind_Jun_Exhaust_Metal_Rusty_06.bin",
			"byteLength": 64248
		}
	],
	"bufferViews": [
		{
			"buffer": 0,
			"byteLength": 9192,
			"target": 34963
		},
		{
			"buffer": 0,
			"byteLength": 13764,
			"byteOffset": 9192,
			"target": 34962
		},
		{
			"buffer": 0,
			"byteLength": 13764,
			"byteOffset": 22956,
			"target": 34962
		},
		{
			"buffer": 0,
			"byteLength": 18352,
			"byteOffset": 36720,
			"target": 34962
		},
		{
			"buffer": 0,
			"byteLength": 9176,
			"byteOffset": 55072,
			"target": 34962
		}
	],
	"images": [
		{
			"uri": "MI_Ind_Jun_Exhaust_Metal_Rusty_06_BaseColor.png"
		},
		{
			"uri": "MI_Ind_Jun_Exhaust_Metal_Rusty_06_MetallicRoughness.png"
		},
		{
			"uri": "MI_Ind_Jun_Exhaust_Metal_Rusty_06_Normal.png"
		}
	],
	"materials": [
		{
			"name": "MI_Ind_Jun_Exhaust_Metal_Rusty_06",
			"pbrMetallicRoughness":
			{
				"baseColorTexture":
				{
					"index": 0
				},
				"metallicRoughnessTexture":
				{
					"index": 1
				}
			},
			"normalTexture":
			{
				"index": 2
			},
			"extensions":
			{
				"KHR_materials_specular":
				{
					"specularFactor": 0.498039246
				}
			}
		}
	],
	"meshes": [
		{
			"name": "SM_Ind_Jun_Exhaust_Metal_Rusty_06",
			"primitives": [
				{
					"attributes":
					{
						"POSITION": 1,
						"NORMAL": 2,
						"TANGENT": 3,
						"TEXCOORD_0": 4
					},
					"indices": 0,
					"material": 0
				}
			]
		}
	],
	"nodes": [
		{
			"mesh": 0
		}
	],
	"samplers": [
		{
			"minFilter": 9987,
			"magFilter": 9729
		}
	],
	"scenes": [
		{
			"nodes": [ 0 ]
		}
	],
	"textures": [
		{
			"name": "MI_Ind_Jun_Exhaust_Metal_Rusty_06_BaseColor",
			"sampler": 0,
			"source": 0
		},
		{
			"name": "MI_Ind_Jun_Exhaust_Metal_Rusty_06_MetallicRoughness",
			"sampler": 0,
			"source": 1
		},
		{
			"name": "MI_Ind_Jun_Exhaust_Metal_Rusty_06_Normal",
			"sampler": 0,
			"source": 2
		}
	],
	"extensionsUsed": [
		"KHR_materials_specular"
	]
}