{
	"asset":
	{
		"version": "2.0",
		"generator": "Unreal Engine 5.5.3"
	},
	"scene": 0,
	"accessors": [
		{
			"bufferView": 0,
			"count": 12342,
			"type": "SCALAR",
			"componentType": 5123
		},
		{
			"bufferView": 1,
			"count": 2880,
			"type": "VEC3",
			"componentType": 5126,
			"min": [ -1.13528216, -0.00306622055, -0.367336124 ],
			"max": [ 1.12949204, 1.12736535, 0.364256799 ]
		},
		{
			"bufferView": 2,
			"count": 2880,
			"type": "VEC3",
			"componentType": 5126
		},
		{
			"bufferView": 3,
			"count": 2880,
			"type": "VEC4",
			"componentType": 5126
		},
		{
			"bufferView": 4,
			"count": 2880,
			"type": "VEC2",
			"componentType": 5126
		}
	],
	"buffers": [
		{
			"uri": "SM_Ind_Jun_Support_Stand_Metal_Rusty_01.bin",
			"byteLength": 162924
		}
	],
	"bufferViews": [
		{
			"buffer": 0,
			"byteLength": 24684,
			"target": 34963
		},
		{
			"buffer": 0,
			"byteLength": 34560,
			"byteOffset": 24684,
			"target": 34962
		},
		{
			"buffer": 0,
			"byteLength": 34560,
			"byteOffset": 59244,
			"target": 34962
		},
		{
			"buffer": 0,
			"byteLength": 46080,
			"byteOffset": 93804,
			"target": 34962
		},
		{
			"buffer": 0,
			"byteLength": 23040,
			"byteOffset": 139884,
			"target": 34962
		}
	],
	"images": [
		{
			"uri": "MI_Ind_Jun_Support_Stand_Metal_Rusty_01_BaseColor.png"
		},
		{
			"uri": "MI_Ind_Jun_Support_Stand_Metal_Rusty_01_MetallicRoughness.png"
		},
		{
			"uri": "MI_Ind_Jun_Support_Stand_Metal_Rusty_01_Normal.png"
		}
	],
	"materials": [
		{
			"name": "MI_Ind_Jun_Support_Stand_Metal_Rusty_01",
			"pbrMetallicRoughness":
			{
				"baseColorTexture":
				{
					"index": 0
				},
				"metallicRoughnessTexture":
				{
					"index": 1
				}
			},
			"normalTexture":
			{
				"index": 2
			},
			"extensions":
			{
				"KHR_materials_specular":
				{
					"specularFactor": 0.498039246
				}
			}
		}
	],
	"meshes": [
		{
			"name": "SM_Ind_Jun_Support_Stand_Metal_Rusty_01",
			"primitives": [
				{
					"attributes":
					{
						"POSITION": 1,
						"NORMAL": 2,
						"TANGENT": 3,
						"TEXCOORD_0": 4
					},
					"indices": 0,
					"material": 0
				}
			]
		}
	],
	"nodes": [
		{
			"mesh": 0
		}
	],
	"samplers": [
		{
			"minFilter": 9987,
			"magFilter": 9729
		}
	],
	"scenes": [
		{
			"nodes": [ 0 ]
		}
	],
	"textures": [
		{
			"name": "MI_Ind_Jun_Support_Stand_Metal_Rusty_01_BaseColor",
			"sampler": 0,
			"source": 0
		},
		{
			"name": "MI_Ind_Jun_Support_Stand_Metal_Rusty_01_MetallicRoughness",
			"sampler": 0,
			"source": 1
		},
		{
			"name": "MI_Ind_Jun_Support_Stand_Metal_Rusty_01_Normal",
			"sampler": 0,
			"source": 2
		}
	],
	"extensionsUsed": [
		"KHR_materials_specular"
	]
}