{
	"asset":
	{
		"version": "2.0",
		"generator": "Unreal Engine 5.5.3"
	},
	"scene": 0,
	"accessors": [
		{
			"bufferView": 0,
			"count": 2286,
			"type": "SCALAR",
			"componentType": 5123
		},
		{
			"bufferView": 1,
			"count": 625,
			"type": "VEC3",
			"componentType": 5126,
			"min": [ 2.23517418e-08, 7.01267755e-09, 2.08416822e-08 ],
			"max": [ 0.159999952, 0.45880118, 0.359999985 ]
		},
		{
			"bufferView": 2,
			"count": 625,
			"type": "VEC3",
			"componentType": 5126
		},
		{
			"bufferView": 3,
			"count": 625,
			"type": "VEC4",
			"componentType": 5126
		},
		{
			"bufferView": 4,
			"count": 625,
			"type": "VEC2",
			"componentType": 5126
		},
		{
			"bufferView": 5,
			"count": 625,
			"type": "VEC2",
			"componentType": 5126
		}
	],
	"buffers": [
		{
			"uri": "SM_jerrycan_plastic.bin",
			"byteLength": 39572
		}
	],
	"bufferViews": [
		{
			"buffer": 0,
			"byteLength": 4572,
			"target": 34963
		},
		{
			"buffer": 0,
			"byteLength": 7500,
			"byteOffset": 4572,
			"target": 34962
		},
		{
			"buffer": 0,
			"byteLength": 7500,
			"byteOffset": 12072,
			"target": 34962
		},
		{
			"buffer": 0,
			"byteLength": 10000,
			"byteOffset": 19572,
			"target": 34962
		},
		{
			"buffer": 0,
			"byteLength": 5000,
			"byteOffset": 29572,
			"target": 34962
		},
		{
			"buffer": 0,
			"byteLength": 5000,
			"byteOffset": 34572,
			"target": 34962
		}
	],
	"images": [
		{
			"uri": "MI_sign_rack_jerrys_cans_bottle_BaseColor.png"
		},
		{
			"uri": "MI_sign_rack_jerrys_cans_bottle_MetallicRoughness.png"
		},
		{
			"uri": "MI_sign_rack_jerrys_cans_bottle_Occlusion.png"
		},
		{
			"uri": "T_sign_rack_jerrys_can_N.png"
		}
	],
	"materials": [
		{
			"name": "MI_sign_rack_jerrys_cans_bottle",
			"pbrMetallicRoughness":
			{
				"baseColorTexture":
				{
					"index": 0
				},
				"metallicRoughnessTexture":
				{
					"index": 1
				}
			},
			"normalTexture":
			{
				"index": 2
			},
			"occlusionTexture":
			{
				"index": 3
			}
		}
	],
	"meshes": [
		{
			"name": "SM_jerrycan_plastic",
			"primitives": [
				{
					"attributes":
					{
						"POSITION": 1,
						"NORMAL": 2,
						"TANGENT": 3,
						"TEXCOORD_0": 4,
						"TEXCOORD_1": 5
					},
					"indices": 0,
					"material": 0
				}
			]
		}
	],
	"nodes": [
		{
			"mesh": 0
		}
	],
	"samplers": [
		{
			"minFilter": 9987,
			"magFilter": 9729
		}
	],
	"scenes": [
		{
			"nodes": [ 0 ]
		}
	],
	"textures": [
		{
			"name": "MI_sign_rack_jerrys_cans_bottle_BaseColor",
			"sampler": 0,
			"source": 0
		},
		{
			"name": "MI_sign_rack_jerrys_cans_bottle_MetallicRoughness",
			"sampler": 0,
			"source": 1
		},
		{
			"name": "T_sign_rack_jerrys_can_N",
			"sampler": 0,
			"source": 3
		},
		{
			"name": "MI_sign_rack_jerrys_cans_bottle_Occlusion",
			"sampler": 0,
			"source": 2
		}
	]
}