{
	"asset":
	{
		"version": "2.0",
		"generator": "Unreal Engine 5.5.3"
	},
	"scene": 0,
	"accessors": [
		{
			"bufferView": 0,
			"count": 12,
			"type": "SCALAR",
			"componentType": 5121
		},
		{
			"bufferView": 1,
			"count": 8,
			"type": "VEC3",
			"componentType": 5126,
			"min": [ 0.275054187, 1.35999978, 0.0249996949 ],
			"max": [ 1.2249459, 2.4599998, 0.0574760698 ]
		},
		{
			"bufferView": 2,
			"count": 8,
			"type": "VEC3",
			"componentType": 5126
		},
		{
			"bufferView": 3,
			"count": 8,
			"type": "VEC4",
			"componentType": 5126
		},
		{
			"bufferView": 4,
			"count": 8,
			"type": "VEC2",
			"componentType": 5126
		},
		{
			"bufferView": 5,
			"count": 8,
			"type": "VEC2",
			"componentType": 5126
		},
		{
			"bufferView": 6,
			"count": 282,
			"type": "SCALAR",
			"componentType": 5121
		},
		{
			"bufferView": 7,
			"count": 188,
			"type": "VEC3",
			"componentType": 5126,
			"min": [ 0.198000059, 1.20000005, -0.0184004139 ],
			"max": [ 1.30199993, 2.5999999, 0.118399791 ]
		},
		{
			"bufferView": 8,
			"count": 188,
			"type": "VEC3",
			"componentType": 5126
		},
		{
			"bufferView": 9,
			"count": 188,
			"type": "VEC4",
			"componentType": 5126
		},
		{
			"bufferView": 10,
			"count": 188,
			"type": "VEC2",
			"componentType": 5126
		},
		{
			"bufferView": 11,
			"count": 188,
			"type": "VEC2",
			"componentType": 5126
		}
	],
	"buffers": [
		{
			"uri": "SM_window_01.bin",
			"byteLength": 11272
		}
	],
	"bufferViews": [
		{
			"buffer": 0,
			"byteLength": 12,
			"target": 34963
		},
		{
			"buffer": 0,
			"byteLength": 96,
			"byteOffset": 12,
			"target": 34962
		},
		{
			"buffer": 0,
			"byteLength": 96,
			"byteOffset": 108,
			"target": 34962
		},
		{
			"buffer": 0,
			"byteLength": 128,
			"byteOffset": 204,
			"target": 34962
		},
		{
			"buffer": 0,
			"byteLength": 64,
			"byteOffset": 332,
			"target": 34962
		},
		{
			"buffer": 0,
			"byteLength": 64,
			"byteOffset": 396,
			"target": 34962
		},
		{
			"buffer": 0,
			"byteLength": 282,
			"byteOffset": 460,
			"target": 34963
		},
		{
			"buffer": 0,
			"byteLength": 2256,
			"byteOffset": 744,
			"target": 34962
		},
		{
			"buffer": 0,
			"byteLength": 2256,
			"byteOffset": 3000,
			"target": 34962
		},
		{
			"buffer": 0,
			"byteLength": 3008,
			"byteOffset": 5256,
			"target": 34962
		},
		{
			"buffer": 0,
			"byteLength": 1504,
			"byteOffset": 8264,
			"target": 34962
		},
		{
			"buffer": 0,
			"byteLength": 1504,
			"byteOffset": 9768,
			"target": 34962
		}
	],
	"images": [
		{
			"uri": "MI_glass_MetallicRoughness.png"
		},
		{
			"uri": "MI_wood_exterior_BaseColor.png"
		},
		{
			"uri": "MI_wood_exterior_MetallicRoughness.png"
		},
		{
			"uri": "MI_wood_exterior_Occlusion.png"
		},
		{
			"uri": "T_wood_exterior_N.png"
		}
	],
	"materials": [
		{
			"name": "MI_glass",
			"pbrMetallicRoughness":
			{
				"baseColorFactor": [ 0.603827357, 0.846873224, 0.973445296, 0.200000018 ],
				"metallicRoughnessTexture":
				{
					"index": 0
				}
			},
			"alphaMode": "BLEND",
			"doubleSided": true,
			"extensions":
			{
				"KHR_materials_ior":
				{
					"ior": 1
				}
			}
		},
		{
			"name": "MI_wood_exterior",
			"pbrMetallicRoughness":
			{
				"baseColorTexture":
				{
					"index": 1
				},
				"metallicRoughnessTexture":
				{
					"index": 2
				}
			},
			"normalTexture":
			{
				"index": 3
			},
			"occlusionTexture":
			{
				"index": 4
			}
		}
	],
	"meshes": [
		{
			"name": "SM_window_01",
			"primitives": [
				{
					"attributes":
					{
						"POSITION": 1,
						"NORMAL": 2,
						"TANGENT": 3,
						"TEXCOORD_0": 4,
						"TEXCOORD_1": 5
					},
					"indices": 0,
					"material": 0
				},
				{
					"attributes":
					{
						"POSITION": 7,
						"NORMAL": 8,
						"TANGENT": 9,
						"TEXCOORD_0": 10,
						"TEXCOORD_1": 11
					},
					"indices": 6,
					"material": 1
				}
			]
		}
	],
	"nodes": [
		{
			"mesh": 0
		}
	],
	"samplers": [
		{
			"minFilter": 9987,
			"magFilter": 9729
		}
	],
	"scenes": [
		{
			"nodes": [ 0 ]
		}
	],
	"textures": [
		{
			"name": "MI_glass_MetallicRoughness",
			"sampler": 0,
			"source": 0
		},
		{
			"name": "MI_wood_exterior_BaseColor",
			"sampler": 0,
			"source": 1
		},
		{
			"name": "MI_wood_exterior_MetallicRoughness",
			"sampler": 0,
			"source": 2
		},
		{
			"name": "T_wood_exterior_N",
			"sampler": 0,
			"source": 4
		},
		{
			"name": "MI_wood_exterior_Occlusion",
			"sampler": 0,
			"source": 3
		}
	],
	"extensionsUsed": [
		"KHR_materials_ior"
	]
}