{
	"asset":
	{
		"version": "2.0",
		"generator": "Unreal Engine 5.5.3"
	},
	"scene": 0,
	"accessors": [
		{
			"bufferView": 0,
			"count": 1086,
			"type": "SCALAR",
			"componentType": 5123
		},
		{
			"bufferView": 1,
			"count": 279,
			"type": "VEC3",
			"componentType": 5126,
			"min": [ -1.24732101, -0.00269897189, -1.83544719 ],
			"max": [ 1.24297571, 0.0397688076, 1.83793747 ]
		},
		{
			"bufferView": 2,
			"count": 279,
			"type": "VEC3",
			"componentType": 5126
		},
		{
			"bufferView": 3,
			"count": 279,
			"type": "VEC4",
			"componentType": 5126
		},
		{
			"bufferView": 4,
			"count": 279,
			"type": "VEC2",
			"componentType": 5126
		}
	],
	"buffers": [
		{
			"uri": "SM_Urb_Roa_Sheet_Metal_Rusty_01.bin",
			"byteLength": 15564
		}
	],
	"bufferViews": [
		{
			"buffer": 0,
			"byteLength": 2172,
			"target": 34963
		},
		{
			"buffer": 0,
			"byteLength": 3348,
			"byteOffset": 2172,
			"target": 34962
		},
		{
			"buffer": 0,
			"byteLength": 3348,
			"byteOffset": 5520,
			"target": 34962
		},
		{
			"buffer": 0,
			"byteLength": 4464,
			"byteOffset": 8868,
			"target": 34962
		},
		{
			"buffer": 0,
			"byteLength": 2232,
			"byteOffset": 13332,
			"target": 34962
		}
	],
	"images": [
		{
			"uri": "MI_Urb_Roa_Sheet_Metal_Rusty_01_BaseColor.png"
		},
		{
			"uri": "MI_Urb_Roa_Sheet_Metal_Rusty_01_MetallicRoughness.png"
		},
		{
			"uri": "MI_Urb_Roa_Sheet_Metal_Rusty_01_Normal.png"
		}
	],
	"materials": [
		{
			"name": "MI_Urb_Roa_Sheet_Metal_Rusty_01",
			"pbrMetallicRoughness":
			{
				"baseColorTexture":
				{
					"index": 0
				},
				"metallicRoughnessTexture":
				{
					"index": 1
				}
			},
			"normalTexture":
			{
				"index": 2
			},
			"extensions":
			{
				"KHR_materials_specular":
				{
					"specularFactor": 0.498039246
				}
			}
		}
	],
	"meshes": [
		{
			"name": "SM_Urb_Roa_Sheet_Metal_Rusty_01",
			"primitives": [
				{
					"attributes":
					{
						"POSITION": 1,
						"NORMAL": 2,
						"TANGENT": 3,
						"TEXCOORD_0": 4
					},
					"indices": 0,
					"material": 0
				}
			]
		}
	],
	"nodes": [
		{
			"mesh": 0
		}
	],
	"samplers": [
		{
			"minFilter": 9987,
			"magFilter": 9729
		}
	],
	"scenes": [
		{
			"nodes": [ 0 ]
		}
	],
	"textures": [
		{
			"name": "MI_Urb_Roa_Sheet_Metal_Rusty_01_BaseColor",
			"sampler": 0,
			"source": 0
		},
		{
			"name": "MI_Urb_Roa_Sheet_Metal_Rusty_01_MetallicRoughness",
			"sampler": 0,
			"source": 1
		},
		{
			"name": "MI_Urb_Roa_Sheet_Metal_Rusty_01_Normal",
			"sampler": 0,
			"source": 2
		}
	],
	"extensionsUsed": [
		"KHR_materials_specular"
	]
}