{
	"asset":
	{
		"version": "2.0",
		"generator": "Unreal Engine 5.5.3"
	},
	"scene": 0,
	"accessors": [
		{
			"bufferView": 0,
			"count": 4710,
			"type": "SCALAR",
			"componentType": 5123
		},
		{
			"bufferView": 1,
			"count": 1584,
			"type": "VEC3",
			"componentType": 5126,
			"min": [ 0, -0.000521670154, -0.00041405487 ],
			"max": [ 0.764999986, 0.941852927, 0.892436504 ]
		},
		{
			"bufferView": 2,
			"count": 1584,
			"type": "VEC3",
			"componentType": 5126
		},
		{
			"bufferView": 3,
			"count": 1584,
			"type": "VEC4",
			"componentType": 5126
		},
		{
			"bufferView": 4,
			"count": 1584,
			"type": "VEC2",
			"componentType": 5126
		},
		{
			"bufferView": 5,
			"count": 1584,
			"type": "VEC2",
			"componentType": 5126
		}
	],
	"buffers": [
		{
			"uri": "SM_armchair.bin",
			"byteLength": 98124
		}
	],
	"bufferViews": [
		{
			"buffer": 0,
			"byteLength": 9420,
			"target": 34963
		},
		{
			"buffer": 0,
			"byteLength": 19008,
			"byteOffset": 9420,
			"target": 34962
		},
		{
			"buffer": 0,
			"byteLength": 19008,
			"byteOffset": 28428,
			"target": 34962
		},
		{
			"buffer": 0,
			"byteLength": 25344,
			"byteOffset": 47436,
			"target": 34962
		},
		{
			"buffer": 0,
			"byteLength": 12672,
			"byteOffset": 72780,
			"target": 34962
		},
		{
			"buffer": 0,
			"byteLength": 12672,
			"byteOffset": 85452,
			"target": 34962
		}
	],
	"images": [
		{
			"uri": "MI_armchair_BaseColor.png"
		},
		{
			"uri": "MI_armchair_MetallicRoughness.png"
		},
		{
			"uri": "T_armchair_N.png"
		},
		{
			"uri": "T_armchair_ORM.png"
		}
	],
	"materials": [
		{
			"name": "MI_armchair",
			"pbrMetallicRoughness":
			{
				"baseColorTexture":
				{
					"index": 0
				},
				"metallicRoughnessTexture":
				{
					"index": 1
				}
			},
			"normalTexture":
			{
				"index": 2
			},
			"occlusionTexture":
			{
				"index": 3
			}
		}
	],
	"meshes": [
		{
			"name": "SM_armchair",
			"primitives": [
				{
					"attributes":
					{
						"POSITION": 1,
						"NORMAL": 2,
						"TANGENT": 3,
						"TEXCOORD_0": 4,
						"TEXCOORD_1": 5
					},
					"indices": 0,
					"material": 0
				}
			]
		}
	],
	"nodes": [
		{
			"mesh": 0
		}
	],
	"samplers": [
		{
			"minFilter": 9987,
			"magFilter": 9729
		}
	],
	"scenes": [
		{
			"nodes": [ 0 ]
		}
	],
	"textures": [
		{
			"name": "MI_armchair_BaseColor",
			"sampler": 0,
			"source": 0
		},
		{
			"name": "MI_armchair_MetallicRoughness",
			"sampler": 0,
			"source": 1
		},
		{
			"name": "T_armchair_N",
			"sampler": 0,
			"source": 2
		},
		{
			"name": "T_armchair_ORM",
			"sampler": 0,
			"source": 3
		}
	]
}