{
	"asset":
	{
		"version": "2.0",
		"generator": "Unreal Engine 5.5.3"
	},
	"scene": 0,
	"accessors": [
		{
			"bufferView": 0,
			"count": 2244,
			"type": "SCALAR",
			"componentType": 5123
		},
		{
			"bufferView": 1,
			"count": 1389,
			"type": "VEC3",
			"componentType": 5126,
			"min": [ 0.0117918048, -0.0934929326, 0.000112253423 ],
			"max": [ 3.55613542, 1.72959304, 1.01716292 ]
		},
		{
			"bufferView": 2,
			"count": 1389,
			"type": "VEC3",
			"componentType": 5126
		},
		{
			"bufferView": 3,
			"count": 1389,
			"type": "VEC4",
			"componentType": 5126
		},
		{
			"bufferView": 4,
			"count": 1389,
			"type": "VEC2",
			"componentType": 5126
		},
		{
			"bufferView": 5,
			"count": 1389,
			"type": "VEC2",
			"componentType": 5126
		}
	],
	"buffers": [
		{
			"uri": "SM_fence_02.bin",
			"byteLength": 82272
		}
	],
	"bufferViews": [
		{
			"buffer": 0,
			"byteLength": 4488,
			"target": 34963
		},
		{
			"buffer": 0,
			"byteLength": 16668,
			"byteOffset": 4488,
			"target": 34962
		},
		{
			"buffer": 0,
			"byteLength": 16668,
			"byteOffset": 21156,
			"target": 34962
		},
		{
			"buffer": 0,
			"byteLength": 22224,
			"byteOffset": 37824,
			"target": 34962
		},
		{
			"buffer": 0,
			"byteLength": 11112,
			"byteOffset": 60048,
			"target": 34962
		},
		{
			"buffer": 0,
			"byteLength": 11112,
			"byteOffset": 71160,
			"target": 34962
		}
	],
	"images": [
		{
			"uri": "MI_fence02_BaseColor.png"
		},
		{
			"uri": "MI_fence02_MetallicRoughness.png"
		},
		{
			"uri": "MI_fence02_Occlusion.png"
		},
		{
			"uri": "T_fence_02_N.png"
		}
	],
	"materials": [
		{
			"name": "MI_fence02",
			"pbrMetallicRoughness":
			{
				"baseColorTexture":
				{
					"index": 0
				},
				"metallicRoughnessTexture":
				{
					"index": 1
				}
			},
			"normalTexture":
			{
				"index": 2
			},
			"occlusionTexture":
			{
				"index": 3
			}
		}
	],
	"meshes": [
		{
			"name": "SM_fence_02",
			"primitives": [
				{
					"attributes":
					{
						"POSITION": 1,
						"NORMAL": 2,
						"TANGENT": 3,
						"TEXCOORD_0": 4,
						"TEXCOORD_1": 5
					},
					"indices": 0,
					"material": 0
				}
			]
		}
	],
	"nodes": [
		{
			"mesh": 0
		}
	],
	"samplers": [
		{
			"minFilter": 9987,
			"magFilter": 9729
		}
	],
	"scenes": [
		{
			"nodes": [ 0 ]
		}
	],
	"textures": [
		{
			"name": "MI_fence02_BaseColor",
			"sampler": 0,
			"source": 0
		},
		{
			"name": "MI_fence02_MetallicRoughness",
			"sampler": 0,
			"source": 1
		},
		{
			"name": "T_fence_02_N",
			"sampler": 0,
			"source": 3
		},
		{
			"name": "MI_fence02_Occlusion",
			"sampler": 0,
			"source": 2
		}
	]
}