{
	"asset":
	{
		"version": "2.0",
		"generator": "Unreal Engine 5.5.3"
	},
	"scene": 0,
	"accessors": [
		{
			"bufferView": 0,
			"count": 11154,
			"type": "SCALAR",
			"componentType": 5123
		},
		{
			"bufferView": 1,
			"count": 2206,
			"type": "VEC3",
			"componentType": 5126,
			"min": [ -0.0618671104, -0.125711367, -0.0289417692 ],
			"max": [ 0.0615552217, 0.125280127, 0.0287038144 ]
		},
		{
			"bufferView": 2,
			"count": 2206,
			"type": "VEC3",
			"componentType": 5126
		},
		{
			"bufferView": 3,
			"count": 2206,
			"type": "VEC4",
			"componentType": 5126
		},
		{
			"bufferView": 4,
			"count": 2206,
			"type": "VEC2",
			"componentType": 5126
		}
	],
	"buffers": [
		{
			"uri": "SM_Ind_Con_Oil_Plastic_Pack_02_D.bin",
			"byteLength": 128196
		}
	],
	"bufferViews": [
		{
			"buffer": 0,
			"byteLength": 22308,
			"target": 34963
		},
		{
			"buffer": 0,
			"byteLength": 26472,
			"byteOffset": 22308,
			"target": 34962
		},
		{
			"buffer": 0,
			"byteLength": 26472,
			"byteOffset": 48780,
			"target": 34962
		},
		{
			"buffer": 0,
			"byteLength": 35296,
			"byteOffset": 75252,
			"target": 34962
		},
		{
			"buffer": 0,
			"byteLength": 17648,
			"byteOffset": 110548,
			"target": 34962
		}
	],
	"images": [
		{
			"uri": "MI_Ind_Con_Oil_Plastic_Pack_02_BaseColor.png"
		},
		{
			"uri": "MI_Ind_Con_Oil_Plastic_Pack_02_MetallicRoughness.png"
		},
		{
			"uri": "MI_Ind_Con_Oil_Plastic_Pack_02_Normal.png"
		}
	],
	"materials": [
		{
			"name": "MI_Ind_Con_Oil_Plastic_Pack_02",
			"pbrMetallicRoughness":
			{
				"baseColorTexture":
				{
					"index": 0
				},
				"metallicRoughnessTexture":
				{
					"index": 1
				}
			},
			"normalTexture":
			{
				"index": 2
			},
			"extensions":
			{
				"KHR_materials_specular":
				{
					"specularFactor": 0.498039246
				}
			}
		}
	],
	"meshes": [
		{
			"name": "SM_Ind_Con_Oil_Plastic_Pack_02_D",
			"primitives": [
				{
					"attributes":
					{
						"POSITION": 1,
						"NORMAL": 2,
						"TANGENT": 3,
						"TEXCOORD_0": 4
					},
					"indices": 0,
					"material": 0
				}
			]
		}
	],
	"nodes": [
		{
			"mesh": 0
		}
	],
	"samplers": [
		{
			"minFilter": 9987,
			"magFilter": 9729
		}
	],
	"scenes": [
		{
			"nodes": [ 0 ]
		}
	],
	"textures": [
		{
			"name": "MI_Ind_Con_Oil_Plastic_Pack_02_BaseColor",
			"sampler": 0,
			"source": 0
		},
		{
			"name": "MI_Ind_Con_Oil_Plastic_Pack_02_MetallicRoughness",
			"sampler": 0,
			"source": 1
		},
		{
			"name": "MI_Ind_Con_Oil_Plastic_Pack_02_Normal",
			"sampler": 0,
			"source": 2
		}
	],
	"extensionsUsed": [
		"KHR_materials_specular"
	]
}