{
	"asset":
	{
		"version": "2.0",
		"generator": "Unreal Engine 5.5.3"
	},
	"scene": 0,
	"accessors": [
		{
			"bufferView": 0,
			"count": 1605,
			"type": "SCALAR",
			"componentType": 5123
		},
		{
			"bufferView": 1,
			"count": 514,
			"type": "VEC3",
			"componentType": 5126,
			"min": [ 0.00145047577, 0.000586005161, -0.0143689876 ],
			"max": [ 10, 0.107635468, 0.0777928308 ]
		},
		{
			"bufferView": 2,
			"count": 514,
			"type": "VEC3",
			"componentType": 5126
		},
		{
			"bufferView": 3,
			"count": 514,
			"type": "VEC4",
			"componentType": 5126
		},
		{
			"bufferView": 4,
			"count": 514,
			"type": "VEC2",
			"componentType": 5126
		},
		{
			"bufferView": 5,
			"count": 514,
			"type": "VEC2",
			"componentType": 5126
		}
	],
	"buffers": [
		{
			"uri": "SM_beam_house.bin",
			"byteLength": 31996
		}
	],
	"bufferViews": [
		{
			"buffer": 0,
			"byteLength": 3210,
			"target": 34963
		},
		{
			"buffer": 0,
			"byteLength": 6168,
			"byteOffset": 3212,
			"target": 34962
		},
		{
			"buffer": 0,
			"byteLength": 6168,
			"byteOffset": 9380,
			"target": 34962
		},
		{
			"buffer": 0,
			"byteLength": 8224,
			"byteOffset": 15548,
			"target": 34962
		},
		{
			"buffer": 0,
			"byteLength": 4112,
			"byteOffset": 23772,
			"target": 34962
		},
		{
			"buffer": 0,
			"byteLength": 4112,
			"byteOffset": 27884,
			"target": 34962
		}
	],
	"images": [
		{
			"uri": "MI_wood_exterior_BaseColor.png"
		},
		{
			"uri": "MI_wood_exterior_MetallicRoughness.png"
		},
		{
			"uri": "MI_wood_exterior_Occlusion.png"
		},
		{
			"uri": "T_wood_exterior_N.png"
		}
	],
	"materials": [
		{
			"name": "MI_wood_exterior",
			"pbrMetallicRoughness":
			{
				"baseColorTexture":
				{
					"index": 0
				},
				"metallicRoughnessTexture":
				{
					"index": 1
				}
			},
			"normalTexture":
			{
				"index": 2
			},
			"occlusionTexture":
			{
				"index": 3
			}
		}
	],
	"meshes": [
		{
			"name": "SM_beam_house",
			"primitives": [
				{
					"attributes":
					{
						"POSITION": 1,
						"NORMAL": 2,
						"TANGENT": 3,
						"TEXCOORD_0": 4,
						"TEXCOORD_1": 5
					},
					"indices": 0,
					"material": 0
				}
			]
		}
	],
	"nodes": [
		{
			"mesh": 0
		}
	],
	"samplers": [
		{
			"minFilter": 9987,
			"magFilter": 9729
		}
	],
	"scenes": [
		{
			"nodes": [ 0 ]
		}
	],
	"textures": [
		{
			"name": "MI_wood_exterior_BaseColor",
			"sampler": 0,
			"source": 0
		},
		{
			"name": "MI_wood_exterior_MetallicRoughness",
			"sampler": 0,
			"source": 1
		},
		{
			"name": "T_wood_exterior_N",
			"sampler": 0,
			"source": 3
		},
		{
			"name": "MI_wood_exterior_Occlusion",
			"sampler": 0,
			"source": 2
		}
	]
}