{
	"asset":
	{
		"version": "2.0",
		"generator": "Unreal Engine 5.5.3"
	},
	"scene": 0,
	"accessors": [
		{
			"bufferView": 0,
			"count": 8892,
			"type": "SCALAR",
			"componentType": 5123
		},
		{
			"bufferView": 1,
			"count": 1898,
			"type": "VEC3",
			"componentType": 5126,
			"min": [ -0.188786641, -0.0030652252, -0.131487951 ],
			"max": [ 0.189095721, 0.223399773, 0.131683961 ]
		},
		{
			"bufferView": 2,
			"count": 1898,
			"type": "VEC3",
			"componentType": 5126
		},
		{
			"bufferView": 3,
			"count": 1898,
			"type": "VEC4",
			"componentType": 5126
		},
		{
			"bufferView": 4,
			"count": 1898,
			"type": "VEC2",
			"componentType": 5126
		}
	],
	"buffers": [
		{
			"uri": "SM_Ind_War_Container_Jerrycan_Metal_Red_03.bin",
			"byteLength": 108888
		}
	],
	"bufferViews": [
		{
			"buffer": 0,
			"byteLength": 17784,
			"target": 34963
		},
		{
			"buffer": 0,
			"byteLength": 22776,
			"byteOffset": 17784,
			"target": 34962
		},
		{
			"buffer": 0,
			"byteLength": 22776,
			"byteOffset": 40560,
			"target": 34962
		},
		{
			"buffer": 0,
			"byteLength": 30368,
			"byteOffset": 63336,
			"target": 34962
		},
		{
			"buffer": 0,
			"byteLength": 15184,
			"byteOffset": 93704,
			"target": 34962
		}
	],
	"images": [
		{
			"uri": "MI_Ind_War_Container_Jerrycan_Metal_Red_03_BaseColor.png"
		},
		{
			"uri": "MI_Ind_War_Container_Jerrycan_Metal_Red_03_MetallicRoughness.png"
		},
		{
			"uri": "MI_Ind_War_Container_Jerrycan_Metal_Red_03_Normal.png"
		}
	],
	"materials": [
		{
			"name": "MI_Ind_War_Container_Jerrycan_Metal_Red_03",
			"pbrMetallicRoughness":
			{
				"baseColorTexture":
				{
					"index": 0
				},
				"metallicRoughnessTexture":
				{
					"index": 1
				}
			},
			"normalTexture":
			{
				"index": 2
			},
			"extensions":
			{
				"KHR_materials_specular":
				{
					"specularFactor": 0.498039246
				}
			}
		}
	],
	"meshes": [
		{
			"name": "SM_Ind_War_Container_Jerrycan_Metal_Red_03",
			"primitives": [
				{
					"attributes":
					{
						"POSITION": 1,
						"NORMAL": 2,
						"TANGENT": 3,
						"TEXCOORD_0": 4
					},
					"indices": 0,
					"material": 0
				}
			]
		}
	],
	"nodes": [
		{
			"mesh": 0
		}
	],
	"samplers": [
		{
			"minFilter": 9987,
			"magFilter": 9729
		}
	],
	"scenes": [
		{
			"nodes": [ 0 ]
		}
	],
	"textures": [
		{
			"name": "MI_Ind_War_Container_Jerrycan_Metal_Red_03_BaseColor",
			"sampler": 0,
			"source": 0
		},
		{
			"name": "MI_Ind_War_Container_Jerrycan_Metal_Red_03_MetallicRoughness",
			"sampler": 0,
			"source": 1
		},
		{
			"name": "MI_Ind_War_Container_Jerrycan_Metal_Red_03_Normal",
			"sampler": 0,
			"source": 2
		}
	],
	"extensionsUsed": [
		"KHR_materials_specular"
	]
}