{
	"asset":
	{
		"version": "2.0",
		"generator": "Unreal Engine 5.5.3"
	},
	"scene": 0,
	"accessors": [
		{
			"bufferView": 0,
			"count": 11988,
			"type": "SCALAR",
			"componentType": 5123
		},
		{
			"bufferView": 1,
			"count": 2514,
			"type": "VEC3",
			"componentType": 5126,
			"min": [ -0.251002133, -0.00478198612, -0.24324356 ],
			"max": [ 0.242701828, 0.869718313, 0.240667582 ]
		},
		{
			"bufferView": 2,
			"count": 2514,
			"type": "VEC3",
			"componentType": 5126
		},
		{
			"bufferView": 3,
			"count": 2514,
			"type": "VEC4",
			"componentType": 5126
		},
		{
			"bufferView": 4,
			"count": 2514,
			"type": "VEC2",
			"componentType": 5126
		}
	],
	"buffers": [
		{
			"uri": "SM_Ind_Con_Gas_Metal_Rusty_01.bin",
			"byteLength": 144648
		}
	],
	"bufferViews": [
		{
			"buffer": 0,
			"byteLength": 23976,
			"target": 34963
		},
		{
			"buffer": 0,
			"byteLength": 30168,
			"byteOffset": 23976,
			"target": 34962
		},
		{
			"buffer": 0,
			"byteLength": 30168,
			"byteOffset": 54144,
			"target": 34962
		},
		{
			"buffer": 0,
			"byteLength": 40224,
			"byteOffset": 84312,
			"target": 34962
		},
		{
			"buffer": 0,
			"byteLength": 20112,
			"byteOffset": 124536,
			"target": 34962
		}
	],
	"images": [
		{
			"uri": "MI_Ind_Con_Gas_Metal_Rusty_01_BaseColor.png"
		},
		{
			"uri": "MI_Ind_Con_Gas_Metal_Rusty_01_MetallicRoughness.png"
		},
		{
			"uri": "MI_Ind_Con_Gas_Metal_Rusty_01_Normal.png"
		}
	],
	"materials": [
		{
			"name": "MI_Ind_Con_Gas_Metal_Rusty_01",
			"pbrMetallicRoughness":
			{
				"baseColorTexture":
				{
					"index": 0
				},
				"metallicRoughnessTexture":
				{
					"index": 1
				}
			},
			"normalTexture":
			{
				"index": 2
			},
			"extensions":
			{
				"KHR_materials_specular":
				{
					"specularFactor": 0.498039246
				}
			}
		}
	],
	"meshes": [
		{
			"name": "SM_Ind_Con_Gas_Metal_Rusty_01",
			"primitives": [
				{
					"attributes":
					{
						"POSITION": 1,
						"NORMAL": 2,
						"TANGENT": 3,
						"TEXCOORD_0": 4
					},
					"indices": 0,
					"material": 0
				}
			]
		}
	],
	"nodes": [
		{
			"mesh": 0
		}
	],
	"samplers": [
		{
			"minFilter": 9987,
			"magFilter": 9729
		}
	],
	"scenes": [
		{
			"nodes": [ 0 ]
		}
	],
	"textures": [
		{
			"name": "MI_Ind_Con_Gas_Metal_Rusty_01_BaseColor",
			"sampler": 0,
			"source": 0
		},
		{
			"name": "MI_Ind_Con_Gas_Metal_Rusty_01_MetallicRoughness",
			"sampler": 0,
			"source": 1
		},
		{
			"name": "MI_Ind_Con_Gas_Metal_Rusty_01_Normal",
			"sampler": 0,
			"source": 2
		}
	],
	"extensionsUsed": [
		"KHR_materials_specular"
	]
}