{
	"asset":
	{
		"version": "2.0",
		"generator": "Unreal Engine 5.5.3"
	},
	"scene": 0,
	"accessors": [
		{
			"bufferView": 0,
			"count": 252,
			"type": "SCALAR",
			"componentType": 5121
		},
		{
			"bufferView": 1,
			"count": 168,
			"type": "VEC3",
			"componentType": 5126,
			"min": [ 0, 0, -1.30336545e-07 ],
			"max": [ 2, 0.800000072, 0.299999982 ]
		},
		{
			"bufferView": 2,
			"count": 168,
			"type": "VEC3",
			"componentType": 5126
		},
		{
			"bufferView": 3,
			"count": 168,
			"type": "VEC4",
			"componentType": 5126
		},
		{
			"bufferView": 4,
			"count": 168,
			"type": "VEC2",
			"componentType": 5126
		},
		{
			"bufferView": 5,
			"count": 168,
			"type": "VEC2",
			"componentType": 5126
		}
	],
	"buffers": [
		{
			"uri": "SM_shelf_s.bin",
			"byteLength": 9660
		}
	],
	"bufferViews": [
		{
			"buffer": 0,
			"byteLength": 252,
			"target": 34963
		},
		{
			"buffer": 0,
			"byteLength": 2016,
			"byteOffset": 252,
			"target": 34962
		},
		{
			"buffer": 0,
			"byteLength": 2016,
			"byteOffset": 2268,
			"target": 34962
		},
		{
			"buffer": 0,
			"byteLength": 2688,
			"byteOffset": 4284,
			"target": 34962
		},
		{
			"buffer": 0,
			"byteLength": 1344,
			"byteOffset": 6972,
			"target": 34962
		},
		{
			"buffer": 0,
			"byteLength": 1344,
			"byteOffset": 8316,
			"target": 34962
		}
	],
	"images": [
		{
			"uri": "MI_shelf_S_BaseColor.png"
		},
		{
			"uri": "MI_shelf_S_MetallicRoughness.png"
		},
		{
			"uri": "MI_shelf_S_Occlusion.png"
		},
		{
			"uri": "T_shelf_S_N.png"
		}
	],
	"materials": [
		{
			"name": "MI_shelf_S",
			"pbrMetallicRoughness":
			{
				"baseColorTexture":
				{
					"index": 0
				},
				"metallicRoughnessTexture":
				{
					"index": 1
				}
			},
			"normalTexture":
			{
				"index": 2
			},
			"occlusionTexture":
			{
				"index": 3
			}
		}
	],
	"meshes": [
		{
			"name": "SM_shelf_s",
			"primitives": [
				{
					"attributes":
					{
						"POSITION": 1,
						"NORMAL": 2,
						"TANGENT": 3,
						"TEXCOORD_0": 4,
						"TEXCOORD_1": 5
					},
					"indices": 0,
					"material": 0
				}
			]
		}
	],
	"nodes": [
		{
			"mesh": 0
		}
	],
	"samplers": [
		{
			"minFilter": 9987,
			"magFilter": 9729
		}
	],
	"scenes": [
		{
			"nodes": [ 0 ]
		}
	],
	"textures": [
		{
			"name": "MI_shelf_S_BaseColor",
			"sampler": 0,
			"source": 0
		},
		{
			"name": "MI_shelf_S_MetallicRoughness",
			"sampler": 0,
			"source": 1
		},
		{
			"name": "T_shelf_S_N",
			"sampler": 0,
			"source": 3
		},
		{
			"name": "MI_shelf_S_Occlusion",
			"sampler": 0,
			"source": 2
		}
	]
}